<?xml version="1.0" encoding="UTF-8" standalone="no"?>
<!-- Uploaded to: SVG Repo, www.svgrepo.com, Generator: SVG Repo Mixer Tools -->

<svg
   width="801.11182"
   height="802.10071"
   viewBox="0 0 32.044473 32.084028"
   id="Camada_1"
   version="1.1"
   xml:space="preserve"
   sodipodi:docname="instagram-logo-facebook-svgrepo-com.svg"
   inkscape:version="1.4 (86a8ad7, 2024-10-11)"
   xmlns:inkscape="http://www.inkscape.org/namespaces/inkscape"
   xmlns:sodipodi="http://sodipodi.sourceforge.net/DTD/sodipodi-0.dtd"
   xmlns="http://www.w3.org/2000/svg"
   xmlns:svg="http://www.w3.org/2000/svg"><defs
   id="defs4" /><sodipodi:namedview
   id="namedview4"
   pagecolor="#ffffff"
   bordercolor="#000000"
   borderopacity="0.25"
   inkscape:showpageshadow="2"
   inkscape:pageopacity="0.0"
   inkscape:pagecheckerboard="0"
   inkscape:deskcolor="#d1d1d1"
   inkscape:zoom="0.72036503"
   inkscape:cx="260.9788"
   inkscape:cy="489.33525"
   inkscape:window-width="1920"
   inkscape:window-height="1017"
   inkscape:window-x="-8"
   inkscape:window-y="-8"
   inkscape:window-maximized="1"
   inkscape:current-layer="g4" />

<style
   type="text/css"
   id="style1">
	.st0{fill:#FFFFFF;}
</style>



<g
   id="g4"
   transform="translate(0.198815,0.12026128)"
   style="fill:#000000;fill-opacity:1">





<path
   id="path4"
   style="fill:#e7ebfe;fill-opacity:1"
   class="st0"
   d="M 20,6 H 12 C 8.7,6 6,8.7 6,12 v 8 c 0,3.3 2.7,6 6,6 h 8 c 3.3,0 6,-2.7 6,-6 V 12 C 26,8.7 23.3,6 20,6 Z m 4.1,14 c 0,2.3 -1.9,4.1 -4.1,4.1 H 12 C 9.7,24.1 7.9,22.2 7.9,20 V 12 C 7.9,9.7 9.8,7.9 12,7.9 h 8 c 2.3,0 4.1,1.9 4.1,4.1 z M 16,11.2 c -2.7,0 -4.9,2.2 -4.9,4.9 0,2.7 2.2,4.9 4.9,4.9 2.7,0 4.9,-2.2 4.9,-4.9 C 21,13.4 18.8,11.2 16,11.2 Z m 0,8.1 c -1.7,0 -3.2,-1.4 -3.2,-3.2 0,-1.7 1.4,-3.2 3.2,-3.2 1.7,0 3.2,1.4 3.2,3.2 0,1.8 -1.4,3.2 -3.2,3.2 z m 5.3,-9.6 c -0.6,0 -1.2,0.5 -1.2,1.2 0,0.7 0.5,1.2 1.2,1.2 0.7,0 1.2,-0.5 1.2,-1.2 C 22.4,10.2 21.9,9.7 21.3,9.7 Z M 16.01227,-0.1202454 C 26.822804,-0.06709197 31.904958,5.0270849 31.845399,15.894478 31.791869,25.661724 26.137359,31.957212 16.01227,31.96319 5.5965502,31.96934 -0.2101904,25.806111 -0.198773,15.933742 -0.18620317,5.0648864 6.0429632,-0.16926267 16.01227,-0.1202454 Z" />

</g>

</svg>
