<?xml version="1.0" encoding="UTF-8" standalone="no"?>
<!-- Created with Inkscape (http://www.inkscape.org/) -->

<svg
   width="35.220829mm"
   height="15.565458mm"
   viewBox="0 0 35.220829 15.565458"
   version="1.1"
   id="svg1"
   xml:space="preserve"
   xmlns:xlink="http://www.w3.org/1999/xlink"
   xmlns="http://www.w3.org/2000/svg"
   xmlns:svg="http://www.w3.org/2000/svg"><defs
     id="defs1"><linearGradient
       id="linearGradient6-1"><stop
         style="stop-color:#ff0000;stop-opacity:1;"
         offset="0"
         id="stop7" /><stop
         style="stop-color:#b21e57;stop-opacity:1;"
         offset="0.50204921"
         id="stop11" /><stop
         style="stop-color:#5947b7;stop-opacity:1;"
         offset="1"
         id="stop8" /></linearGradient><linearGradient
       xlink:href="#linearGradient6-1"
       id="linearGradient20"
       x1="2.2748537"
       y1="41.491833"
       x2="338.16818"
       y2="41.491833"
       gradientUnits="userSpaceOnUse" /></defs><g
     id="layer1"
     transform="translate(-166.89208,-65.261734)"><path
       id="path1"
       style="fill:#f00;fill-opacity:1;stroke-width:2.07601"
       d="M 76.710461,3.1005352 C 75.004858,3.1086343 73.309888,3.1701232 71.635006,3.28721 44.663528,5.1726532 24.931021,14.382557 7.8908868,33.037256 0.14290144,41.519366 0.48209673,43.355788 8.4734216,36.188094 15.80293,29.61401 21.344137,26.41626 35.904056,20.360955 c 10.359226,-4.308282 16.382489,-6.278496 23.997646,-7.849738 6.457428,-1.332368 6.233832,-1.473053 3.615365,2.282937 -7.416764,10.638779 -12.173182,21.726817 -15.240315,35.529261 -1.363942,6.137899 -5.098007,11.242139 -10.915824,14.922764 -1.295315,0.819478 -2.002838,1.637199 -1.689672,1.950366 0.06148,0.06149 7.527859,-0.0046 16.592053,-0.145903 9.064188,-0.141271 17.248461,-0.137306 18.18839,0.0074 3.361155,0.518665 4.240632,-0.643191 1.640325,-2.167074 -18.689156,-10.952517 -9.374167,-56.0770657 11.26985,-54.595155 16.585347,1.190563 5.605581,21.260952 -15.671584,28.647199 -4.964639,1.723448 -5.004817,2.453313 -0.468817,8.473038 9.681186,12.847901 28.412779,24.223309 45.017177,27.338384 1.77513,0.333013 1.7855,0.633868 0.0976,2.684156 -0.8325,1.011225 -1.51374,1.969927 -1.51374,2.13061 0,0.766504 1.3984,0.109407 3.64005,-1.710072 2.75247,-2.234037 2.06938,-2.154984 11.37713,-1.303445 15.28816,1.398671 38.36251,1.028394 38.04929,-0.61043 -0.0891,-0.466582 -0.90525,-0.565713 -6.03991,-0.735946 -3.26532,-0.108161 -8.6097,-0.376214 -11.87706,-0.59542 -3.26738,-0.219227 -9.8487,-0.593221 -14.6256,-0.831422 -10.54425,-0.525832 -10.1798,-0.285756 -6.498,-4.289093 3.39246,-3.68872 3.42022,-3.701272 5.96374,-2.825777 6.04391,2.080338 8.08266,1.056391 3.06072,-1.537334 -4.2683,-2.20449 -4.77887,-3.097214 -3.73874,-6.525894 0.27033,-0.891071 0.49135,-2.182169 0.49135,-2.868689 0,-1.679883 0.37105,-1.81135 2.57582,-0.91296 2.84856,1.160735 5.79226,1.093134 6.86918,-0.157694 0.57421,-0.666959 0.92385,-0.844042 1.20906,-0.610427 0.76339,0.625278 11.51187,0.637484 12.39201,0.0139 0.57581,-1.107716 1.26677,-1.068829 1.64998,-0.08369 0.41326,1.062426 3.26643,0.607331 4.44893,0.157695 0.70958,-0.269781 0.83265,-0.575486 1.03097,-2.558647 0.12383,-1.238328 0.37708,-2.733619 0.56215,-3.32356 0.5896,-1.879387 1.06942,-3.831789 3.381,1.610855 0.98486,2.31889 1.68887,2.489223 2.56264,-1.305777 0.66304,-2.879809 1.08742,-2.441937 1.83315,-1.520886 0.72694,0.897726 1.08576,3.187142 1.08783,4.737836 0.002,1.165431 0.76678,2.335503 1.5266,2.335503 0.23797,0 0.92256,0.353146 1.60814,0.561081 1.17905,0.357603 1.23221,0.309053 2.12524,0 0.57296,-0.19828 1.38655,-0.561081 1.92141,-0.561081 1.58235,0 3.04076,-0.653729 3.20125,-1.435417 0.0802,-0.390284 0.24147,-1.600407 0.35939,-2.689529 0.57305,-5.288607 1.64868,-7.291328 3.28653,-2.207774 1.31684,4.087268 1.89878,3.620241 3.26803,-0.618252 1.48738,-4.604143 3.40585,-1.150806 3.27235,4.265734 -0.0575,2.331217 3.31969,3.343001 5.42091,1.624232 0.2864,-0.234286 0.78471,-0.152588 1.64996,0.271419 1.90406,0.933051 5.66008,0.919436 8.92041,-0.482762 3.53982,-1.522388 2.64118,-1.788347 3.26992,-0.122298 0.35064,0.929174 0.80085,0.843694 3.75052,0.864683 5.53627,0.0394 5.89272,-0.292922 4.88772,-4.556217 -0.67086,-2.846275 -0.63783,-3.652214 0.12021,-2.894437 0.21481,0.21481 0.88989,0.390502 1.50085,0.390502 1.56979,0 2.27609,0.476674 2.72601,1.839866 1.48603,4.502759 -6.34741,10.011684 -16.86561,11.860968 -5.66621,0.996219 -4.03368,3.021491 2.17136,2.693823 15.81422,-0.835098 30.05296,-13.294801 21.69648,-18.985488 -3.73867,-2.54597 -3.73336,-3.218904 0.03,-3.570305 2.59194,-0.242042 2.97607,-0.755216 1.63388,-2.185311 -3.68345,-3.924757 -11.51685,-1.824892 -13.2953,3.563869 -0.80732,2.44617 -1.15486,0.801172 -1.13827,-5.383351 0.0187,-6.619425 0.88605,-11.09625 2.80219,-14.445364 1.22549,-2.141932 1.33245,-3.632271 0.23494,-3.283868 -0.40841,0.129648 -1.78256,0.453925 -3.05321,0.719856 -10.05642,2.10469 -10.2616,2.273178 -7.2672,5.984125 3.8909,4.821934 3.46111,17.479549 -1.25408,21.022749 -2.08779,1.568844 -2.93661,1.828304 -0.30031,-1.724003 1.68471,-2.445812 1.64162,-8.113453 -2.2604,-8.290662 -4.2019,-0.190827 -6.25972,0.367002 -8.35502,6.009873 -0.77292,2.081555 -1.03157,4.42861 -1.6397,3.662492 -0.26975,-0.339856 -0.6855,-2.380452 -1.347,-4.098052 -2.17527,-5.648158 -4.86502,-7.652863 -6.97326,-4.137822 -1.68879,2.815729 -2.37252,2.199058 -3.772,-0.165208 -1.4192,-2.397587 -2.96356,-1.673923 -4.24939,-0.05043 -1.02387,1.292734 -3.42756,6.077585 -3.84107,7.390198 -1.67102,5.304005 -0.96697,1.471706 -2.16666,-2.786777 -1.74683,-6.20071 -5.13378,-7.67049 -7.03868,-3.92648 -1.09291,2.148066 -2.04538,1.711117 -2.70134,0 -1.52935,-3.98943 -5.61993,-2.244584 -7.29508,4.32449 -2.54171,9.967141 -2.37395,4.912212 -2.75069,2.31083 -1.67959,-11.597701 -10.98659,-10.233978 -12.18603,-1.191887 -0.2925,2.205005 -1.1213,2.21883 -1.64783,0.458086 -1.68625,-5.638853 -4.12435,-7.978727 -7.25756,-6.966817 -1.48817,0.480624 -1.73681,0.485228 -2.24966,0.04613 -0.42868,-0.367004 -1.29743,-0.477218 -3.38257,-0.430196 -3.25108,0.07333 -3.4241,0.454223 -1.95465,4.289088 1.30282,3.400054 0.58198,16.006298 -0.91512,16.006298 -0.70691,0 -3.35653,-5.88624 -4.85661,-10.788159 -0.71717,-2.343576 -0.69937,-2.435833 0.78745,-4.089545 1.29503,-1.440381 1.76445,-2.315804 2.11451,-3.941497 0.63244,-2.937087 6.4376,-7.246649 11.3428,-8.420473 3.28272,-0.785561 3.26444,-1.472966 -0.0397,-1.472966 -8.3423,0 -20.71562,6.919433 -16.8742,9.436421 1.54662,1.013392 0.0764,2.961485 -1.64355,2.177803 -2.22328,-1.012996 -1.4957,-10.547799 1.22301,-16.019174 0.84789,-1.706401 0.66158,-1.772948 -2.13167,-0.754185 -5.18889,1.892495 -5.16634,1.850938 -5.16987,9.701406 -0.004,9.822472 -2.99045,17.059584 -6.2137,15.061153 -1.63727,-1.015108 -0.32508,-5.068174 1.99542,-6.164354 2.03873,-0.963074 1.96058,-2.292512 -0.22207,-3.788087 -2.70052,-1.850427 -5.335045,-0.213505 -7.468894,4.642042 -1.355218,3.083777 -1.771368,3.305535 -2.74639,0.09012 -2.80997,-9.266829 -12.95652,-5.468364 -12.366215,5.995927 0.241747,4.694965 -1.704515,3.224973 -2.745316,-2.75175 -1.110972,-6.379659 -0.286582,-8.163726 4.485409,-9.708918 7.466392,-2.417683 21.495096,-8.482197 24.256196,-10.4867 11.42259,-8.29284 11.86496,-11.074774 2.47691,-15.591057 C 101.09928,5.6178892 88.649684,3.0444621 76.710461,3.1005352 Z M 277.3299,4.768751 c -6.524,0.0013 -13.5153,0.7576836 -20.05507,2.3430126 -7.13748,1.7302199 -9.02944,1.9093152 -20.87257,1.9782595 -14.26661,0.08304 -17.78319,0.3918906 -22.27795,1.9546549 -4.83804,1.682126 -5.56365,2.474107 -1.48367,1.61887 19.84558,-4.1599811 36.05042,2.138151 35.0111,13.607498 -1.23962,13.679536 -16.07521,31.19157 -31.71117,37.432426 -1.89179,0.755085 -3.00978,1.387563 -3.07785,1.74117 -0.13059,0.6778 0.11248,0.682144 4.39741,0.07725 11.25498,-1.588952 26.20948,-2.231007 49.3406,-2.1188 22.11802,0.10731 21.34875,0.183748 20.9852,-2.089829 -0.31483,-1.968807 -1.03648,-3.17855 -3.23664,-5.427338 -1.68267,-1.719849 -1.89046,-2.0571 -1.36784,-2.217492 0.96203,-0.295247 7.52053,-0.367621 7.9731,-0.08799 0.70793,0.437523 1.99442,-0.05171 2.02441,-1.184381 0.0519,-1.962229 0.18973,-2.030816 1.03095,-0.316477 1.43,2.914001 4.2419,0.948556 5.21815,-3.667935 1.49418,-7.06566 3.19226,-6.701787 4.30196,0.921545 0.55806,3.833723 5.51291,6.173676 5.64511,2.599414 0.0687,-1.856453 0.22353,-2.016935 1.43434,0.288586 1.14823,2.186388 16.92734,1.095748 18.54135,-0.420542 2.72012,-2.555406 0.75874,-5.277888 -2.37197,-3.292448 -4.03609,2.559609 -5.53824,-0.38974 -5.55071,-10.89115 -0.01,-9.308448 1.17213,-10.722285 12.69989,-15.17058 4.91328,-1.895909 4.55126,-1.704561 3.79561,-2.002933 -0.36304,-0.143306 -1.69998,-0.201144 -2.97063,-0.128734 -19.67196,1.121077 -21.98784,2.062731 -19.28478,7.83901 1.71832,3.671774 1.72213,5.907279 0.008,5.633315 -1.72815,-0.276344 -3.77986,1.625987 -5.64403,5.231015 -1.36232,2.634511 -1.39601,2.632914 -3.03712,-0.100861 -2.13255,-3.552401 -3.36439,-4.038255 -6.12896,-2.41811 -1.47247,0.862929 -1.47243,1.445738 -2.7142,0.165209 -1.74909,-1.803686 -4.84374,-1.856072 -5.88591,1.543749 -1.22327,3.990603 -1.75724,1.514685 -2.87144,-0.281053 -1.90787,-3.074912 -3.67056,-3.237404 -7.25646,-1.518025 -3.84176,1.842068 -4.09636,3.052298 -0.78101,3.702262 3.56504,0.698919 3.74977,1.30904 1.23159,4.059506 -1.4714,1.607135 -2.63153,3.588817 -3.36004,5.739524 -0.34303,1.012638 -2.20906,-0.102948 -5.59897,-3.348234 -5.37472,-5.145385 -4.51945,-7.423486 4.58516,-12.218213 18.84464,-9.923872 28.29049,-19.31242 23.77917,-23.635031 -4.01498,-3.8473027 -13.5896,-5.9423173 -24.46296,-5.9401394 z m -2.78288,6.301677 c 4.91106,0.437442 8.12844,5.218733 5.1527,12.03369 -3.24584,7.433596 -7.12712,10.651684 -16.89457,14.007656 -9.83563,3.3794 -10.28116,5.011576 -2.45781,9.006224 9.77999,4.993706 11.17878,7.397677 5.78028,9.935279 -15.7769,7.416022 -16.77516,-24.260412 -1.27878,-40.580046 3.19498,-3.364709 6.75156,-4.665272 9.69818,-4.402803 z m 42.90683,32.450198 c 0.0392,2.606469 -0.5682,2.693379 -1.47725,2.788332 -0.90913,0.09464 -1.88705,-0.556893 -2.07008,-1.948985 -0.18291,-1.391548 0.51972,-2.663163 0.89944,-3.099672 0.26008,-0.28447 1.15326,-0.808695 1.64326,-0.643217 0.57184,0.21225 1.00048,0.729716 1.00463,2.903542 z M 205.30936,42.827012 c -0.79187,1.422282 -1.45316,1.178963 -2.46127,0.343678 -0.84443,-0.741354 -0.8624,-1.317244 -0.51429,-1.93106 0.81561,-1.28013 2.21353,-2.065059 2.94071,-1.466005 0.41146,0.353499 0.51101,2.180679 0.0349,3.053387 z m -70.00748,3.264167 10e-4,0.09012 c -2.4e-4,2.05418 -1.13949,3.920944 -2.14057,3.734445 -1.00112,0.01245 -1.48853,-1.636305 -1.50056,-3.690459 -0.0699,-2.070432 -0.31306,-2.926201 0.67058,-3.834076 1.05964,-0.761713 2.94561,1.646136 2.96955,3.69997 z m 12.48965,-3.501639 c 1.32958,-9e-5 2.40744,1.616696 2.40737,3.611074 7e-5,1.994378 -0.28404,3.743454 -2.67195,2.68503 -2.85053,-1.323716 -2.0095,-2.278784 -2.07559,-3.544926 -5e-5,-1.993748 1.011,-2.750375 2.34017,-2.751178 z m -58.772739,0.549279 c 1.329585,-8.8e-5 2.407441,1.616697 2.407385,3.611074 5.6e-5,1.994378 -0.09558,3.307141 -2.407385,2.488539 -2.498468,-0.889472 -2.359595,-1.28992 -2.359536,-3.283666 -5.9e-5,-1.993748 1.030371,-2.815144 2.359536,-2.815947 z m 196.562139,2.567326 c 0.52239,-4.91e-4 1.14452,1.288676 1.14467,2.12451 -1.5e-4,0.835832 -0.7215,1.000519 -1.24389,1.000028 -0.52197,-4.61e-4 -1.24265,-0.197942 -1.24279,-1.0331 1.4e-4,-0.835159 0.82004,-2.090977 1.34201,-2.091438 z m -171.59145,1.15961 v 0.473108 c 1e-5,0.410241 0.79052,0.927216 1.55557,3.152983 1.31743,3.832799 3.72495,7.967372 6.24161,10.718429 1.99534,2.181186 1.18879,4.641062 -3.15299,9.611288 -3.78381,4.331484 -23.808073,-3.035691 -32.042643,-11.789091 -3.373565,-3.586117 -2.461949,-4.253589 5.137678,-3.760192 2.829202,0.183686 2.860203,0.177395 3.528466,-0.731654 0.662948,-0.901818 0.681115,-0.906709 1.161852,-0.257474 0.505555,0.682752 7.648767,1.498549 9.489107,0.56966 1.81196,-0.945333 0.47463,-1.099185 2.48967,0.0486 2.94557,1.677825 4.89091,-0.44176 4.5768,-1.919591 -0.56338,-2.650564 -0.53046,-3.647808 0.15448,-4.746103 0.35745,-0.57312 0.86039,-1.61612 0.86039,-1.369975 z" /><g
       id="g2"
       transform="matrix(0.22331012,0,0,0.19545085,163.06489,91.650108)"
       style="display:inline;fill:#f00;fill-opacity:1"><path
         id="path9"
         style="fill:#f00;fill-opacity:1"
         d="m 174.36196,-135.01283 c -0.35093,0 -0.63638,0.0957 -0.63638,0.21416 0,0.11846 -0.74509,0.18401 -1.65459,0.14541 -1.08436,-0.046 -1.37996,-0.004 -0.86085,0.11898 0.65159,0.15457 0.18196,0.31957 -2.64734,0.93597 -13.41675,2.92304 -51.24654,12.51116 -107.682509,27.29096 -2.248503,0.58885 -2.07329,0.53402 -4.158457,1.07873 0.06838,-0.0177 0.131704,-0.055 0.171244,-0.11898 0.138997,-0.22491 2.417008,-0.87438 3.330006,-0.94918 0.22084,-0.0181 0.556119,-0.12907 0.745143,-0.24589 0.189025,-0.1168 0.413778,-0.14162 0.499848,-0.0555 0.08607,0.0861 0.287713,0.0493 0.446623,-0.082 0.298248,-0.24634 3.310788,-1.08455 4.26722,-1.18714 0.297197,-0.0319 0.685104,-0.14785 0.86085,-0.25647 0.175745,-0.1086 0.431492,-0.12864 0.566957,-0.0449 0.135466,0.0837 0.313343,0.0434 0.395713,-0.0899 0.138997,-0.2249 2.417007,-0.87438 3.330005,-0.94918 0.22084,-0.0181 0.556119,-0.12907 0.745143,-0.24589 0.189025,-0.1168 0.413778,-0.14162 0.499848,-0.0555 0.08607,0.0861 0.287714,0.0493 0.446624,-0.082 0.298248,-0.24633 3.310788,-1.08455 4.26722,-1.18714 0.297197,-0.0319 0.693935,-0.15244 0.879362,-0.26704 0.185427,-0.1146 0.406835,-0.13634 0.492905,-0.0502 0.08607,0.0861 0.2854,0.0493 0.44431,-0.082 0.298247,-0.24633 3.313102,-1.08455 4.269534,-1.18714 0.297198,-0.0319 0.685104,-0.14785 0.860849,-0.25646 0.175745,-0.1087 0.437636,-0.12427 0.583156,-0.0344 0.145521,0.0899 0.266122,0.0569 0.266122,-0.074 0,-0.20906 2.341987,-0.87129 3.443397,-0.97298 0.220839,-0.0204 0.55612,-0.1317 0.745144,-0.24853 0.189024,-0.1168 0.413778,-0.14163 0.499848,-0.0555 0.08607,0.0861 0.286645,0.0482 0.446623,-0.0846 0.289695,-0.24043 5.356195,-1.60019 6.384631,-1.71329 0.297198,-0.0327 0.691621,-0.15244 0.877048,-0.26704 0.185427,-0.1146 0.406836,-0.13898 0.492906,-0.0529 0.08607,0.0861 0.288959,0.0482 0.448937,-0.0846 0.289694,-0.24042 5.35388,-1.59754 6.38232,-1.71064 0.29719,-0.0327 0.68511,-0.1505 0.86085,-0.25911 0.17575,-0.1086 0.42918,-0.12864 0.56464,-0.0449 0.13547,0.0837 0.32598,0.023 0.42348,-0.13485 0.0975,-0.15781 0.34489,-0.22087 0.54845,-0.14277 0.20356,0.0781 0.37025,0.0489 0.37025,-0.0635 0,-0.18304 4.56658,-1.40779 5.56081,-1.49119 0.22084,-0.0185 0.54728,-0.12447 0.72663,-0.23531 0.17934,-0.1108 0.43844,-0.13129 0.5739,-0.0476 0.13547,0.0837 0.32598,0.023 0.42348,-0.13485 0.0975,-0.15816 0.34029,-0.22436 0.53919,-0.14806 0.1989,0.0763 0.43552,0.0169 0.52762,-0.13219 0.0921,-0.14941 0.32096,-0.21408 0.50679,-0.14278 0.18583,0.0713 0.4424,0.0269 0.56927,-0.0978 0.22353,-0.21969 9.46993,-2.62521 10.55929,-2.74707 0.2972,-0.0332 0.6851,-0.14784 0.86085,-0.25646 0.17575,-0.1086 0.42917,-0.12865 0.56464,-0.045 0.13546,0.0837 0.32598,0.023 0.42348,-0.13484 0.0975,-0.15817 0.34029,-0.22437 0.53919,-0.14807 0.1989,0.0763 0.43783,0.0169 0.52993,-0.13219 0.0921,-0.14909 0.33103,-0.2085 0.52993,-0.1322 0.19891,0.0763 0.43552,0.0169 0.52762,-0.1322 0.0921,-0.14909 0.33103,-0.2085 0.52993,-0.1322 0.1989,0.0763 0.42588,0.0346 0.50448,-0.0925 0.13096,-0.21189 11.73789,-3.15497 12.98216,-3.29173 0.2972,-0.0327 0.68278,-0.14785 0.85853,-0.25646 0.17574,-0.1087 0.4315,-0.13129 0.56696,-0.0476 0.13547,0.0837 0.32598,0.0256 0.42348,-0.1322 0.0975,-0.15816 0.34029,-0.22701 0.53919,-0.15071 0.1989,0.0763 0.43783,0.0169 0.52993,-0.13219 0.0921,-0.14909 0.32872,-0.2085 0.52762,-0.1322 0.1989,0.0763 0.43783,0.0169 0.52993,-0.1322 0.0921,-0.14909 0.33103,-0.2085 0.52993,-0.1322 0.19891,0.0763 0.43552,0.0169 0.52762,-0.1322 0.0921,-0.14909 0.33103,-0.20849 0.52993,-0.13219 0.1989,0.0763 0.43783,0.0169 0.52993,-0.1322 0.0921,-0.14909 0.32872,-0.2085 0.52762,-0.1322 0.1989,0.0763 0.43459,0.0214 0.52299,-0.12162 0.0884,-0.143 0.30115,-0.23832 0.47208,-0.21152 0.17093,0.0268 0.48983,-0.0259 0.70811,-0.11898 0.73407,-0.31312 4.86298,-1.22383 4.98691,-1.09989 0.0675,0.0675 0.26897,0.001 0.44894,-0.14806 0.17998,-0.14939 0.43094,-0.25029 0.55539,-0.22209 0.12446,0.0282 0.40421,-0.026 0.62249,-0.12162 0.76033,-0.33287 7.23203,-1.73962 7.43292,-1.61546 0.1113,0.0688 0.27715,0.007 0.36795,-0.14013 0.15716,-0.25429 -0.91918,-0.21384 -4.3621,0.16657 -1.27221,0.14057 -2.88834,0.3073 -5.02393,0.52086 -0.7276,0.0728 -1.91975,0.19424 -2.64735,0.26704 -0.72761,0.0728 -1.91742,0.19159 -2.64503,0.26439 -0.7276,0.0728 -1.91742,0.1916 -2.64502,0.2644 -0.7276,0.0728 -1.91975,0.1916 -2.64735,0.2644 -1.26786,0.12679 -1.87028,0.18328 -5.42427,0.52086 -0.87313,0.0829 -2.12441,0.20179 -2.77925,0.26439 -0.65484,0.0626 -1.90381,0.18414 -2.77693,0.26704 -0.87313,0.0829 -2.15325,0.20547 -2.84404,0.27497 -0.69079,0.0695 -1.82147,0.18009 -2.51313,0.24589 -0.69166,0.0658 -1.97322,0.19057 -2.84635,0.27497 -0.87312,0.0845 -2.18124,0.20828 -2.90884,0.27498 -1.25854,0.11535 -2.08667,0.19155 -5.42428,0.4997 -0.80037,0.0739 -2.13952,0.19489 -2.97594,0.26969 -0.83641,0.0748 -2.20599,0.2017 -3.04306,0.2829 -0.83708,0.0812 -2.11644,0.20299 -2.84404,0.26969 -1.25854,0.11535 -2.08667,0.19155 -5.42428,0.49971 -2.65657,0.24527 -4.61706,0.41514 -5.86627,0.50764 -0.679266,0.0503 -1.571049,0.15914 -1.983188,0.24324 -0.412139,0.0841 -1.762161,0.2227 -2.999088,0.3067 -2.207862,0.14997 -3.51236,0.26056 -6.548933,0.55523 -0.837075,0.0812 -2.116438,0.20299 -2.844042,0.26969 -1.258539,0.11535 -2.086662,0.19154 -5.424275,0.4997 -0.800364,0.0739 -2.169931,0.19533 -3.043056,0.27233 -0.873125,0.077 -2.242691,0.19953 -3.043055,0.27233 -0.800365,0.0728 -2.108472,0.19424 -2.908837,0.26704 -0.800365,0.0728 -2.110786,0.19274 -2.911151,0.26704 -1.347595,0.12516 -2.102377,0.19331 -6.086111,0.5473 -0.800365,0.0711 -2.108472,0.18631 -2.908837,0.25911 -0.800365,0.0728 -2.051643,0.18563 -2.779247,0.24853 -2.423439,0.20959 -5.778597,0.51142 -8.795935,0.79054 -0.763654,0.0706 -2.074077,0.1895 -2.911151,0.2644 -0.837075,0.0749 -2.147497,0.1938 -2.911151,0.2644 -0.763655,0.0707 -2.012619,0.18576 -2.776933,0.25646 -0.764315,0.0707 -2.043677,0.18895 -2.844042,0.26175 -2.645879,0.24054 -4.475167,0.40229 -9.26107,0.82756 -0.800364,0.0711 -2.110788,0.1911 -2.911152,0.2644 -0.800365,0.0733 -2.006422,0.16741 -2.682054,0.21151 -0.675633,0.0441 -1.718467,0.16337 -2.316425,0.2644 l -1.087632,0.18508 1.187139,1.39072 c 0.653486,0.76491 1.130983,1.46718 1.059863,1.56258 -0.02582,0.0346 -0.02689,0.0489 -0.03008,0.0635 -0.478056,-0.57387 -2.10682,-2.53596 -2.163693,-2.60166 -0.601374,-0.69474 -2.082856,-0.52523 28.000739,-3.23885 60.768137,-5.48144 121.316547,-11.19899 123.025057,-11.61756 2.33151,-0.57119 -17.39676,1.08262 -64.42715,5.40161 -33.342404,3.06197 -88.090824,8.23432 -88.190754,8.33112 -0.04709,0.0456 3.802599,5.34678 8.555267,11.78148 l 8.640889,11.69953 -1.337556,4.531748 c -1.998672,6.765765 -7.04735,27.66655 -6.835883,28.300953 0.05537,0.166103 0.398726,-0.767966 0.842336,-2.088729 -0.0092,0.07177 0.0048,0.16947 0.04628,0.277616 0.08376,0.218281 0.0466,0.399238 -0.08331,0.399238 -0.129907,0 -0.240596,0.208032 -0.245296,0.462693 -0.0047,0.254662 -0.09798,0.759881 -0.205956,1.123683 -0.187057,0.630239 -0.157266,0.621853 0.592412,-0.177145 0.418327,-0.445847 0.838815,-0.729958 0.964985,-0.66099 -0.885305,1.094423 -1.507799,1.923328 -1.707814,2.308177 -0.0011,0.0036 -0.01389,0.01567 -0.01389,0.01851 0,0.0067 0.0019,0.0098 0.0023,0.01586 -0.04194,0.08888 -0.0811,0.176286 -0.0648,0.203585 0.03164,0.05297 0.0056,0.05304 -0.01157,0.06081 3.305346,-0.528508 17.34437,-6.015492 25.341825,-10.044406 l 1.58748,-0.798476 5.188236,5.290565 c -0.07385,-0.06765 -0.134404,-0.124791 -0.226783,-0.206229 l -0.72663,-0.639839 0.641008,0.72709 c 0.352789,0.400182 0.679241,0.727089 0.726631,0.727089 0.02496,0 0.04402,-0.0041 0.05785,-0.01058 l 0.400341,0.473269 c 0.277215,0.327422 0.544516,0.594891 0.594726,0.594891 0.02647,0 0.0499,-0.0038 0.06479,-0.01058 l 0.398027,0.475913 c 0.277216,0.327422 0.546831,0.594891 0.597041,0.594891 0.02647,0 0.04527,-0.0038 0.06017,-0.01058 l 0.402655,0.473269 c 0.277215,0.327422 0.544517,0.594891 0.594727,0.594891 0.03129,0 0.03812,-0.01434 0.05322,-0.0238 l 0.54613,0.618686 c 0.352788,0.400182 0.681555,0.727089 0.728945,0.727089 0.02594,0 0.04857,-0.0062 0.06248,-0.01322 l 0.668778,0.742953 c 0.427408,0.472943 0.812995,0.859287 0.858535,0.859287 0.0511,0 0.07933,-0.01316 0.07868,-0.04495 3.225053,3.224606 5.872673,5.79895 6.000489,5.750614 1.19182,-0.450699 73.657759,-54.955216 91.055629,-68.486506 12.15981,-9.45736 13.92604,-11.03853 12.32958,-11.03853 z M 26.277395,-62.335648 c -0.01763,0.0028 -0.02464,1.08e-4 -0.04165,0.0026 0.02762,0.01228 0.03079,0.0023 0.04165,-0.0026 z m -0.04165,0.0026 c -0.054,-0.02401 -0.123033,-0.06467 -0.229097,-0.150706 -0.385764,-0.312908 -0.448938,-0.303812 -0.448938,0.0661 0,0.129696 0.25229,0.148051 0.678035,0.08461 z M 170.3007,-134.74844 c -0.1541,0 -0.28001,0.11888 -0.28001,0.2644 0,0.14552 0.0515,0.26439 0.11571,0.26439 0.0642,0 0.1901,-0.11887 0.28,-0.26439 0.0899,-0.14552 0.0384,-0.2644 -0.1157,-0.2644 z m 2.79082,1.18714 c 0.12897,0.0747 -0.86419,0.77259 -2.87182,2.15747 -8.83207,6.09249 -35.38775,25.75343 -69.06,51.062811 0.043,-0.023 0.0694,-0.07397 0.0694,-0.148062 0,-0.151353 2.38195,-2.065808 5.29237,-4.254132 2.91041,-2.188323 5.29006,-3.88876 5.29006,-3.780864 0,0.107895 0.1883,-0.07074 0.41654,-0.396594 0.22824,-0.325856 0.52628,-0.525321 0.66184,-0.441541 0.13556,0.08378 0.24529,0.03863 0.24529,-0.100471 0,-0.307562 18.04529,-13.843267 18.3185,-13.740667 0.10634,0.0399 0.3822,-0.19628 0.61324,-0.52614 0.23104,-0.32985 0.53091,-0.53328 0.66647,-0.44948 0.13556,0.0838 0.24529,0.035 0.24529,-0.1084 0,-0.29065 6.38464,-5.07761 6.65076,-4.98651 0.0927,0.0317 0.41708,-0.23902 0.71968,-0.60282 0.30261,-0.36385 0.5527,-0.54605 0.5577,-0.40453 0.005,0.14152 0.19525,-0.01 0.42349,-0.33578 0.22824,-0.32585 0.52626,-0.5227 0.66183,-0.4389 0.13556,0.0838 0.24761,0.0318 0.24761,-0.11369 0,-0.31757 4.5122,-3.63232 4.81567,-3.53762 0.11666,0.0364 0.21058,-0.0432 0.21058,-0.17714 0,-0.31361 3.42588,-2.81861 3.73498,-2.73121 0.12863,0.0364 0.23372,-0.0432 0.23372,-0.17715 0,-0.31361 3.42588,-2.82125 3.73498,-2.73385 0.12863,0.0364 0.23372,-0.0451 0.23372,-0.17979 0,-0.23886 5.25959,-4.17263 5.44047,-4.06906 0.0501,0.0287 0.4648,-0.29611 0.92333,-0.72444 0.45853,-0.42833 0.94072,-0.71271 1.07144,-0.63191 0.13073,0.0808 0.23835,0.0261 0.23835,-0.11898 0,-0.25625 2.06257,-1.85977 2.43445,-1.89307 0.10197,-0.009 0.55967,-0.36751 1.0182,-0.79584 0.45853,-0.42833 0.94072,-0.7127 1.07144,-0.6319 0.13073,0.0808 0.23835,0.0333 0.23835,-0.10312 0,-0.13639 0.65521,-0.69671 1.45558,-1.24795 1.66089,-1.14389 1.69562,-1.19299 0.79374,-1.11839 -0.36381,0.0301 -0.66184,0.11954 -0.66184,0.20094 0,0.16072 -3.05779,1.51816 -3.70489,1.64454 -0.21828,0.0426 -0.45583,0.15632 -0.52993,0.25382 -0.22348,0.29382 -2.90947,1.28574 -2.91347,1.07609 -0.002,-0.10701 -0.093,-0.0539 -0.20132,0.11634 -0.23825,0.37454 -2.96764,1.48373 -2.97364,1.20829 -8.6e-4,-0.0415 -0.0232,-0.0423 -0.0463,-0.0397 4.08094,-1.70426 8.09529,-3.384 10.36953,-4.39955 2.48392,-1.10919 3.73559,-1.65574 3.86457,-1.58109 z m -3.48737,0.51822 c 0.072,0.0493 -0.545,0.32549 -1.89063,0.80112 -1.85743,0.65653 -4.85544,1.78122 -8.56684,3.20183 0.009,-0.0259 0.0255,-0.0386 0.0255,-0.0793 0,-0.25053 1.02841,-0.68065 1.71938,-0.71915 0.14552,-0.008 0.32523,-0.0765 0.39803,-0.15335 0.0728,-0.0768 0.42993,-0.28347 0.79374,-0.45741 l 0.66184,-0.31463 -0.79374,0.0582 c -0.43657,0.0324 -0.85943,0.14663 -0.93953,0.25382 -0.0801,0.10719 -0.49647,0.24092 -0.92565,0.29612 -0.42918,0.0552 -1.12545,0.23806 -1.54582,0.40717 -0.42036,0.16911 -0.82459,0.24481 -0.90019,0.16921 -0.0756,-0.0756 -0.2692,-0.0328 -0.42811,0.0952 -0.43031,0.34662 -4.16921,1.35311 -4.42921,1.19242 -0.052,-0.0321 -0.0961,-0.0291 -0.13422,-0.0185 6.44592,-1.7796 11.47129,-3.20345 14.70386,-4.17746 1.41685,-0.42692 2.17958,-0.60451 2.25163,-0.55523 z m -10.594,4.04261 c 0.008,0.008 0.0132,-4.3e-4 0.0208,0.005 -10.26425,3.93014 -26.72637,10.42678 -45.89576,18.13228 -22.502614,9.04537 -68.821181,27.914413 -69.025289,28.118521 -0.07629,0.07629 1.850493,2.129705 4.281105,4.563476 0.41991,0.420455 0.599682,0.603253 0.948785,0.951825 -0.0523,-0.04546 -0.107227,-0.09091 -0.166616,-0.137486 -0.419649,-0.329112 -0.430928,-0.321816 -0.101821,0.09783 0.07208,0.09191 0.134276,0.164777 0.194386,0.230025 -0.338191,-0.3169 -0.526277,-0.473356 -1.608307,-1.591665 l -2.901895,-2.998251 -0.668778,0.891015 c -0.367007,0.490218 -1.049364,1.283303 -1.515742,1.763522 -0.466378,0.480219 -0.845037,0.935272 -0.842337,1.009992 0.0093,0.253447 -2.109311,2.431236 -2.260886,2.324042 -0.0828,-0.05858 -0.0874,-0.02307 -0.0093,0.07932 0.177922,0.233147 -9.960604,10.410185 -10.214484,10.253279 -0.04515,-0.0279 -0.125757,0.0031 -0.210585,0.05024 0.07729,-0.07382 0.154324,-0.149545 0.23604,-0.22738 0.03273,0.14507 0.238643,-0.0033 0.555386,-0.40717 0.198836,-0.253541 0.226088,-0.313057 0.161988,-0.282904 0.03703,-0.03512 0.05485,-0.05149 0.09256,-0.08725 0.05419,0.0937 0.245991,-0.04918 0.539188,-0.423034 0.151388,-0.193039 0.211739,-0.277661 0.212898,-0.304056 2.531932,-2.415838 5.004818,-4.937772 7.171429,-7.247095 0.02277,0.167765 0.226837,0.02996 0.553073,-0.386019 0.329103,-0.419649 0.320137,-0.429578 -0.09951,-0.10047 5.167586,-5.550399 8.127052,-9.443592 3.746545,-5.700379 -1.025566,0.876362 -2.94101,2.871226 -5.047075,5.142503 -0.0091,-0.02918 -0.01173,-0.05069 -0.04165,-0.103114 -0.184064,-0.322477 6.219984,-6.713016 6.727119,-6.713016 0.216289,0 0.207171,-0.113509 -0.02777,-0.396594 -0.32043,-0.386098 -0.105859,-0.539305 0.597041,-0.428321 0.109138,0.01723 0.196699,-0.06784 0.196699,-0.190366 0,-0.205497 3.05904,-1.503956 3.9687,-1.684202 0.218281,-0.04325 0.457171,-0.156577 0.529931,-0.251177 0.07276,-0.0946 0.370794,-0.213476 0.661836,-0.264396 0.291041,-0.05092 0.599126,-0.187624 0.684976,-0.304055 0.08585,-0.11643 0.412302,-0.23014 0.726631,-0.25382 0.314328,-0.02368 0.571586,-0.117313 0.571586,-0.208873 0,-0.163887 3.194616,-1.475298 3.968699,-1.62868 0.218281,-0.04325 0.457172,-0.153932 0.529932,-0.248532 0.07276,-0.09459 0.370793,-0.213466 0.661835,-0.264396 0.291041,-0.05092 0.692582,-0.248628 0.893247,-0.438898 0.200664,-0.190272 0.529427,-0.285433 0.728945,-0.208873 0.199518,0.07657 0.361001,0.04393 0.361001,-0.07403 0,-0.199325 3.078111,-1.49716 3.9687,-1.673627 0.218281,-0.04325 0.467222,-0.174406 0.553072,-0.290836 0.08585,-0.116431 0.414617,-0.232784 0.728945,-0.256464 0.314328,-0.02368 0.571585,-0.116239 0.571585,-0.206229 0,-0.161643 4.522028,-2.005771 5.290057,-2.157472 0.218281,-0.04312 0.467223,-0.174406 0.553073,-0.290836 0.08585,-0.116431 0.414617,-0.23014 0.728945,-0.25382 0.314328,-0.02368 0.571585,-0.116239 0.571585,-0.206229 0,-0.161644 4.522028,-2.008414 5.290057,-2.160115 0.218281,-0.04311 0.467222,-0.174405 0.553072,-0.290836 0.08585,-0.11643 0.414617,-0.23014 0.728945,-0.25382 0.314328,-0.02368 0.571585,-0.117313 0.571585,-0.208873 0,-0.163887 3.194617,-1.475298 3.9687,-1.62868 0.218281,-0.04325 0.457172,-0.153932 0.529932,-0.248532 0.07276,-0.09459 0.368479,-0.213466 0.659521,-0.264396 0.291042,-0.05092 0.599127,-0.19027 0.684977,-0.3067 0.08585,-0.116431 0.414617,-0.23014 0.728945,-0.25382 0.314328,-0.02368 0.571585,-0.117273 0.571585,-0.208873 0,-0.16389 3.194617,-1.47266 3.9687,-1.62604 0.218281,-0.0433 0.457171,-0.15657 0.529931,-0.25117 0.07276,-0.0946 0.36848,-0.2135 0.659522,-0.2644 0.291042,-0.0509 0.60144,-0.18762 0.68729,-0.30405 0.08585,-0.11643 0.412303,-0.23277 0.726631,-0.25647 0.314328,-0.0237 0.571585,-0.11448 0.571585,-0.20358 0,-0.16029 5.848908,-2.54081 6.613729,-2.69155 0.218275,-0.043 0.457125,-0.15394 0.529925,-0.24854 0.0728,-0.0946 0.3708,-0.21349 0.66184,-0.26439 0.29104,-0.0509 0.58904,-0.1698 0.66184,-0.2644 0.0728,-0.0946 0.36847,-0.21349 0.65952,-0.26439 0.29104,-0.0509 0.58903,-0.17244 0.66183,-0.26704 0.0728,-0.0946 0.3708,-0.2135 0.66184,-0.2644 0.29104,-0.0509 0.58903,-0.1698 0.66183,-0.2644 0.0728,-0.0946 0.3708,-0.21349 0.66184,-0.26439 0.29104,-0.0509 0.58904,-0.1695 0.66184,-0.2644 0.14588,-0.19022 9.9471,-4.12546 10.58242,-4.24884 0.21828,-0.0424 0.45713,-0.15394 0.52993,-0.24854 0.0728,-0.0946 0.37079,-0.21349 0.66184,-0.26439 0.29104,-0.0509 0.58672,-0.1698 0.65952,-0.2644 0.0728,-0.0946 0.3708,-0.21349 0.66184,-0.26439 0.29104,-0.0509 0.58903,-0.1698 0.66183,-0.2644 0.0728,-0.0946 0.3708,-0.2135 0.66184,-0.2644 0.29104,-0.0509 0.58903,-0.16228 0.66183,-0.24588 0.19604,-0.22511 16.99862,-6.92111 17.46228,-6.95891 0.21828,-0.0178 0.45482,-0.10898 0.52762,-0.20358 0.0728,-0.0946 0.3708,-0.2135 0.66184,-0.2644 0.29104,-0.0509 0.58903,-0.1596 0.66183,-0.2406 0.27145,-0.30212 4.30698,-1.82424 4.50789,-1.70007 0.11497,0.0711 0.24972,0.0221 0.29852,-0.11104 0.0488,-0.1331 0.32683,-0.28344 0.61787,-0.33314 0.29104,-0.0497 0.58903,-0.16715 0.66183,-0.26175 0.0728,-0.0946 0.37079,-0.2135 0.66184,-0.2644 0.29104,-0.0509 0.58903,-0.16024 0.66183,-0.24324 0.18467,-0.21071 3.46724,-1.49844 4.10524,-1.61018 0.28844,-0.0505 0.59454,-0.18762 0.68034,-0.30405 0.0859,-0.11643 0.41232,-0.23012 0.72664,-0.25382 0.31433,-0.0237 0.57158,-0.12329 0.57158,-0.22209 0,-0.17091 1.15756,-0.58739 1.71938,-0.61869 0.14552,-0.008 0.32523,-0.087 0.39803,-0.1745 0.24975,-0.30039 3.11509,-1.26687 3.27678,-1.10518 z m -6.39157,0.69801 c -0.0355,0.0235 -0.0602,0.0642 -0.0602,0.12955 0,0.24378 -1.87489,0.72255 -2.58023,0.65835 -0.1819,-0.0165 -0.33092,0.0632 -0.33092,0.17979 0,0.20962 -1.94146,0.6715 -2.58023,0.6134 -0.1819,-0.0166 -0.32861,0.0659 -0.32861,0.18243 0,0.20962 -1.94147,0.66885 -2.58023,0.61075 -0.18191,-0.0165 -0.33092,0.0659 -0.33092,0.18244 0,0.20962 -1.94147,0.66885 -2.58023,0.61075 -0.1819,-0.0165 -0.33092,0.0659 -0.33092,0.18244 0,0.20962 -1.94146,0.66885 -2.58023,0.61075 -0.1819,-0.0166 -0.33092,0.0659 -0.33092,0.18243 0,0.17368 -1.28917,0.51807 -2.51312,0.67157 -0.14552,0.0182 -0.60483,0.17497 -1.02284,0.34636 -0.41801,0.17139 -1.07821,0.34606 -1.46715,0.38866 -0.38893,0.0426 -0.85214,0.16662 -1.02746,0.27497 -0.17532,0.1084 -0.43764,0.12163 -0.58316,0.0317 -0.14552,-0.09 -0.26381,-0.0461 -0.26381,0.0952 0,0.21395 -1.54205,0.64191 -2.51312,0.69801 -0.14553,0.008 -0.41514,0.10821 -0.59704,0.22209 -0.1819,0.1139 -0.44921,0.13485 -0.59473,0.045 -0.14552,-0.09 -0.26381,-0.0488 -0.26381,0.0925 0,0.21396 -1.54205,0.6419 -2.51312,0.698 -0.14553,0.008 -0.38441,0.0911 -0.52993,0.18244 -0.46065,0.28907 -3.39206,0.99092 -3.60076,0.86193 -0.10999,-0.068 -0.26703,-0.0169 -0.34943,0.11633 -0.139,0.2249 -2.41701,0.87438 -3.33,0.94918 -0.22084,0.0181 -0.51888,0.10736 -0.66184,0.19566 -0.46414,0.28659 -3.39034,0.98119 -3.59613,0.854 -0.10999,-0.068 -0.2797,0.006 -0.3772,0.16392 -0.0975,0.15781 -0.34257,0.22352 -0.54613,0.14542 -0.20356,-0.0782 -0.37026,-0.0464 -0.37026,0.0714 0,0.19063 -2.40325,0.85033 -3.44571,0.94653 -0.22084,0.0204 -0.51984,0.11174 -0.66415,0.20094 -0.32284,0.19953 -3.4954,1.03087 -4.23713,1.11047 -0.2972,0.0319 -0.65438,0.12806 -0.79374,0.21416 -0.45926,0.28358 -3.385023,0.97754 -3.589188,0.85135 -0.109984,-0.068 -0.27966,0.006 -0.3772,0.16393 -0.09753,0.15817 -0.337973,0.22436 -0.536874,0.14806 -0.198902,-0.0763 -0.425192,-0.0373 -0.502162,0.0873 -0.131394,0.21261 -2.438011,0.86092 -3.320748,0.93332 -0.22084,0.0181 -0.549603,0.12447 -0.728945,0.23531 -0.179343,0.1108 -0.43612,0.13129 -0.571586,0.0476 -0.135465,-0.0837 -0.313343,-0.0434 -0.395713,0.0899 -0.138997,0.2249 -2.419321,0.87438 -3.332319,0.94918 -0.22084,0.0181 -0.547289,0.12447 -0.726631,0.23531 -0.179343,0.1108 -0.438433,0.13394 -0.573899,0.0502 -0.135466,-0.0837 -0.325952,-0.023 -0.423482,0.13484 -0.09753,0.15816 -0.340287,0.22436 -0.539188,0.14806 -0.198902,-0.0763 -0.423718,-0.0386 -0.499848,0.0846 -0.129272,0.20916 -3.490959,1.13006 -4.380611,1.20036 -0.22084,0.0174 -0.55612,0.12907 -0.745144,0.24589 -0.189025,0.1168 -0.413778,0.14162 -0.499848,0.0555 -0.08607,-0.0861 -0.285399,-0.0499 -0.444309,0.082 -0.291997,0.24233 -4.331396,1.34281 -5.329397,1.45154 -0.297198,0.0324 -0.691621,0.15244 -0.877048,0.26704 -0.185427,0.1146 -0.406835,0.13633 -0.492905,0.0502 -0.08607,-0.0861 -0.287714,-0.0493 -0.446624,0.082 -0.298248,0.24633 -3.310788,1.08455 -4.26722,1.18714 -0.297197,0.0319 -0.691621,0.15244 -0.877048,0.26704 -0.185427,0.1146 -0.409149,0.13898 -0.495219,0.0529 -0.08607,-0.0861 -0.2854,-0.0499 -0.44431,0.082 -0.291997,0.24232 -4.329081,1.34281 -5.327082,1.45154 -0.297197,0.0324 -0.691621,0.15244 -0.877048,0.26704 -0.185427,0.1146 -0.40915,0.13633 -0.49522,0.0502 -0.08607,-0.0861 -0.285399,-0.0493 -0.444309,0.082 -0.298248,0.24633 -3.313101,1.08454 -4.269534,1.18713 -0.297197,0.0319 -0.685104,0.14786 -0.860849,0.25647 -0.175746,0.1087 -0.429178,0.12865 -0.564643,0.045 -0.135466,-0.0837 -0.325943,-0.023 -0.423483,0.13484 -0.09754,0.15781 -0.344882,0.22352 -0.548444,0.14542 -0.203562,-0.0781 -0.370258,-0.0483 -0.370258,0.0661 0,0.18592 -3.491549,1.13371 -4.500945,1.22151 -0.220839,0.0192 -0.556119,0.12907 -0.745143,0.24589 -0.189024,0.1168 -0.416092,0.14163 -0.502162,0.0555 -0.08607,-0.0861 -0.2854,-0.0473 -0.44431,0.0846 -0.293441,0.243526 -4.238417,1.315724 -5.447416,1.48062 -0.363802,0.04962 -0.72098,0.115872 -0.79374,0.148062 -0.07276,0.03219 -0.252506,0.0805 -0.398027,0.108402 -0.145521,0.0279 -0.599296,0.188723 -1.008952,0.356935 -0.409655,0.168213 -0.825974,0.308532 -0.925644,0.309343 -1.057705,0.0086 -2.166008,0.613863 -2.166008,1.184495 0,0.348374 -0.120542,0.70972 -0.268437,0.80112 -0.147896,0.0914 -0.196793,0.280599 -0.108763,0.423033 0.08802,0.142434 0.07472,0.463533 -0.02777,0.711226 -0.102486,0.247693 -0.226534,0.856435 -0.277694,1.353708 -0.05116,0.497273 -0.208193,1.016487 -0.347116,1.15541 -0.138924,0.138923 -0.193958,0.406418 -0.122648,0.592247 0.07131,0.18583 0.0079,0.412857 -0.141161,0.504997 -0.149082,0.09214 -0.208234,0.329891 -0.131904,0.528792 0.07633,0.198902 0.0097,0.441828 -0.148103,0.539368 -0.157814,0.09754 -0.217939,0.287568 -0.134219,0.423034 0.08373,0.135465 0.06207,0.390488 -0.04628,0.565807 -0.108353,0.17532 -0.230485,0.636922 -0.273065,1.025857 -0.04258,0.388935 -0.215929,1.049386 -0.384142,1.467398 -0.168213,0.418011 -0.34977,1.109606 -0.40497,1.538785 -0.05519,0.429179 -0.189015,0.84789 -0.296206,0.92803 -0.107191,0.08014 -0.233457,0.502043 -0.280007,0.938606 -0.04655,0.436562 -0.19466,0.834273 -0.330918,0.883083 -0.13626,0.04881 -0.188101,0.185819 -0.113391,0.306699 0.07471,0.120881 -0.002,0.55794 -0.171245,0.970334 -0.169253,0.412393 -0.32169,0.86976 -0.33786,1.015281 -0.08561,0.770503 -0.808018,3.043198 -0.967298,3.043198 -0.101842,0 -0.169087,0.148594 -0.150417,0.330495 0.05988,0.583241 -0.712596,3.106654 -0.9511,3.106654 -0.03478,0 -0.0458,0.02354 -0.06711,0.03702 2.697046,-9.110354 6.218015,-21.907486 6.218015,-23.301224 0,-0.791794 -1.471676,-0.370838 28.838447,-8.230655 37.695765,-9.775 69.425745,-18.19455 88.431425,-23.44135 z m 6.20182,0.73766 c -0.0334,0.025 -0.0713,0.0589 -0.11571,0.12691 -0.18486,0.28336 -3.71978,1.83741 -4.5588,2.00412 -0.21828,0.0434 -0.46717,0.17441 -0.55307,0.29084 -0.0858,0.11643 -0.4123,0.23012 -0.72663,0.25382 -0.31433,0.0237 -0.57159,0.11623 -0.57159,0.20623 0,0.16164 -4.52434,2.00842 -5.29237,2.16012 -0.21828,0.0431 -0.46717,0.17176 -0.55307,0.28819 -0.0858,0.11643 -0.41462,0.23276 -0.72895,0.25646 -0.31433,0.0237 -0.56927,0.11727 -0.56927,0.20887 0,0.16389 -3.19461,1.47266 -3.9687,1.62604 -0.21828,0.0432 -0.45713,0.15658 -0.52993,0.25118 -0.0728,0.0946 -0.37079,0.21349 -0.66183,0.26439 -0.29104,0.0509 -0.58904,0.1696 -0.66184,0.2644 -0.14569,0.18984 -19.20593,7.82897 -19.8435,7.95303 -0.21828,0.0425 -0.45713,0.14663 -0.52993,0.23003 -0.19552,0.22411 -9.06091,3.7456 -9.52488,3.7835 -0.21828,0.0178 -0.45482,0.10899 -0.52762,0.20359 -0.0728,0.0946 -0.37079,0.21614 -0.66183,0.26704 -0.29104,0.0509 -0.58904,0.16979 -0.66184,0.26439 -0.0728,0.0946 -0.37079,0.2135 -0.66183,0.2644 -0.29104,0.0509 -0.58904,0.1698 -0.66184,0.2644 -0.0728,0.0946 -0.37079,0.21349 -0.66183,0.26439 -0.29105,0.0509 -0.58672,0.1698 -0.65952,0.2644 -0.0728,0.0946 -0.3708,0.21349 -0.66184,0.26439 -0.29104,0.0509 -0.58904,0.1698 -0.66184,0.2644 -0.0728,0.0946 -0.37079,0.2135 -0.66183,0.2644 -0.29104,0.0509 -0.58904,0.15994 -0.66184,0.24324 -0.19506,0.22326 -6.413276,2.69057 -6.877534,2.72857 -0.218282,0.0179 -0.457172,0.10898 -0.529932,0.20358 -0.07276,0.0946 -0.370794,0.2135 -0.661835,0.2644 -0.291042,0.0509 -0.589076,0.1698 -0.661836,0.2644 -0.07276,0.0946 -0.370794,0.21349 -0.661836,0.26439 -0.291042,0.0509 -0.586761,0.1596 -0.659521,0.2406 -0.271454,0.30212 -4.309298,1.821589 -4.510202,1.697424 -0.114975,-0.07106 -0.247396,-0.01941 -0.296206,0.113691 -0.04881,0.133098 -0.326825,0.283429 -0.617867,0.333139 -0.291041,0.04971 -0.589076,0.154332 -0.661836,0.235312 -0.271453,0.302122 -4.306985,1.824232 -4.507888,1.700067 -0.114976,-0.07106 -0.24971,-0.01941 -0.29852,0.11369 -0.04881,0.133098 -0.326826,0.280785 -0.617867,0.330495 -0.291042,0.04971 -0.589076,0.167152 -0.661836,0.261752 -0.07276,0.0946 -0.370794,0.21611 -0.661836,0.26704 -0.291042,0.05093 -0.589075,0.156977 -0.661835,0.237957 -0.271454,0.302122 -4.306984,1.824231 -4.507888,1.700066 -0.114975,-0.07106 -0.247396,-0.02205 -0.296206,0.111047 -0.04881,0.133097 -0.326825,0.283429 -0.617867,0.333139 -0.291041,0.04971 -0.589076,0.15742 -0.661836,0.2406 -0.186168,0.212821 -4.788405,2.027043 -5.42659,2.138964 -0.289697,0.0508 -0.586761,0.169796 -0.659521,0.264396 -0.07276,0.0946 -0.370794,0.213466 -0.661836,0.264396 -0.291042,0.05093 -0.589075,0.159621 -0.661835,0.240601 -0.271454,0.302122 -4.306984,1.821587 -4.507888,1.697422 -0.03451,-0.02133 -0.06902,-0.01277 -0.104135,-0.01322 3.171106,-1.255911 5.841452,-2.323013 9.573476,-3.786151 40.087233,-15.716177 71.475253,-28.288397 88.614243,-35.444937 z m -137.856203,10.68425 c 0.224697,-0.16551 1.221358,1.13892 1.184824,1.52292 -0.388838,-0.46755 -0.966785,-1.16529 -1.242677,-1.49648 0.01316,-0.002 0.02497,-0.002 0.05785,-0.0264 z m 1.30053,1.65512 c 0.182587,-0.18259 1.086288,0.76334 1.136228,1.18978 0.01343,0.11464 0.384557,0.51417 0.826138,0.88573 0.441581,0.37157 0.736633,0.78256 0.654893,0.91481 -0.03324,0.0538 -0.03103,0.0973 -0.02314,0.13748 -1.189372,-1.43253 -1.76694,-2.12487 -2.598746,-3.12516 0.0022,-0.002 0.0024,-3.7e-4 0.0046,-0.003 z m 2.642714,3.18597 c 0.02552,0.0185 0.04312,0.045 0.08794,0.045 0.351436,0 4.179896,4.66156 4.732357,5.69773 -0.897902,-1.06388 -1.495003,-1.73999 -2.582548,-3.05113 -1.171668,-1.41256 -1.209165,-1.45265 -2.237745,-2.69155 z m 5.121127,6.09697 c 0.278232,0.0237 1.061749,0.85598 1.157055,1.28232 0.02555,0.11427 0.380788,0.48996 0.791426,0.83549 0.410638,0.34553 0.704219,0.67021 0.652579,0.72181 -0.05164,0.0516 0.549264,0.79819 1.335242,1.65776 l 1.321357,1.4436 c -0.554743,-0.45383 -2.578825,-2.77484 -5.257659,-5.94098 z m 26.200361,0.63455 c 0.102558,-0.008 0.19839,0.008 0.266122,0.0502 0.06563,0.0405 0.142956,0.0486 0.212898,0.0344 -5.553935,1.45084 -7.710523,2.00252 -11.079961,2.87398 0.0138,-0.0203 0.03934,-0.0276 0.03934,-0.0608 0,-0.20906 2.341986,-0.87128 3.443396,-0.97297 0.22084,-0.0204 0.55612,-0.13171 0.745144,-0.24854 0.189025,-0.1168 0.413778,-0.14162 0.499848,-0.0555 0.08607,0.0861 0.287713,0.0466 0.446623,-0.0846 0.298248,-0.24633 3.310788,-1.08454 4.26722,-1.18714 0.297197,-0.0319 0.685103,-0.1452 0.860849,-0.25382 0.08787,-0.0543 0.195963,-0.087 0.298521,-0.0952 z m -11.110046,2.91629 c 0.107058,-0.007 0.209561,0.0106 0.282322,0.0555 0.03586,0.0222 0.0613,0.0136 0.09256,0.0212 -1.79303,0.46364 -5.133764,1.33787 -5.958835,1.54671 0.069,-0.02 0.135476,-0.0448 0.166616,-0.0952 0.129272,-0.20916 3.493273,-1.1327 4.382926,-1.203 0.220839,-0.0174 0.547288,-0.12183 0.726631,-0.23267 0.08967,-0.0554 0.200719,-0.0857 0.307776,-0.0925 z m -6.224957,1.5996 c 0.09769,-0.0268 0.208326,-0.0249 0.307777,0.0132 0.08937,0.0343 0.182084,0.0384 0.266122,0.0291 -0.12844,0.0325 -0.840984,0.218 -0.941843,0.24324 0.04983,-0.0323 0.100125,-0.0653 0.136533,-0.12426 0.04877,-0.0791 0.133721,-0.13448 0.231411,-0.16128 z m -0.608611,0.3252 c 0.02374,0.0147 0.0554,-0.002 0.08331,0 -0.284579,0.0711 -2.760305,0.721316 -2.786189,0.724449 -0.01563,0.0019 -0.132211,-0.123658 -0.166616,-0.145418 l 1.323671,-0.349001 c 0.739404,-0.19505 1.435036,-0.29853 1.545826,-0.23003 z m 22.227032,12.18073 c -0.02634,0.02387 -0.05742,0.04029 -0.07174,0.07932 -0.04881,0.133097 -0.326826,0.280785 -0.617868,0.330495 -0.291041,0.04971 -0.589075,0.169806 -0.661835,0.264396 -0.07276,0.0946 -0.370795,0.213466 -0.661836,0.264396 -0.291042,0.05093 -0.589076,0.156976 -0.661836,0.237956 -0.271453,0.302122 -4.306984,1.824232 -4.507887,1.700067 -0.02222,-0.01373 -0.04422,-0.003 -0.06711,-0.0079 1.887704,-0.755496 4.855551,-1.920202 7.250108,-2.868697 z m -7.437551,2.942728 c -0.01332,0.01812 -0.03537,0.02414 -0.04397,0.04759 -0.04881,0.133098 -0.326826,0.280785 -0.617868,0.330495 -0.291042,0.04971 -0.589075,0.156977 -0.661835,0.237957 -0.236408,0.263116 -2.866355,1.263912 -3.975643,1.565224 1.066502,-0.456631 2.057369,-0.883339 5.299314,-2.181267 z m -6.139336,2.527626 c -0.05701,0.105238 -0.172299,0.190365 -0.340174,0.190365 -0.244029,0 -0.366253,0.200981 -0.317033,0.523504 0.02948,0.193165 0.08822,0.351436 0.157359,0.491777 -0.09913,-0.106061 -0.69737,-0.69217 -0.703489,-0.708581 -0.0031,-0.0083 1.055495,-0.429894 1.203337,-0.497065 z m -0.106449,1.60224 c 0.05024,0.01788 0.09887,0.0423 0.152732,0.0423 0.117118,0 2.570179,2.323355 5.44973,5.161011 1.742653,1.7173 1.988031,1.996836 2.779247,2.802598 -0.0686,-0.06249 -0.132639,-0.123792 -0.217526,-0.190365 -0.419639,-0.329112 -0.428615,-0.319172 -0.09951,0.100471 0.272526,0.347495 0.462904,0.503797 0.532245,0.449473 l 0.402655,0.475913 c 0.277215,0.327422 0.544517,0.594891 0.594727,0.594891 0.02647,0 0.04758,-0.0038 0.06248,-0.01058 l 0.391085,0.462693 c 0.271988,0.321646 0.585773,0.559392 0.696547,0.528792 0.110774,-0.0306 2.613239,2.327269 5.563122,5.237686 1.158499,1.143 1.053612,1.063932 1.858231,1.86928 0.534997,0.535482 0.930968,0.930773 1.235735,1.242661 -0.10467,-0.100036 -0.230275,-0.214566 -0.388771,-0.35429 l -0.608611,-0.536724 c 0.03674,-0.04722 -0.03878,-0.15972 -0.238353,-0.351647 -0.09002,-0.08657 -0.204941,-0.188284 -0.344803,-0.306699 l -0.594726,-0.504997 0.504476,0.594891 c 0.277215,0.327422 0.544516,0.594891 0.594726,0.594891 0.02876,0 0.0497,-0.0052 0.06479,-0.01322 l 0.53456,0.608111 c 0.120226,0.136377 0.222034,0.242248 0.32629,0.351646 -1.795562,-1.729491 -3.957667,-3.827384 -6.18099,-5.98857 0.12059,-0.03886 -0.05908,-0.256904 -0.673406,-0.798476 l -0.608611,-0.536724 c 0.05187,-0.06911 -0.132119,-0.27843 -0.580842,-0.658346 l -0.594726,-0.504997 0.502162,0.594891 c 0.01919,0.02267 0.03419,0.03614 0.05322,0.05817 -3.296247,-3.211022 -6.329984,-6.184483 -8.657088,-8.484469 0.01468,-0.01383 0.03008,-0.02454 0.03008,-0.06346 0,-0.05021 -0.267305,-0.32032 -0.594727,-0.597535 l -0.474392,-0.399238 c 0.0421,-0.07366 -0.17018,-0.304906 -0.715061,-0.785256 l -0.620181,-0.5473 c -0.03173,-0.03261 -0.107928,-0.107882 -0.136533,-0.137486 z m 54.152499,0.848711 c 0.0669,0.04135 0.12903,0.04767 0.17356,0.02644 -4.879259,3.667447 -9.898442,7.444861 -15.062544,11.339946 0.02723,-0.02742 0.05554,-0.05626 0.05554,-0.11369 0,-0.151354 2.381954,-2.065809 5.292371,-4.254132 2.910416,-2.188324 5.290057,-3.901587 5.290057,-3.809947 0,0.09164 0.234474,-0.116506 0.520675,-0.460049 0.2862,-0.343545 0.525131,-0.521857 0.529931,-0.396595 0.0048,0.125262 0.241417,-0.05305 0.527617,-0.396594 0.2862,-0.343545 0.525132,-0.521856 0.529932,-0.396594 0.0048,0.125262 0.243731,-0.05305 0.529931,-0.396594 0.286201,-0.343545 0.522817,-0.50903 0.527617,-0.36751 0.0048,0.14152 0.197553,-0.0099 0.425793,-0.335783 0.22824,-0.325855 0.52396,-0.522678 0.65952,-0.438898 z m -54.654661,0.253821 0.643323,0.727089 c 0.352789,0.400182 0.679241,0.727089 0.726631,0.727089 0.02496,0 0.04402,-0.0041 0.05785,-0.01058 l 0.400342,0.473269 c 0.277215,0.327422 0.544516,0.594891 0.594726,0.594891 0.211733,0 0.05497,-0.211124 -0.504476,-0.684786 L 47.770854,-78.6859 c 0.0421,-0.07366 -0.17018,-0.304907 -0.71506,-0.785256 z m 3.276781,3.148956 c 0.717895,0.717296 1.46042,1.460868 1.881372,1.903652 -0.06626,-0.06032 -0.116415,-0.109013 -0.1967,-0.179789 l -0.72663,-0.639839 0.641008,0.727089 c 0.352788,0.400182 0.679241,0.72709 0.726631,0.72709 0.07248,0 0.08064,-0.03826 0.05554,-0.09783 0.0577,0.06559 0.09939,0.121205 0.148103,0.179789 -0.108493,-0.06863 -0.108817,-0.0348 0.113391,0.248533 0.104717,0.133523 0.171245,0.182355 0.249924,0.259108 0.283253,0.54544 -0.208944,0.598781 -1.076061,0.883082 -3.980519,1.30509 -16.202325,6.340893 -21.817435,8.989466 -1.722618,0.812536 -2.697081,1.279704 -2.850985,1.171275 0.05169,-0.058 0.102133,-0.114045 0.161988,-0.190366 0.279895,-0.356883 0.297859,-0.401303 0.04397,-0.208872 0.05344,-0.06512 0.11159,-0.13393 0.187443,-0.216805 0.0041,0.208856 0.22001,0.06898 0.562329,-0.367511 0.329112,-0.419639 0.320136,-0.429578 -0.09951,-0.10047 -0.02811,0.02204 -0.04498,0.04142 -0.07174,0.06346 0.255645,-0.258976 0.730114,-0.714069 1.117715,-1.086668 -0.237582,0.309381 -0.228301,0.33272 0.210584,0.02644 0.291042,-0.203106 0.05447,0.0619 -0.527617,0.586959 -1.316506,1.187542 -1.206512,1.194039 1.217222,0.07139 1.072459,-0.496754 2.040836,-0.848748 2.152123,-0.779968 0.111291,0.06878 0.201328,0.01483 0.201328,-0.121623 0,-0.238709 1.035717,-0.742864 1.84666,-0.898946 0.214817,-0.04135 0.549384,-0.225269 0.745144,-0.40717 0.318434,-0.295893 0.972946,-0.43999 1.198709,-0.264396 0.04678,0.03638 0.293782,-0.141933 0.548444,-0.396594 0.400226,-0.400222 0.693653,-0.496587 1.360697,-0.452117 0.07796,0.0052 0.322652,-0.173116 0.54613,-0.396595 0.35622,-0.356216 0.732285,-0.466398 1.332928,-0.386018 0.09287,0.01243 0.239574,-0.09455 0.328604,-0.237956 0.08903,-0.143405 0.400877,-0.300717 0.691919,-0.351647 0.291042,-0.05093 0.589076,-0.169796 0.661836,-0.264396 0.07276,-0.0946 0.370793,-0.213476 0.661835,-0.264396 0.291041,-0.05093 0.589076,-0.170716 0.661836,-0.264396 0.236196,-0.304122 3.499218,-1.542065 3.714147,-1.409231 0.114756,0.07093 0.247397,0.03357 0.296207,-0.08196 0.135986,-0.321877 2.894079,-1.394454 3.161075,-1.229441 0.12941,0.07998 0.236039,0.03473 0.236039,-0.100471 0,-0.135197 0.53461,-0.395682 1.189453,-0.579027 1.43007,-0.400395 1.439138,-0.450486 0.275379,-1.578445 -0.50366,-0.488167 -0.862038,-0.973078 -0.798368,-1.076092 0.06367,-0.103015 -0.150403,-0.410675 -0.474393,-0.684785 l -0.472078,-0.396594 c 0.0089,-0.0167 0.0162,-0.03718 0.0162,-0.06874 0,-0.01173 -0.01498,-0.03402 -0.0324,-0.05817 z m -0.182815,0.07403 c 0.08366,0.06952 0.145523,0.09729 0.180501,0.07668 l 0.430424,0.528792 c 0.07496,0.09266 -0.51973,-0.524338 -0.610925,-0.605467 z m -12.327267,1.633968 c 0.01832,0.01636 0.01764,0.0032 0.03008,0.01058 -1.47472,1.591108 -2.988414,3.247643 -4.484746,4.94685 -0.01034,-0.02389 -0.0064,-0.03014 -0.02546,-0.06346 -0.09489,-0.166056 0.274696,-0.703149 0.819195,-1.19507 0.544499,-0.491922 1.030189,-1.01038 1.080689,-1.152767 0.188019,-0.530167 2.396847,-2.709915 2.580234,-2.546134 z m 16.113152,0.169213 0.641009,0.72709 c 0.352788,0.400182 0.681555,0.727089 0.728945,0.727089 0.207506,0 0.03905,-0.21218 -0.641009,-0.811696 z m -24.113033,1.885144 c 0.0062,0.01984 -0.0041,0.03385 0.0093,0.05552 0.135239,0.218821 -0.625684,2.960488 -0.893247,3.2177 -0.07569,0.07276 -0.140675,0.253717 -0.143475,0.399238 -0.0123,0.631349 -0.775229,3.040555 -0.96267,3.040555 -0.05542,0 -0.08653,0.04464 -0.09719,0.11369 0.51487,-1.533346 1.279683,-4.101481 2.087327,-6.826706 z m 26.332265,0.208873 c 0.186183,0.190893 0.672825,0.672219 0.752086,0.758817 -0.07706,-0.0711 -0.153683,-0.143348 -0.25918,-0.232669 l -0.476707,-0.401882 c 0.0088,-0.01669 0.01388,-0.03734 0.01388,-0.06874 0,-0.01111 -0.01438,-0.0332 -0.03008,-0.05552 z m 0.960356,0.96769 c 0.04006,0.04688 0.687742,0.682915 0.638695,0.642482 l -0.520675,-0.428322 c 0.01931,-0.03555 -0.0284,-0.112415 -0.11802,-0.21416 z m -23.802942,1.782029 c 0.0029,0.0026 0.0018,2.22e-4 0.0046,0.0026 -1.697197,1.92853 -3.303591,3.801333 -4.450034,5.21389 -0.0061,-0.01193 -0.0015,-0.01285 -0.0093,-0.02644 -0.08873,-0.156087 0.532593,-1.031395 1.381524,-1.945955 0.84893,-0.91456 1.526036,-1.68665 1.506486,-1.71593 -0.124765,-0.186827 1.402195,-1.676256 1.566653,-1.528209 z m 26.01986,0.568451 0.395713,0.449474 c -0.164161,-0.159736 -0.289186,-0.278867 -0.453566,-0.438898 0.02365,-4.67e-4 0.04409,-0.0043 0.05785,-0.01058 z m 27.297249,0.684786 c 0.05802,0.03586 0.108189,0.03552 0.150417,0.0238 -2.915311,2.198929 -5.510965,4.140705 -8.502042,6.401028 -3.4925,2.639243 -6.468207,4.792469 -6.613728,4.785569 -0.02332,-0.0011 -1.079446,-1.019546 -1.478717,-1.390724 -0.03282,-0.100753 -0.208191,-0.287219 -0.571585,-0.594891 l -0.592413,-0.499708 c -0.02809,-0.02672 -0.03618,-0.03357 -0.0648,-0.06081 0.07073,0.0342 0.151178,0.08179 0.185129,0.06081 0.101966,-0.06302 0.705696,0.416982 1.342184,1.065516 0.636488,0.648533 1.194234,1.179206 1.240364,1.179206 0.04613,0 2.461984,-1.788304 5.368736,-3.973872 2.906752,-2.185568 5.285429,-3.898943 5.285429,-3.807303 0,0.09164 0.234474,-0.116506 0.520675,-0.46005 0.2862,-0.343545 0.525131,-0.521856 0.529931,-0.396594 0.0048,0.125262 0.241417,-0.05305 0.527617,-0.396594 0.2862,-0.343545 0.525132,-0.521856 0.529932,-0.396594 0.0048,0.125262 0.243731,-0.05305 0.529931,-0.396594 0.286201,-0.343545 0.522817,-0.50903 0.527617,-0.36751 0.0048,0.14152 0.197559,-0.0099 0.425797,-0.335783 0.228238,-0.325856 0.523957,-0.522678 0.659521,-0.438898 z m -27.068152,1.546717 0.520675,0.531436 -0.469765,-0.399238 c 0.01381,-0.02416 -0.0066,-0.07063 -0.05091,-0.132198 z m 1.110773,1.131615 0.323976,0.330495 -0.323976,-0.272328 c 0.0088,-0.01404 0.0093,-0.03329 0,-0.05817 z m 1.064491,1.086668 0.203642,0.208873 -0.210584,-0.179789 c 0.005,-0.008 0.0077,-0.01767 0.0069,-0.02908 z m 1.059863,1.078736 h 0.0023 c 0.06938,0.07069 0.111456,0.11216 0.1805,0.182433 l -0.199013,-0.174501 c 0.0029,-0.0039 0.01485,-0.0031 0.0162,-0.0079 z m 1.321357,1.32198 c 0.09145,0.09241 0.159371,0.157178 0.249924,0.248532 l -0.259181,-0.235312 c 0.0032,-0.0044 0.0082,-0.0075 0.0093,-0.01322 z m 2.915779,0.449473 c 0.157226,0.161307 0.596435,0.596259 0.671092,0.676854 -0.02547,-0.02092 -0.0497,-0.0399 -0.07636,-0.06081 -0.398684,-0.31267 -0.4169,-0.307023 -0.136533,0.05288 -0.08959,-0.08616 -0.232312,-0.223766 -0.323975,-0.311987 0.01508,0.01052 0.0378,0.02908 0.04397,0.02908 0.145617,0 0.09348,-0.115903 -0.178187,-0.386019 z m 1.045978,1.054941 c 0.01878,0.02412 0.554217,0.552649 0.516047,0.52086 l -0.516047,-0.428322 0.0023,-0.0026 c 0.0066,-0.01615 0.0093,-0.03888 0.0093,-0.0661 0,-0.0046 -0.0087,-0.01709 -0.01157,-0.02379 z m -0.01851,0.111046 0.159674,0.190365 c -0.101237,-0.09698 -0.08694,-0.07895 -0.192071,-0.179789 0.01302,3.5e-5 0.02345,-0.0034 0.0324,-0.01058 z m 1.749468,4.378398 0.641009,0.72709 c 0.352788,0.400182 0.681555,0.727089 0.728945,0.727089 0.207506,0 0.03905,-0.21218 -0.641009,-0.811696 z" /></g></g></svg>
