<?xml version="1.0" encoding="UTF-8" standalone="no"?>
<!-- Created with Inkscape (http://www.inkscape.org/) -->

<svg
   width="89.244453mm"
   height="52.056755mm"
   viewBox="0 0 89.244454 52.056755"
   version="1.1"
   id="svg1"
   xml:space="preserve"
   sodipodi:docname="papierflieger.svg"
   inkscape:version="1.4 (86a8ad7, 2024-10-11)"
   inkscape:export-filename="papierflieger.png"
   inkscape:export-xdpi="96"
   inkscape:export-ydpi="96"
   xmlns:inkscape="http://www.inkscape.org/namespaces/inkscape"
   xmlns:sodipodi="http://sodipodi.sourceforge.net/DTD/sodipodi-0.dtd"
   xmlns:xlink="http://www.w3.org/1999/xlink"
   xmlns="http://www.w3.org/2000/svg"
   xmlns:svg="http://www.w3.org/2000/svg"><sodipodi:namedview
     id="namedview1"
     pagecolor="#ffffff"
     bordercolor="#000000"
     borderopacity="0.25"
     inkscape:showpageshadow="2"
     inkscape:pageopacity="0.0"
     inkscape:pagecheckerboard="0"
     inkscape:deskcolor="#d1d1d1"
     inkscape:document-units="mm"
     inkscape:zoom="1.9729351"
     inkscape:cx="185.00356"
     inkscape:cy="56.514785"
     inkscape:window-width="1920"
     inkscape:window-height="1001"
     inkscape:window-x="-9"
     inkscape:window-y="-9"
     inkscape:window-maximized="1"
     inkscape:current-layer="svg1" /><defs
     id="defs1"><linearGradient
       id="linearGradient6-1"><stop
         style="stop-color:#ff0000;stop-opacity:1;"
         offset="0"
         id="stop7" /><stop
         style="stop-color:#b21e57;stop-opacity:1;"
         offset="0.50204921"
         id="stop11" /><stop
         style="stop-color:#5947b7;stop-opacity:1;"
         offset="1"
         id="stop8" /></linearGradient><linearGradient
       xlink:href="#linearGradient6-1"
       id="linearGradient20"
       x1="2.2748537"
       y1="41.491833"
       x2="338.16818"
       y2="41.491833"
       gradientUnits="userSpaceOnUse" /></defs><path
     style="fill:#b81c51;fill-opacity:1;stroke:none;stroke-width:1.01537"
     d="m 89.244456,2.6e-4 c -22.7028,4.9458 -45.44425,9.88826 -68.153634,14.94437 -5.290954,1.17802 -10.586588,2.31567 -15.8757926,3.51125 -1.073884,0.24279 -4.803212,0.56511 -5.195339,1.74722 -0.344239,1.03768 3.928104,1.62172 4.765154,1.83803 l 11.5106036,2.97448 c 1.155684,0.29864 3.628629,0.48362 4.147918,1.4793 0.856597,1.64249 0.165253,5.12065 0.0434,7.05282 -0.255636,4.05832 0.0032,8.06062 -0.135875,12.10398 -0.04291,1.23881 -0.974301,5.97358 0.560602,6.37021 1.06109,0.2742 2.768423,-1.1435 3.660743,-1.69286 3.04152,-1.87247 6.07262,-3.75961 9.10222,-5.64865 2.53725,-1.58201 5.81678,-3.08953 7.89671,-5.13248 -3.19468,-2.28636 -7.85446,-4.92876 -11.91475,-6.11368 l -7.13549,13.32998 -0.261564,-0.0679 0.404792,-14.24162 0.311994,-5.98886 4.025048,-1.97938 12.41935,-4.84255 49.04119,-19.29442 -13.45662,7.55819 -27.12165,15.06256 -10.84787,6.02517 -5.29273,3.32236 c 6.27192,2.48052 12.15887,6.22459 17.89004,9.41528 1.54486,0.86006 4.81931,3.53188 6.95092,3.10409 1.32006,-0.2648 1.95458,-1.48388 2.61629,-2.38928 1.85981,-2.54469 3.67904,-5.11859 5.48151,-7.68785 5.90655,-8.41896 12.06085,-16.74061 18.00342,-25.14365 1.54133,-2.17952 3.1381,-4.33682 4.67902,-6.51574 C 88.030826,2.15779 89.186056,1.02227 89.244426,0 Z"
     id="path1-1" /></svg>
