<?xml version="1.0" encoding="UTF-8" standalone="no"?>
<!-- Created with Inkscape (http://www.inkscape.org/) -->

<svg
   width="511.89575mm"
   height="118.24116mm"
   viewBox="0 0 511.89576 118.24116"
   version="1.1"
   id="svg1"
   xml:space="preserve"
   sodipodi:docname="rockpommelsband.svg"
   inkscape:version="1.4 (86a8ad7, 2024-10-11)"
   xmlns:inkscape="http://www.inkscape.org/namespaces/inkscape"
   xmlns:sodipodi="http://sodipodi.sourceforge.net/DTD/sodipodi-0.dtd"
   xmlns:xlink="http://www.w3.org/1999/xlink"
   xmlns="http://www.w3.org/2000/svg"
   xmlns:svg="http://www.w3.org/2000/svg"><sodipodi:namedview
     id="namedview1"
     pagecolor="#ffffff"
     bordercolor="#000000"
     borderopacity="0.25"
     inkscape:showpageshadow="2"
     inkscape:pageopacity="0.0"
     inkscape:pagecheckerboard="0"
     inkscape:deskcolor="#d1d1d1"
     inkscape:document-units="mm"
     inkscape:zoom="0.69753788"
     inkscape:cx="984.89275"
     inkscape:cy="199.98914"
     inkscape:window-width="1920"
     inkscape:window-height="1001"
     inkscape:window-x="-9"
     inkscape:window-y="-9"
     inkscape:window-maximized="1"
     inkscape:current-layer="svg1"><inkscape:page
       x="-3.1667289e-14"
       y="0"
       width="511.89575"
       height="118.24116"
       id="page2"
       margin="0"
       bleed="0" /></sodipodi:namedview><defs
     id="defs1"><linearGradient
       id="linearGradient6-1"><stop
         style="stop-color:#ff0000;stop-opacity:1;"
         offset="0"
         id="stop7" /><stop
         style="stop-color:#b21e57;stop-opacity:1;"
         offset="0.50204921"
         id="stop11" /><stop
         style="stop-color:#5947b7;stop-opacity:1;"
         offset="1"
         id="stop8" /></linearGradient><linearGradient
       xlink:href="#linearGradient6-1"
       id="linearGradient20"
       x1="2.2748537"
       y1="41.491833"
       x2="338.16818"
       y2="41.491833"
       gradientUnits="userSpaceOnUse" /></defs><path
     id="path1-5"
     style="display:inline;fill:url(#linearGradient20);fill-opacity:1;stroke-width:2.07601"
     d="M 76.710623,3.100487 C 75.00502,3.108587 73.309884,3.170053 71.635002,3.2871403 45.508633,4.7369716 24.863576,14.737209 7.8910256,33.037353 0.07895858,41.46048 -0.03546403,42.732823 8.4734738,36.187971 34.33591,16.295264 52.857747,13.465419 59.901706,12.511112 c 6.533761,-0.885186 4.741367,-1.744407 2.1229,2.011583 -7.416764,10.638779 -10.680745,21.998259 -13.747878,35.800703 -1.363942,6.137899 -5.098028,11.242269 -10.915845,14.922894 -1.295315,0.819478 -2.060397,1.350143 -1.689624,1.950115 0.95361,1.543101 10.173839,-0.666029 19.238033,-0.807332 9.064188,-0.141271 14.602519,0.524322 15.542448,0.669028 3.361155,0.518665 4.240458,-0.643244 1.640151,-2.167127 C 53.402735,53.938459 62.71791,8.8137238 83.361927,10.295634 c 16.585347,1.190563 5.605409,21.261287 -15.671756,28.647534 -4.964639,1.723448 -5.004882,2.453136 -0.468882,8.472861 9.681186,12.847901 28.412761,24.223361 45.017181,27.338337 0.90146,0.169113 1.31188,0.246028 1.99553,0.380057 -0.35982,0.385998 -1.20975,1.200059 -2.16159,2.160377 -1.304,1.315611 -1.24998,2.113639 -1.24998,2.274322 0,0.766504 1.1106,-0.154277 3.35227,-1.973727 1.37624,-1.117018 2.39735,-1.63181 3.0145,-2.072742 1.2888,0.158757 3.99671,0.607261 8.65058,1.03303 15.28816,1.398669 38.36238,1.028265 38.04916,-0.610559 -0.0891,-0.466582 -0.90534,-0.565511 -6.04,-0.735744 -10.59155,-0.0023 -22.2295,0.107105 -37.31163,-2.212788 0.67165,-0.521195 3.53438,-2.97489 4.16717,-3.623313 1.18113,-1.210311 2.69517,-3.073756 3.25748,-3.767754 0.49446,0.188014 1.57823,0.624283 2.84999,1.06203 6.04391,2.080349 8.08298,1.056276 3.06104,-1.537453 -2.13415,-1.102245 -3.76996,-2.317517 -4.57259,-3.27873 0.39759,-1.485878 1.08436,-4.429323 1.3249,-6.115778 0.2372,-1.663053 0.37127,-1.811417 2.57604,-0.913027 2.84856,1.160735 5.96736,1.225069 6.86906,-0.157419 0.92206,-1.413714 0.59221,-3.519724 0.91059,-4.037812 0.49374,0.70745 0.3007,3.630947 1.6046,4.003954 0.94872,0.271402 10.20563,0.06075 11.08577,-0.56283 0.59629,-0.593684 1.01851,-1.77656 1.11025,-3.167426 0.0516,1.323019 0.21477,2.664372 0.54002,3.083846 0.69853,0.900881 3.26644,0.607429 4.44894,0.157793 0.70958,-0.269781 0.8324,-0.575638 1.03072,-2.558799 0.12383,-1.238328 0.37714,-2.733463 0.56221,-3.323404 0.5896,-1.879387 1.06954,-3.832103 3.38112,1.610541 0.98486,2.31889 1.68878,2.489551 2.56255,-1.305449 0.66304,-2.879809 1.08744,-2.442013 1.83317,-1.520962 0.72694,0.897726 1.08562,3.186852 1.08769,4.737546 0.002,1.165431 0.76676,2.33579 1.52658,2.33579 0.23797,0 0.92272,0.353149 1.6083,0.561084 1.17905,0.357603 1.23212,0.309053 2.12515,0 0.57296,-0.19828 1.38676,-0.561084 1.92162,-0.561084 1.58235,0 3.04073,-0.653818 3.20122,-1.435506 0.0802,-0.390284 0.24152,-1.600485 0.35944,-2.689607 0.57305,-5.288607 1.64845,-7.29116 3.2863,-2.207606 1.31684,4.087268 1.89905,3.620063 3.2683,-0.61843 1.48738,-4.604143 3.40556,-1.150875 3.27206,4.265665 -0.0575,2.331217 3.32002,3.343243 5.42119,1.624409 0.1046,-0.08556 0.49188,-0.451264 0.47397,-1.909977 0.34405,1.085554 0.36282,1.792243 1.46378,2.421212 1.84112,1.051814 5.37219,0.679572 8.63252,-0.722626 3.53982,-1.522388 2.64107,-1.788236 3.26981,-0.122187 0.35064,0.929174 0.80101,0.843688 3.75068,0.864677 5.53627,0.0394 5.89247,-0.292844 4.88747,-4.556139 -0.51392,-2.180423 -0.72496,-3.587628 -0.83572,-4.164329 0.46165,1.090898 1.29175,1.60535 2.45676,1.660251 1.56979,0 2.27641,0.47673 2.72633,1.839922 1.48603,4.502759 -6.34768,10.011446 -16.86588,11.86073 -5.66621,0.996219 -4.03342,3.021773 2.17162,2.694105 15.81422,-0.835098 30.05287,-13.295103 21.69639,-18.98579 -3.73867,-2.54597 -3.73338,-3.218624 0.03,-3.570025 2.59194,-0.242042 2.97597,-0.755398 1.63378,-2.185493 -3.68345,-3.924757 -11.4738,-2.138071 -13.60042,3.123023 -0.34341,0.849573 -0.43008,2.303012 -0.32432,3.112191 -0.25758,-0.992264 -0.52069,-3.689577 -0.50866,-8.054521 0.0182,-6.619426 0.88591,-11.096278 2.80205,-14.445392 1.22549,-2.141932 1.33251,-3.632451 0.235,-3.284048 -0.40841,0.129648 -1.78252,0.454071 -3.05317,0.720002 -10.05642,2.10469 -10.26151,2.273202 -7.26711,5.984149 3.8909,4.821934 3.4611,17.479677 -1.2541,21.022859 -1.16744,0.877261 -4.62807,2.406347 -4.85048,2.131405 1.16587,-0.717309 3.38775,-2.289571 4.54989,-3.855512 2.57777,-3.160264 1.9703,-8.376184 -2.26008,-8.290704 -4.20537,0.08497 -6.25987,0.36714 -8.35517,6.010011 -0.77292,2.081555 -0.99773,3.851646 -1.26662,6.443959 -0.3376,-1.391486 -1.05871,-5.162258 -1.72021,-6.879858 -2.17527,-5.648158 -4.86502,-7.652523 -6.97326,-4.137482 -1.68879,2.815729 -2.37257,2.198977 -3.77205,-0.165289 -1.4192,-2.397587 -2.96334,-1.674092 -4.24917,-0.0506 -1.02387,1.292734 -3.4275,6.077808 -3.84101,7.390421 -1.67102,5.304005 -0.96706,1.471427 -2.16675,-2.787056 -1.74683,-6.20071 -5.13396,-7.670476 -7.03886,-3.926466 -1.09291,2.148066 -2.04526,1.711117 -2.70122,0 -1.52935,-3.98943 -4.71051,-1.942719 -7.29522,4.32451 -0.5307,1.286804 -1.7024,5.277766 -1.87608,6.125854 -0.31945,-1.017706 -0.49743,-1.703065 -0.87462,-3.814801 -2.06052,-11.536115 -10.98623,-10.233972 -12.18569,-1.191883 -0.15498,1.168286 -0.5805,3.520503 -0.75598,3.520503 -0.18614,0 -0.64448,-2.234647 -0.89204,-3.06249 -1.68623,-5.638858 -4.12416,-7.978801 -7.25737,-6.966891 -1.48817,0.480624 -1.73711,0.485199 -2.24996,0.0461 -0.42868,-0.367004 -1.29748,-0.477299 -3.38262,-0.430277 -3.25108,0.07333 -3.42406,0.454413 -1.95461,4.289278 1.30282,3.400054 0.37866,14.242058 -0.37212,16.752401 -0.70691,0 -3.89944,-6.632435 -5.39952,-11.534354 -0.71717,-2.343576 -0.69935,-2.435794 0.78747,-4.089506 1.29503,-1.440381 1.7646,-2.315766 2.11466,-3.941459 0.63244,-2.937087 6.43754,-7.246563 11.34274,-8.420387 3.28272,-0.785561 3.26442,-1.472987 -0.0397,-1.472987 -8.3423,0 -20.71556,6.919498 -16.87414,9.436486 1.54662,1.013392 0.0764,2.961304 -1.64352,2.177622 -2.22328,-1.012996 -1.49572,-10.547826 1.22299,-16.019201 0.84789,-1.706401 0.66135,-1.772872 -2.1319,-0.754109 -5.18889,1.892495 -5.16616,1.851006 -5.16969,9.701474 -0.001,2.455618 -0.32551,9.643485 -0.72479,11.724369 -0.26854,1.399563 -0.19396,0.918101 -0.48235,2.281414 -0.76815,-0.555692 -2.09119,-0.609912 -2.46837,0.108931 -0.97048,1.849557 -1.69023,2.537044 -3.21005,2.145862 -3.707339,-0.95422 -1.0936,-6.474441 2.57117,-7.36381 2.19116,-0.531752 2.05671,-2.292588 -0.12594,-3.788163 -2.70052,-1.850427 -6.805019,1.293785 -7.613052,4.258169 -0.508711,1.866276 -0.638505,6.824916 -1.401027,6.822525 -0.618926,-0.0019 -0.381813,-4.694495 -1.201251,-6.348394 -4.299035,-8.676886 -12.956645,-5.468523 -12.366343,5.995768 0.04866,0.945029 0.05524,1.894475 0.331066,3.703434 0.170754,1.119885 -0.212616,0.602676 -0.410589,0.313973 -0.344106,-0.501808 -2.043748,-3.198564 -2.665553,-6.769231 -1.110969,-6.379659 -0.28669,-8.163778 4.485301,-9.70897 7.466392,-2.417683 21.495208,-8.482189 24.256308,-10.486692 11.42259,-8.29284 11.86477,-11.074516 2.47672,-15.590799 C 101.09924,5.6180027 88.649846,3.0444139 76.710623,3.100487 Z M 277.32994,4.7687477 c -6.524,0.0013 -13.51534,0.7575823 -20.05511,2.3429113 -7.13748,1.7302199 -9.02943,1.9092808 -20.87256,1.9782251 -14.26661,0.08304 -17.78333,0.3918481 -22.27809,1.9546129 -4.83804,1.682126 -5.56346,2.474398 -1.48348,1.619161 19.84558,-4.1599814 36.05031,2.137978 35.01099,13.607325 -1.23962,13.679536 -16.07524,31.191752 -31.7112,37.432608 -1.89179,0.755085 -3.00983,1.387366 -3.0779,1.740973 -0.13059,0.6778 1.60926,0.77572 5.89419,1.012725 13.78068,-0.279331 23.88461,-3.784124 51.57141,0.03748 9.33427,1.288408 17.13048,-1.377834 17.25756,-5.181691 0.0821,-2.458225 -1.59756,-3.646122 -3.23645,-5.427188 -1.62923,-1.77056 0.005,0.006 -2.35115,-2.433239 2.30533,-0.439173 8.50379,-0.151823 8.95636,0.127808 0.70793,0.437523 2.04054,-0.05144 2.02432,-1.184386 -0.0632,-4.414095 -0.5399,-8.7332 -1.0361,-9.920524 1.04137,-1.017707 1.88043,-0.118685 2.26292,0.296054 0.49938,0.541492 -1.59569,6.386325 -0.29168,10.43555 0.34649,1.075912 2.53105,0.908478 3.65172,0.168251 1.12068,-0.740228 1.17416,-2.655647 1.66228,-4.963892 1.49418,-7.065661 3.19232,-6.701684 4.30202,0.921648 0.55806,3.833723 3.34157,6.343155 4.69509,2.667125 0.15799,-0.429108 0.34915,-1.208944 0.26161,-2.64088 -0.0828,-1.354337 -0.13959,-1.628774 -0.009,-1.629917 0.10916,0.490692 0.38944,2.504761 2.70702,4.779402 2.33269,2.289506 16.35194,0.807907 17.96595,-0.708383 2.72012,-2.555406 0.75856,-5.277735 -2.37215,-3.292295 -4.03609,2.559609 -5.53803,-0.389698 -5.5505,-10.891108 -0.01,-9.308448 1.17179,-10.722345 12.69955,-15.17064 4.91328,-1.895909 4.55131,-1.704591 3.79566,-2.002963 -0.36304,-0.143306 -1.69969,-0.200968 -2.97034,-0.128558 -19.67196,1.121077 -21.98794,2.06241 -19.28488,7.838689 1.71832,3.671774 1.722,5.907296 0.008,5.633332 -1.72815,-0.276344 -4.69118,2.153868 -6.55536,5.758892 -0.67466,1.304693 -0.45125,0.875413 -0.6952,1.502999 -0.11897,-0.302402 -0.21851,-0.943527 -1.04689,-2.32345 -2.13254,-3.552406 -3.74806,-3.846491 -6.51263,-2.226346 -1.47247,0.862929 -1.47257,1.445818 -2.71434,0.165289 -1.74909,-1.803686 -5.65758,-1.652454 -6.69975,1.747366 -0.4827,1.574696 -0.17965,0.446305 -0.32221,1.158699 -0.12392,-0.508853 -0.35303,-0.920855 -1.15868,-1.914732 -1.36511,-1.684039 -4.24704,-2.965955 -7.83294,-1.246576 -3.84176,1.842068 -4.09645,3.052368 -0.7811,3.702332 3.56504,0.698919 3.74979,1.309056 1.23161,4.059522 -1.4714,1.607135 -4.0229,4.596173 -2.35265,7.802333 -1.59039,-1.530044 -4.94353,-4.180742 -6.60633,-5.411072 -5.98132,-4.425653 -4.51961,-7.423568 4.585,-12.218295 18.84464,-9.923872 28.2905,-19.31227 23.77918,-23.634881 -4.01498,-3.8473024 -13.58947,-5.9424752 -24.46283,-5.9402973 z m -2.78293,6.3016103 c 4.91106,0.437442 8.12857,5.218934 5.15283,12.033891 -3.24584,7.433596 -14.9756,13.353178 -16.89475,14.007618 -14.32649,4.885407 -10.28095,5.011561 -2.4576,9.006209 9.77999,4.993706 11.57568,8.522459 5.78025,9.935353 -24.66361,6.012857 -16.77521,-24.260593 -1.27883,-40.580227 3.19498,-3.364709 6.75148,-4.665313 9.6981,-4.402844 z m -40.39433,3.761926 c -0.037,0.0023 -0.0952,0.03616 -0.12855,0.08058 -0.0965,0.128486 -0.29435,0.489689 -0.54497,0.994735 -0.40632,0.818852 -0.46071,0.898139 -0.72113,1.054704 -0.29942,0.180002 -0.66261,0.163558 -0.78522,-0.03561 -0.0583,-0.09478 -0.11803,-0.06243 -0.0873,0.04723 0.0625,0.223163 0.1802,0.338849 0.41416,0.407039 0.13058,0.03795 0.17673,0.07469 0.13493,0.107194 -0.0813,0.06311 -0.25441,0.01292 -0.56033,-0.162665 -0.24163,-0.13864 -0.40496,-0.18156 -0.55284,-0.14505 -0.0757,0.0188 -0.0841,0.03494 -0.0967,0.170536 -0.01,0.108541 -0.0316,0.131299 -0.14205,0.147299 -0.10231,0.01488 -0.1695,0.0421 -0.1919,0.07796 -0.0401,0.06372 0.0421,0.085 0.19827,0.04947 0.13995,-0.0317 0.25939,-0.01215 0.41154,0.06821 0.13293,0.07019 0.26834,0.126526 0.46026,0.191526 0.27194,0.09206 0.33341,0.1265 0.27211,0.15292 -0.0877,0.03793 -0.3605,2.64e-4 -0.6859,-0.09483 -0.45776,-0.133723 -0.89291,-0.09848 -0.94001,0.07571 -0.0171,0.06355 -0.0419,0.08103 -0.11956,0.08583 -0.13381,0.0085 -0.37574,0.134454 -0.41154,0.214014 -0.0213,0.04754 0.0592,0.07015 0.1443,0.04085 0.18142,-0.0624 1.29092,0.207645 1.18739,0.288975 -0.0247,0.01936 -0.13778,0.0092 -0.31634,-0.02811 -0.55494,-0.115968 -0.99316,-0.03703 -1.31369,0.236502 -0.0655,0.05593 -0.24286,0.273602 -0.23276,0.284852 0.003,0.004 0.22871,-0.04578 0.41341,-0.09108 0.20715,-0.0509 0.39306,-0.04392 0.8212,0.03148 0.299,0.05267 0.48344,0.07531 0.65066,0.08171 0.20232,0.0072 0.18363,0.02903 -0.12331,0.143176 -0.43838,0.162805 -1.00714,0.166092 -1.5337,0.0082 -0.21109,-0.06277 -0.27436,-0.0752 -0.27436,-0.05022 0,0.0144 -0.0185,0.01774 -0.0615,0.0097 -0.23175,-0.04239 -0.2463,0.0767 -0.0405,0.330578 0.23243,0.286717 0.50808,0.402841 1.09519,0.461761 0.41899,0.04211 0.50433,0.06315 0.41003,0.100448 -0.48849,0.193354 -1.05592,0.0084 -1.6855,-0.549465 -0.079,-0.07022 -0.12181,-0.0926 -0.12781,-0.06971 -0.0315,0.09828 0.49603,0.546065 0.78147,0.663406 0.13379,0.05491 0.19888,0.09963 0.18628,0.127809 -0.0257,0.0575 -0.26102,-0.03564 -0.51948,-0.205394 -0.12258,-0.08049 -0.18578,-0.132032 -0.31259,-0.255617 -0.16605,-0.161593 -0.24312,-0.214798 -0.25712,-0.177658 -0.0407,0.106939 0.41177,0.494572 0.80546,0.690392 0.18733,0.0933 0.26978,0.152617 0.23688,0.170537 -0.0796,0.04345 -0.33206,-0.08085 -0.72975,-0.359439 -0.22193,-0.155434 -0.29477,-0.204528 -0.39167,-0.264238 -0.21505,-0.132394 -0.22386,-0.131684 -0.26536,0.02024 -0.042,0.154133 -0.0283,0.181148 0.16791,0.325707 0.13623,0.100439 0.19045,0.153973 0.29385,0.290849 0.15408,0.204 0.58814,0.486201 0.85643,0.556961 0.12614,0.03313 0.15957,0.05161 0.14617,0.08058 -0.0394,0.08638 -0.38009,0.0282 -0.98011,-0.167539 -0.46904,-0.153089 -0.95034,-0.115837 -1.07232,0.08283 -0.0424,0.06901 -0.0806,0.105437 -0.12706,0.121437 -0.0811,0.02754 -0.0446,0.05125 0.17991,0.116564 0.30785,0.08957 0.36192,0.106731 0.50411,0.162291 0.15959,0.06227 0.28642,0.123501 0.43815,0.211391 0.23908,0.138441 0.39512,0.205461 0.55621,0.238751 0.20848,0.04322 0.19782,0.09221 -0.0277,0.127434 -0.2301,0.03592 -0.47588,-0.03268 -0.8583,-0.239501 -0.50271,-0.2719 -1.28769,-0.254343 -1.27509,0.02848 0.005,0.109336 0.0276,0.126501 0.1458,0.104571 0.0411,-0.0077 0.0906,-1.7e-4 0.19827,0.02961 0.15346,0.04236 0.28749,0.09234 0.73425,0.273608 0.37699,0.152968 0.56299,0.209113 0.70426,0.215513 0.1014,0.004 0.11584,0.02014 0.0513,0.0581 -0.15046,0.08854 -0.53623,0.01044 -0.83506,-0.169037 -0.30325,-0.182132 -1.01732,-0.357303 -1.27472,-0.312963 -0.18934,0.03264 -0.3911,0.240402 -0.3362,0.346695 0.0167,0.03249 0.0653,0.07178 0.0896,0.07234 0.0478,0.0011 0.18897,0.120421 0.4835,0.408163 0.0584,0.05696 0.14585,0.141453 0.19415,0.187403 0.11704,0.11159 0.10041,0.121565 -0.12556,0.07834 -0.34329,-0.0658 -0.71752,-0.04362 -0.97037,0.05772 -0.12177,0.04878 -0.25588,0.179677 -0.34108,0.333202 -0.0305,0.05415 -0.0291,0.0596 0.0101,0.0431 0.0973,-0.04101 0.59672,0.04204 1.03409,0.172036 0.29425,0.08744 0.69086,0.255165 0.65966,0.278855 -0.0159,0.01217 -0.17244,0.0014 -0.39242,-0.02699 -0.41936,-0.05412 -0.60795,-0.05883 -0.96288,-0.02361 -1.22145,0.121091 -1.4129,0.324282 -0.59931,0.63567 0.23244,0.08903 0.35381,0.148136 0.35381,0.172786 0,0.02288 -0.0675,0.02676 -0.11731,0.0067 -0.11879,-0.04766 -0.66925,0.04098 -0.9685,0.155919 -0.18613,0.07151 -0.28274,0.183648 -0.30134,0.350444 -0.0109,0.09813 -0.0231,0.109544 -0.10307,0.107944 -0.15824,-0.0042 -0.46062,0.167033 -0.45052,0.255243 0.004,0.03459 -0.0116,0.04875 -0.0813,0.07421 -0.0632,0.02305 -0.0653,0.03118 -0.0184,0.06447 0.0971,0.06884 -0.0318,0.124633 -0.16716,0.07196 -0.0461,-0.01765 -0.0957,-0.02249 -0.10832,-0.01124 -0.0289,0.02869 0.0477,0.08571 0.23463,0.175035 0.32744,0.156474 0.43176,0.275738 0.22226,0.254118 -0.3466,-0.03581 -0.7581,0.158332 -0.90928,0.429153 -0.045,0.08052 -0.0304,0.116693 0.0442,0.108693 0.0629,-0.0066 0.0362,0.01619 -0.17354,0.147299 -0.22902,0.143232 -0.26588,0.184647 -0.27848,0.303593 -0.0136,0.138448 -0.032,0.152645 -0.23913,0.182905 -0.27224,0.03971 -0.38367,0.0635 -0.37967,0.08096 0.002,0.0091 0.10537,0.07001 0.18477,0.109069 0.21441,0.105496 0.21599,0.130303 0.009,0.138303 -0.11884,0.0046 -0.14618,0.0091 -0.17428,0.02811 -0.064,0.04345 -0.0858,0.186314 -0.0375,0.243624 0.0318,0.03762 0.002,0.06549 -0.15816,0.147299 -0.0934,0.04771 -0.12519,0.07462 -0.11919,0.09895 0.008,0.03058 0.0907,0.102578 0.17054,0.148048 0.0853,0.04819 0.0893,0.05149 0.0933,0.06109 0.006,0.01426 -0.004,0.03595 -0.0285,0.0566 -0.038,0.03281 -0.0276,0.04535 0.0491,0.0566 0.0842,0.01281 0.13137,0.02987 0.15517,0.05659 0.0215,0.02434 0.0114,0.03248 -0.0536,0.04048 -0.14508,0.01889 0.0321,0.104726 0.37518,0.181406 0.19963,0.04467 0.29843,0.0745 0.32083,0.09708 0.0614,0.062 0.41373,0.09143 0.60119,0.0506 0.1054,-0.02306 0.1833,-0.0095 0.2009,0.03486 0.048,0.120707 0.53973,-0.202522 0.74174,-0.487623 0.21425,-0.302359 0.3373,-0.591645 0.44677,-1.049081 0.0642,-0.268611 0.0974,-0.361123 0.11506,-0.321583 0.0189,0.04242 -0.0227,0.340379 -0.0731,0.522479 -0.11166,0.403695 -0.3334,0.807201 -0.61019,1.1098 -0.19928,0.217884 -0.16866,0.253103 0.0971,0.112067 0.68042,-0.361271 0.85824,-0.673328 0.95987,-1.685502 0.0824,-0.819412 0.15181,-0.705856 0.0907,0.148423 -0.0479,0.670033 -0.12534,1.039123 -0.24138,1.151029 -0.0964,0.09253 -0.01,0.146875 0.13868,0.0862 0.42929,-0.175233 0.58719,-0.565005 0.54309,-1.34068 -0.0344,-0.60531 0.009,-0.825212 0.2069,-1.04346 0.0428,-0.04723 0.31371,-0.31129 0.31671,-0.30809 9e-4,9.6e-4 -0.0251,0.06956 -0.0573,0.152171 -0.0939,0.240901 -0.11754,0.308719 -0.15254,0.431027 -0.16097,0.562343 -0.17434,1.179081 -0.0337,1.564814 0.0776,0.212933 0.12624,0.140164 0.16454,-0.245872 0.0401,-0.403712 0.0866,-0.459276 0.11732,-0.139803 0.0206,0.214858 0.0275,0.232783 0.0915,0.226383 0.10494,-0.01007 0.12874,-0.07546 0.16904,-0.462136 0.0703,-0.674852 0.21069,-1.404265 0.26499,-1.379285 0.0285,0.01279 0.034,0.07813 0.0202,0.208767 -0.0412,0.39028 0.0575,1.2776 0.14693,1.32194 0.0397,0.0197 0.0885,-0.01585 0.12818,-0.09333 0.0267,-0.05213 0.0959,-0.129235 0.19865,-0.221135 0.44736,-0.400204 1.08182,-1.033573 1.3478,-1.345553 0.25865,-0.303383 0.31659,-0.360611 0.77435,-0.763105 0.88379,-0.777084 0.90602,-0.869348 0.51386,-2.122151 -0.10485,-0.334792 -0.18791,-0.615402 -0.18291,-0.621802 0.0162,-0.01944 0.44756,0.827253 0.57383,1.126666 0.0918,0.217544 0.12032,0.32803 0.15142,0.582073 0.0275,0.224407 0.0519,0.350371 0.0663,0.345571 0.036,-0.01321 0.26593,-0.768733 0.38943,-1.278837 0.15105,-0.624377 0.10019,-0.846246 -0.37294,-1.634903 -0.17353,-0.289168 -0.23336,-0.399568 -0.26536,-0.486498 -0.0481,-0.131288 0.0547,-0.0366 0.17654,0.162666 0.14793,0.241733 0.27822,0.414349 0.4269,0.564832 0.26119,0.26453 0.49756,0.641056 0.56596,0.901408 0.0382,0.14585 0.0452,0.154538 0.0873,0.109068 0.0514,-0.0556 0.13078,-0.192223 0.18478,-0.31821 0.0429,-0.100008 0.11096,-0.2131 0.22788,-0.379303 0.1695,-0.240966 0.19419,-0.291613 0.33245,-0.677649 0.10658,-0.297925 0.14436,-0.392666 0.17166,-0.432526 0.0814,-0.118882 0.25411,-0.714577 0.26911,-0.929144 0.0197,-0.278793 -0.0757,-0.7546 -0.26873,-1.339931 -0.13915,-0.422056 -0.18816,-0.59473 -0.18816,-0.66453 0,-0.06932 0.0294,-0.03495 0.0663,0.07758 0.0299,0.09061 0.0546,0.12062 0.0727,0.08733 0.0269,-0.04948 0.0229,-0.19059 -0.0146,-0.501865 -0.01,-0.07733 -0.0166,-0.14133 -0.0161,-0.142051 6e-4,-7.9e-4 0.0228,0.03613 0.0491,0.08208 0.094,0.1645 0.13396,0.209773 0.22526,0.255243 0.14103,0.07043 0.30181,0.02166 0.31521,-0.0952 0.009,-0.08437 -0.0501,-0.0946 -0.16416,-0.02848 -0.0844,0.04883 -0.0934,0.05101 -0.12631,0.03036 -0.10098,-0.06349 -0.16646,-0.338769 -0.12256,-0.515732 0.0277,-0.111615 0.0476,-0.166668 0.075,-0.206518 0.0333,-0.04833 0.0825,-0.152176 0.21401,-0.450517 0.10038,-0.227806 0.20097,-0.428094 0.30097,-0.59894 0.0752,-0.128456 0.15038,-0.263171 0.18178,-0.326081 0.225,-0.450499 0.37492,-0.940396 0.31221,-1.017972 -0.006,-0.0067 -0.0153,-0.0098 -0.0274,-0.009 z m 0.0274,0.009 c 1.5e-4,1.65e-4 6.1e-4,-1.71e-4 7.5e-4,0 l -7.5e-4,-7.5e-4 c 1.2e-4,1.39e-4 -1.1e-4,6.08e-4 0,7.5e-4 z M 204.6229,39.569848 c 0.24606,-0.0093 0.46999,0.05413 0.65178,0.203894 0.41146,0.353499 0.51097,2.18046 0.0349,3.053168 -0.79187,1.422282 -1.45324,1.178982 -2.46135,0.343697 -0.84443,-0.741354 -0.86234,-1.317183 -0.51423,-1.930999 0.61171,-0.960098 1.55076,-1.641719 2.28894,-1.66976 z m 111.39941,1.037837 c 0.15671,-0.03032 0.3044,-0.032 0.4269,0.0094 0.57184,0.21225 1.00071,0.729795 1.00486,2.903621 0.0392,2.606469 -0.56844,2.693228 -1.47749,2.788181 -0.90913,0.09464 -1.88702,-0.556899 -2.07005,-1.948991 -0.18291,-1.391548 0.51982,-2.663135 0.89954,-3.099644 0.19506,-0.213353 0.74612,-0.561575 1.21624,-0.652537 z m -183.25906,1.639401 c 1.07119,-0.02133 2.51761,2.046904 2.53856,3.844008 l 0.001,0.09033 c -2.4e-4,2.05418 -1.13943,3.920689 -2.14051,3.73419 -1.00112,0.01245 -1.48869,-1.636184 -1.50072,-3.690338 -0.0699,-2.070432 -0.31312,-2.926014 0.67052,-3.833889 0.13246,-0.09521 0.278,-0.141253 0.43103,-0.1443 z m 15.02821,0.342572 c 1.32958,-9e-5 2.40745,1.616502 2.40738,3.61088 7e-5,1.994378 -0.28408,3.743533 -2.67199,2.685109 -2.85053,-1.323716 -2.00921,-2.278772 -2.0753,-3.544914 -5e-5,-1.993748 1.01074,-2.750272 2.33991,-2.751075 z m -58.772548,0.549091 c 1.329585,-8.8e-5 2.407433,1.616877 2.407377,3.611254 5.6e-5,1.994378 -0.09557,3.306938 -2.407377,2.488336 -2.498468,-0.889472 -2.359837,-1.289928 -2.359778,-3.283674 -5.9e-5,-1.993748 1.030613,-2.815113 2.359778,-2.815916 z m 196.562048,2.56742 c 0.52239,-4.91e-4 1.1445,1.288565 1.14465,2.124399 -1.5e-4,0.835832 -0.72159,1.000473 -1.24398,0.999982 -0.52197,-4.61e-4 -1.24271,-0.197807 -1.24285,-1.032965 1.4e-4,-0.835159 0.82021,-2.090955 1.34218,-2.091416 z M 113.9896,46.865818 v 0.473005 c 1e-5,0.410241 0.79039,0.9271 1.55544,3.152867 1.31743,3.832799 3.72499,7.967638 6.24165,10.718697 0.68016,0.74351 1.29863,1.303497 1.68243,1.696402 -0.47975,1.445931 -1.97352,4.63874 -4.8353,7.914743 -0.77873,0.891447 -0.57535,0.630762 -1.61889,1.70056 -5.34199,-0.191901 -23.644291,-6.393881 -30.184135,-13.345777 -1.206866,-1.282905 -1.886238,-2.117274 -2.536949,-3.048447 -1.140871,-1.632598 -1.859723,-1.796095 5.132105,-1.143381 2.822885,0.263527 5.227686,0.493675 5.699297,-0.467758 0.507127,-1.033834 0.62841,-1.691211 0.787425,-1.696512 0.132455,-0.0044 0.449508,1.414825 0.530393,1.618927 0.648768,1.637071 7.628314,1.352484 9.464974,0.413786 0.9363,-0.478535 1.44338,-1.058589 1.59203,-1.04354 0.23694,0.02399 -0.0805,0.534641 0.8978,1.09189 2.94557,1.677824 4.89087,-0.44155 4.57676,-1.919381 -0.56338,-2.650564 -0.53052,-3.647871 0.15442,-4.746166 0.35745,-0.57312 0.86055,-1.61606 0.86055,-1.369915 z m 91.49767,18.66119 c -11.05147,0.924896 -22.12154,1.847455 -33.1782,2.808996 -2.57603,0.224023 -5.1536,0.434429 -7.72911,0.664374 -0.52293,0.04655 -2.32943,0.03493 -2.54019,0.417186 -0.18503,0.335526 1.86722,0.667348 2.26747,0.766395 l 5.50381,1.361866 c 0.5526,0.136735 1.74328,0.277693 1.97596,0.626836 0.38382,0.57595 -0.0131,1.715395 -0.10695,2.356775 -0.19701,1.347151 -0.14461,2.692064 -0.2851,4.037948 -0.0431,0.41234 -0.57874,1.963777 0.15521,2.145365 0.50736,0.125554 1.35743,-0.293254 1.79824,-0.448145 1.50252,-0.527979 3.00028,-1.061179 4.49734,-1.595061 1.25377,-0.447094 2.86459,-0.845567 3.9059,-1.461254 -1.50105,-0.865836 -3.70306,-1.897481 -5.64202,-2.423189 l -3.68702,4.223304 -0.12505,-0.03106 0.45369,-4.743247 0.25925,-1.990074 1.97934,-0.532188 6.08436,-1.219635 24.02885,-4.87364 -6.63443,2.093363 -13.36851,4.162077 -5.34705,1.66491 -2.61577,0.940109 c 2.98333,1.029197 5.75789,2.468048 8.46726,3.717105 0.73032,0.336687 2.2629,1.333802 3.29987,1.259187 0.64219,-0.04609 0.97067,-0.432997 1.30659,-0.714176 0.94413,-0.790301 1.86919,-1.591653 2.78608,-2.391981 3.00459,-2.622544 6.12702,-5.204648 9.1487,-7.820718 0.78374,-0.678537 1.59384,-1.347881 2.37737,-2.026227 0.33904,-0.293523 0.91742,-0.635779 0.96414,-0.975303 z"
     transform="matrix(1.5230136,0,0,1.5230136,-3.1383499,-4.7207149)"
     inkscape:export-filename="rockpommelsband.png"
     inkscape:export-xdpi="96"
     inkscape:export-ydpi="96" /></svg>
