<?xml version="1.0" encoding="UTF-8" standalone="no"?>
<!-- Created with Inkscape (http://www.inkscape.org/) -->

<svg
   width="540.48889mm"
   height="124.99288mm"
   viewBox="0 0 540.48889 124.99288"
   version="1.1"
   id="svg1"
   xml:space="preserve"
   xmlns:xlink="http://www.w3.org/1999/xlink"
   xmlns="http://www.w3.org/2000/svg"
   xmlns:svg="http://www.w3.org/2000/svg"><defs
     id="defs1"><linearGradient
       id="linearGradient6-1"><stop
         style="stop-color:#ff0000;stop-opacity:1;"
         offset="0"
         id="stop7" /><stop
         style="stop-color:#b21e57;stop-opacity:1;"
         offset="0.50204921"
         id="stop11" /><stop
         style="stop-color:#5947b7;stop-opacity:1;"
         offset="1"
         id="stop8" /></linearGradient><linearGradient
       xlink:href="#linearGradient6-1"
       id="linearGradient20"
       x1="2.2748537"
       y1="41.491833"
       x2="338.16818"
       y2="41.491833"
       gradientUnits="userSpaceOnUse" /></defs><g
     id="layer1"
     transform="matrix(1.6080853,0,0,1.6080853,-3.3136434,-4.9844045)"><g
       id="g3"><path
         id="path1"
         style="fill:url(#linearGradient20);fill-opacity:1;stroke-width:2.07601"
         d="M 76.710623,3.100487 C 75.00502,3.108587 73.309884,3.170053 71.635002,3.2871403 45.508633,4.7369716 24.863576,14.737209 7.8910256,33.037353 0.07895858,41.46048 -0.03546403,42.732823 8.4734738,36.187971 34.33591,16.295264 52.857747,13.465419 59.901706,12.511112 c 6.533761,-0.885186 4.741367,-1.744407 2.1229,2.011583 -7.416764,10.638779 -10.680745,21.998259 -13.747878,35.800703 -1.363942,6.137899 -5.098028,11.242269 -10.915845,14.922894 -1.295315,0.819478 -2.060397,1.350143 -1.689624,1.950115 0.95361,1.543101 10.173839,-0.666029 19.238033,-0.807332 9.064188,-0.141271 14.602519,0.524322 15.542448,0.669028 3.361155,0.518665 4.240458,-0.643244 1.640151,-2.167127 C 53.402735,53.938459 62.71791,8.8137238 83.361927,10.295634 c 16.585347,1.190563 5.605409,21.261287 -15.671756,28.647534 -4.964639,1.723448 -5.004882,2.453136 -0.468882,8.472861 9.681186,12.847901 28.412761,24.223361 45.017181,27.338337 0.90146,0.169113 1.31188,0.246028 1.99553,0.380057 -0.35982,0.385998 -1.20975,1.200059 -2.16159,2.160377 -1.304,1.315611 -1.24998,2.113639 -1.24998,2.274322 0,0.766504 1.1106,-0.154277 3.35227,-1.973727 1.37624,-1.117018 2.39735,-1.63181 3.0145,-2.072742 1.2888,0.158757 3.99671,0.607261 8.65058,1.03303 15.28816,1.398669 38.36238,1.028265 38.04916,-0.610559 -0.0891,-0.466582 -0.90534,-0.565511 -6.04,-0.735744 -10.59155,-0.0023 -22.2295,0.107105 -37.31163,-2.212788 0.67165,-0.521195 3.53438,-2.97489 4.16717,-3.623313 1.18113,-1.210311 2.69517,-3.073756 3.25748,-3.767754 0.49446,0.188014 1.57823,0.624283 2.84999,1.06203 6.04391,2.080349 8.08298,1.056276 3.06104,-1.537453 -2.13415,-1.102245 -3.76996,-2.317517 -4.57259,-3.27873 0.39759,-1.485878 1.08436,-4.429323 1.3249,-6.115778 0.2372,-1.663053 0.37127,-1.811417 2.57604,-0.913027 2.84856,1.160735 5.96736,1.225069 6.86906,-0.157419 0.92206,-1.413714 0.59221,-3.519724 0.91059,-4.037812 0.49374,0.70745 0.3007,3.630947 1.6046,4.003954 0.94872,0.271402 10.20563,0.06075 11.08577,-0.56283 0.59629,-0.593684 1.01851,-1.77656 1.11025,-3.167426 0.0516,1.323019 0.21477,2.664372 0.54002,3.083846 0.69853,0.900881 3.26644,0.607429 4.44894,0.157793 0.70958,-0.269781 0.8324,-0.575638 1.03072,-2.558799 0.12383,-1.238328 0.37714,-2.733463 0.56221,-3.323404 0.5896,-1.879387 1.06954,-3.832103 3.38112,1.610541 0.98486,2.31889 1.68878,2.489551 2.56255,-1.305449 0.66304,-2.879809 1.08744,-2.442013 1.83317,-1.520962 0.72694,0.897726 1.08562,3.186852 1.08769,4.737546 0.002,1.165431 0.76676,2.33579 1.52658,2.33579 0.23797,0 0.92272,0.353149 1.6083,0.561084 1.17905,0.357603 1.23212,0.309053 2.12515,0 0.57296,-0.19828 1.38676,-0.561084 1.92162,-0.561084 1.58235,0 3.04073,-0.653818 3.20122,-1.435506 0.0802,-0.390284 0.24152,-1.600485 0.35944,-2.689607 0.57305,-5.288607 1.64845,-7.29116 3.2863,-2.207606 1.31684,4.087268 1.89905,3.620063 3.2683,-0.61843 1.48738,-4.604143 3.40556,-1.150875 3.27206,4.265665 -0.0575,2.331217 3.32002,3.343243 5.42119,1.624409 0.1046,-0.08556 0.49188,-0.451264 0.47397,-1.909977 0.34405,1.085554 0.36282,1.792243 1.46378,2.421212 1.84112,1.051814 5.37219,0.679572 8.63252,-0.722626 3.53982,-1.522388 2.64107,-1.788236 3.26981,-0.122187 0.35064,0.929174 0.80101,0.843688 3.75068,0.864677 5.53627,0.0394 5.89247,-0.292844 4.88747,-4.556139 -0.51392,-2.180423 -0.72496,-3.587628 -0.83572,-4.164329 0.46165,1.090898 1.29175,1.60535 2.45676,1.660251 1.56979,0 2.27641,0.47673 2.72633,1.839922 1.48603,4.502759 -6.34768,10.011446 -16.86588,11.86073 -5.66621,0.996219 -4.03342,3.021773 2.17162,2.694105 15.81422,-0.835098 30.05287,-13.295103 21.69639,-18.98579 -3.73867,-2.54597 -3.73338,-3.218624 0.03,-3.570025 2.59194,-0.242042 2.97597,-0.755398 1.63378,-2.185493 -3.68345,-3.924757 -11.4738,-2.138071 -13.60042,3.123023 -0.34341,0.849573 -0.43008,2.303012 -0.32432,3.112191 -0.25758,-0.992264 -0.52069,-3.689577 -0.50866,-8.054521 0.0182,-6.619426 0.88591,-11.096278 2.80205,-14.445392 1.22549,-2.141932 1.33251,-3.632451 0.235,-3.284048 -0.40841,0.129648 -1.78252,0.454071 -3.05317,0.720002 -10.05642,2.10469 -10.26151,2.273202 -7.26711,5.984149 3.8909,4.821934 3.4611,17.479677 -1.2541,21.022859 -1.16744,0.877261 -4.62807,2.406347 -4.85048,2.131405 1.16587,-0.717309 3.38775,-2.289571 4.54989,-3.855512 2.57777,-3.160264 1.9703,-8.376184 -2.26008,-8.290704 -4.20537,0.08497 -6.25987,0.36714 -8.35517,6.010011 -0.77292,2.081555 -0.99773,3.851646 -1.26662,6.443959 -0.3376,-1.391486 -1.05871,-5.162258 -1.72021,-6.879858 -2.17527,-5.648158 -4.86502,-7.652523 -6.97326,-4.137482 -1.68879,2.815729 -2.37257,2.198977 -3.77205,-0.165289 -1.4192,-2.397587 -2.96334,-1.674092 -4.24917,-0.0506 -1.02387,1.292734 -3.4275,6.077808 -3.84101,7.390421 -1.67102,5.304005 -0.96706,1.471427 -2.16675,-2.787056 -1.74683,-6.20071 -5.13396,-7.670476 -7.03886,-3.926466 -1.09291,2.148066 -2.04526,1.711117 -2.70122,0 -1.52935,-3.98943 -4.71051,-1.942719 -7.29522,4.32451 -0.5307,1.286804 -1.7024,5.277766 -1.87608,6.125854 -0.31945,-1.017706 -0.49743,-1.703065 -0.87462,-3.814801 -2.06052,-11.536115 -10.98623,-10.233972 -12.18569,-1.191883 -0.15498,1.168286 -0.5805,3.520503 -0.75598,3.520503 -0.18614,0 -0.64448,-2.234647 -0.89204,-3.06249 -1.68623,-5.638858 -4.12416,-7.978801 -7.25737,-6.966891 -1.48817,0.480624 -1.73711,0.485199 -2.24996,0.0461 -0.42868,-0.367004 -1.29748,-0.477299 -3.38262,-0.430277 -3.25108,0.07333 -3.42406,0.454413 -1.95461,4.289278 1.30282,3.400054 0.37866,14.242058 -0.37212,16.752401 -0.70691,0 -3.89944,-6.632435 -5.39952,-11.534354 -0.71717,-2.343576 -0.69935,-2.435794 0.78747,-4.089506 1.29503,-1.440381 1.7646,-2.315766 2.11466,-3.941459 0.63244,-2.937087 6.43754,-7.246563 11.34274,-8.420387 3.28272,-0.785561 3.26442,-1.472987 -0.0397,-1.472987 -8.3423,0 -20.71556,6.919498 -16.87414,9.436486 1.54662,1.013392 0.0764,2.961304 -1.64352,2.177622 -2.22328,-1.012996 -1.49572,-10.547826 1.22299,-16.019201 0.84789,-1.706401 0.66135,-1.772872 -2.1319,-0.754109 -5.18889,1.892495 -5.16616,1.851006 -5.16969,9.701474 -0.001,2.455618 -0.32551,9.643485 -0.72479,11.724369 -0.26854,1.399563 -0.19396,0.918101 -0.48235,2.281414 -0.76815,-0.555692 -2.09119,-0.609912 -2.46837,0.108931 -0.97048,1.849557 -1.69023,2.537044 -3.21005,2.145862 -3.707339,-0.95422 -1.0936,-6.474441 2.57117,-7.36381 2.19116,-0.531752 2.05671,-2.292588 -0.12594,-3.788163 -2.70052,-1.850427 -6.805019,1.293785 -7.613052,4.258169 -0.508711,1.866276 -0.638505,6.824916 -1.401027,6.822525 -0.618926,-0.0019 -0.381813,-4.694495 -1.201251,-6.348394 -4.299035,-8.676886 -12.956645,-5.468523 -12.366343,5.995768 0.04866,0.945029 0.05524,1.894475 0.331066,3.703434 0.170754,1.119885 -0.212616,0.602676 -0.410589,0.313973 -0.344106,-0.501808 -2.043748,-3.198564 -2.665553,-6.769231 -1.110969,-6.379659 -0.28669,-8.163778 4.485301,-9.70897 7.466392,-2.417683 21.495208,-8.482189 24.256308,-10.486692 11.42259,-8.29284 11.86477,-11.074516 2.47672,-15.590799 C 101.09924,5.6180027 88.649846,3.0444139 76.710623,3.100487 Z M 277.32994,4.7687477 c -6.524,0.0013 -13.51534,0.7575823 -20.05511,2.3429113 -7.13748,1.7302199 -9.02943,1.9092808 -20.87256,1.9782251 -14.26661,0.08304 -17.78333,0.3918481 -22.27809,1.9546129 -4.83804,1.682126 -5.56346,2.474398 -1.48348,1.619161 19.84558,-4.1599814 36.05031,2.137978 35.01099,13.607325 -1.23962,13.679536 -16.07524,31.191752 -31.7112,37.432608 -1.89179,0.755085 -3.00983,1.387366 -3.0779,1.740973 -0.13059,0.6778 1.60926,0.77572 5.89419,1.012725 13.78068,-0.279331 23.88461,-3.784124 51.57141,0.03748 9.33427,1.288408 17.13048,-1.377834 17.25756,-5.181691 0.0821,-2.458225 -1.59756,-3.646122 -3.23645,-5.427188 -1.62923,-1.77056 0.005,0.006 -2.35115,-2.433239 2.30533,-0.439173 8.50379,-0.151823 8.95636,0.127808 0.70793,0.437523 2.04054,-0.05144 2.02432,-1.184386 -0.0632,-4.414095 -0.5399,-8.7332 -1.0361,-9.920524 1.04137,-1.017707 1.88043,-0.118685 2.26292,0.296054 0.49938,0.541492 -1.59569,6.386325 -0.29168,10.43555 0.34649,1.075912 2.53105,0.908478 3.65172,0.168251 1.12068,-0.740228 1.17416,-2.655647 1.66228,-4.963892 1.49418,-7.065661 3.19232,-6.701684 4.30202,0.921648 0.55806,3.833723 3.34157,6.343155 4.69509,2.667125 0.15799,-0.429108 0.34915,-1.208944 0.26161,-2.64088 -0.0828,-1.354337 -0.13959,-1.628774 -0.009,-1.629917 0.10916,0.490692 0.38944,2.504761 2.70702,4.779402 2.33269,2.289506 16.35194,0.807907 17.96595,-0.708383 2.72012,-2.555406 0.75856,-5.277735 -2.37215,-3.292295 -4.03609,2.559609 -5.53803,-0.389698 -5.5505,-10.891108 -0.01,-9.308448 1.17179,-10.722345 12.69955,-15.17064 4.91328,-1.895909 4.55131,-1.704591 3.79566,-2.002963 -0.36304,-0.143306 -1.69969,-0.200968 -2.97034,-0.128558 -19.67196,1.121077 -21.98794,2.06241 -19.28488,7.838689 1.71832,3.671774 1.722,5.907296 0.008,5.633332 -1.72815,-0.276344 -4.69118,2.153868 -6.55536,5.758892 -0.67466,1.304693 -0.45125,0.875413 -0.6952,1.502999 -0.11897,-0.302402 -0.21851,-0.943527 -1.04689,-2.32345 -2.13254,-3.552406 -3.74806,-3.846491 -6.51263,-2.226346 -1.47247,0.862929 -1.47257,1.445818 -2.71434,0.165289 -1.74909,-1.803686 -5.65758,-1.652454 -6.69975,1.747366 -0.4827,1.574696 -0.17965,0.446305 -0.32221,1.158699 -0.12392,-0.508853 -0.35303,-0.920855 -1.15868,-1.914732 -1.36511,-1.684039 -4.24704,-2.965955 -7.83294,-1.246576 -3.84176,1.842068 -4.09645,3.052368 -0.7811,3.702332 3.56504,0.698919 3.74979,1.309056 1.23161,4.059522 -1.4714,1.607135 -4.0229,4.596173 -2.35265,7.802333 -1.59039,-1.530044 -4.94353,-4.180742 -6.60633,-5.411072 -5.98132,-4.425653 -4.51961,-7.423568 4.585,-12.218295 18.84464,-9.923872 28.2905,-19.31227 23.77918,-23.634881 -4.01498,-3.8473024 -13.58947,-5.9424752 -24.46283,-5.9402973 z m -2.78293,6.3016103 c 4.91106,0.437442 8.12857,5.218934 5.15283,12.033891 -3.24584,7.433596 -14.9756,13.353178 -16.89475,14.007618 -14.32649,4.885407 -10.28095,5.011561 -2.4576,9.006209 9.77999,4.993706 11.57568,8.522459 5.78025,9.935353 -24.66361,6.012857 -16.77521,-24.260593 -1.27883,-40.580227 3.19498,-3.364709 6.75148,-4.665313 9.6981,-4.402844 z m -40.39433,3.761926 c -0.037,0.0023 -0.0952,0.03616 -0.12855,0.08058 -0.0965,0.128486 -0.29435,0.489689 -0.54497,0.994735 -0.40632,0.818852 -0.46071,0.898139 -0.72113,1.054704 -0.29942,0.180002 -0.66261,0.163558 -0.78522,-0.03561 -0.0583,-0.09478 -0.11803,-0.06243 -0.0873,0.04723 0.0625,0.223163 0.1802,0.338849 0.41416,0.407039 0.13058,0.03795 0.17673,0.07469 0.13493,0.107194 -0.0813,0.06311 -0.25441,0.01292 -0.56033,-0.162665 -0.24163,-0.13864 -0.40496,-0.18156 -0.55284,-0.14505 -0.0757,0.0188 -0.0841,0.03494 -0.0967,0.170536 -0.01,0.108541 -0.0316,0.131299 -0.14205,0.147299 -0.10231,0.01488 -0.1695,0.0421 -0.1919,0.07796 -0.0401,0.06372 0.0421,0.085 0.19827,0.04947 0.13995,-0.0317 0.25939,-0.01215 0.41154,0.06821 0.13293,0.07019 0.26834,0.126526 0.46026,0.191526 0.27194,0.09206 0.33341,0.1265 0.27211,0.15292 -0.0877,0.03793 -0.3605,2.64e-4 -0.6859,-0.09483 -0.45776,-0.133723 -0.89291,-0.09848 -0.94001,0.07571 -0.0171,0.06355 -0.0419,0.08103 -0.11956,0.08583 -0.13381,0.0085 -0.37574,0.134454 -0.41154,0.214014 -0.0213,0.04754 0.0592,0.07015 0.1443,0.04085 0.18142,-0.0624 1.29092,0.207645 1.18739,0.288975 -0.0247,0.01936 -0.13778,0.0092 -0.31634,-0.02811 -0.55494,-0.115968 -0.99316,-0.03703 -1.31369,0.236502 -0.0655,0.05593 -0.24286,0.273602 -0.23276,0.284852 0.003,0.004 0.22871,-0.04578 0.41341,-0.09108 0.20715,-0.0509 0.39306,-0.04392 0.8212,0.03148 0.299,0.05267 0.48344,0.07531 0.65066,0.08171 0.20232,0.0072 0.18363,0.02903 -0.12331,0.143176 -0.43838,0.162805 -1.00714,0.166092 -1.5337,0.0082 -0.21109,-0.06277 -0.27436,-0.0752 -0.27436,-0.05022 0,0.0144 -0.0185,0.01774 -0.0615,0.0097 -0.23175,-0.04239 -0.2463,0.0767 -0.0405,0.330578 0.23243,0.286717 0.50808,0.402841 1.09519,0.461761 0.41899,0.04211 0.50433,0.06315 0.41003,0.100448 -0.48849,0.193354 -1.05592,0.0084 -1.6855,-0.549465 -0.079,-0.07022 -0.12181,-0.0926 -0.12781,-0.06971 -0.0315,0.09828 0.49603,0.546065 0.78147,0.663406 0.13379,0.05491 0.19888,0.09963 0.18628,0.127809 -0.0257,0.0575 -0.26102,-0.03564 -0.51948,-0.205394 -0.12258,-0.08049 -0.18578,-0.132032 -0.31259,-0.255617 -0.16605,-0.161593 -0.24312,-0.214798 -0.25712,-0.177658 -0.0407,0.106939 0.41177,0.494572 0.80546,0.690392 0.18733,0.0933 0.26978,0.152617 0.23688,0.170537 -0.0796,0.04345 -0.33206,-0.08085 -0.72975,-0.359439 -0.22193,-0.155434 -0.29477,-0.204528 -0.39167,-0.264238 -0.21505,-0.132394 -0.22386,-0.131684 -0.26536,0.02024 -0.042,0.154133 -0.0283,0.181148 0.16791,0.325707 0.13623,0.100439 0.19045,0.153973 0.29385,0.290849 0.15408,0.204 0.58814,0.486201 0.85643,0.556961 0.12614,0.03313 0.15957,0.05161 0.14617,0.08058 -0.0394,0.08638 -0.38009,0.0282 -0.98011,-0.167539 -0.46904,-0.153089 -0.95034,-0.115837 -1.07232,0.08283 -0.0424,0.06901 -0.0806,0.105437 -0.12706,0.121437 -0.0811,0.02754 -0.0446,0.05125 0.17991,0.116564 0.30785,0.08957 0.36192,0.106731 0.50411,0.162291 0.15959,0.06227 0.28642,0.123501 0.43815,0.211391 0.23908,0.138441 0.39512,0.205461 0.55621,0.238751 0.20848,0.04322 0.19782,0.09221 -0.0277,0.127434 -0.2301,0.03592 -0.47588,-0.03268 -0.8583,-0.239501 -0.50271,-0.2719 -1.28769,-0.254343 -1.27509,0.02848 0.005,0.109336 0.0276,0.126501 0.1458,0.104571 0.0411,-0.0077 0.0906,-1.7e-4 0.19827,0.02961 0.15346,0.04236 0.28749,0.09234 0.73425,0.273608 0.37699,0.152968 0.56299,0.209113 0.70426,0.215513 0.1014,0.004 0.11584,0.02014 0.0513,0.0581 -0.15046,0.08854 -0.53623,0.01044 -0.83506,-0.169037 -0.30325,-0.182132 -1.01732,-0.357303 -1.27472,-0.312963 -0.18934,0.03264 -0.3911,0.240402 -0.3362,0.346695 0.0167,0.03249 0.0653,0.07178 0.0896,0.07234 0.0478,0.0011 0.18897,0.120421 0.4835,0.408163 0.0584,0.05696 0.14585,0.141453 0.19415,0.187403 0.11704,0.11159 0.10041,0.121565 -0.12556,0.07834 -0.34329,-0.0658 -0.71752,-0.04362 -0.97037,0.05772 -0.12177,0.04878 -0.25588,0.179677 -0.34108,0.333202 -0.0305,0.05415 -0.0291,0.0596 0.0101,0.0431 0.0973,-0.04101 0.59672,0.04204 1.03409,0.172036 0.29425,0.08744 0.69086,0.255165 0.65966,0.278855 -0.0159,0.01217 -0.17244,0.0014 -0.39242,-0.02699 -0.41936,-0.05412 -0.60795,-0.05883 -0.96288,-0.02361 -1.22145,0.121091 -1.4129,0.324282 -0.59931,0.63567 0.23244,0.08903 0.35381,0.148136 0.35381,0.172786 0,0.02288 -0.0675,0.02676 -0.11731,0.0067 -0.11879,-0.04766 -0.66925,0.04098 -0.9685,0.155919 -0.18613,0.07151 -0.28274,0.183648 -0.30134,0.350444 -0.0109,0.09813 -0.0231,0.109544 -0.10307,0.107944 -0.15824,-0.0042 -0.46062,0.167033 -0.45052,0.255243 0.004,0.03459 -0.0116,0.04875 -0.0813,0.07421 -0.0632,0.02305 -0.0653,0.03118 -0.0184,0.06447 0.0971,0.06884 -0.0318,0.124633 -0.16716,0.07196 -0.0461,-0.01765 -0.0957,-0.02249 -0.10832,-0.01124 -0.0289,0.02869 0.0477,0.08571 0.23463,0.175035 0.32744,0.156474 0.43176,0.275738 0.22226,0.254118 -0.3466,-0.03581 -0.7581,0.158332 -0.90928,0.429153 -0.045,0.08052 -0.0304,0.116693 0.0442,0.108693 0.0629,-0.0066 0.0362,0.01619 -0.17354,0.147299 -0.22902,0.143232 -0.26588,0.184647 -0.27848,0.303593 -0.0136,0.138448 -0.032,0.152645 -0.23913,0.182905 -0.27224,0.03971 -0.38367,0.0635 -0.37967,0.08096 0.002,0.0091 0.10537,0.07001 0.18477,0.109069 0.21441,0.105496 0.21599,0.130303 0.009,0.138303 -0.11884,0.0046 -0.14618,0.0091 -0.17428,0.02811 -0.064,0.04345 -0.0858,0.186314 -0.0375,0.243624 0.0318,0.03762 0.002,0.06549 -0.15816,0.147299 -0.0934,0.04771 -0.12519,0.07462 -0.11919,0.09895 0.008,0.03058 0.0907,0.102578 0.17054,0.148048 0.0853,0.04819 0.0893,0.05149 0.0933,0.06109 0.006,0.01426 -0.004,0.03595 -0.0285,0.0566 -0.038,0.03281 -0.0276,0.04535 0.0491,0.0566 0.0842,0.01281 0.13137,0.02987 0.15517,0.05659 0.0215,0.02434 0.0114,0.03248 -0.0536,0.04048 -0.14508,0.01889 0.0321,0.104726 0.37518,0.181406 0.19963,0.04467 0.29843,0.0745 0.32083,0.09708 0.0614,0.062 0.41373,0.09143 0.60119,0.0506 0.1054,-0.02306 0.1833,-0.0095 0.2009,0.03486 0.048,0.120707 0.53973,-0.202522 0.74174,-0.487623 0.21425,-0.302359 0.3373,-0.591645 0.44677,-1.049081 0.0642,-0.268611 0.0974,-0.361123 0.11506,-0.321583 0.0189,0.04242 -0.0227,0.340379 -0.0731,0.522479 -0.11166,0.403695 -0.3334,0.807201 -0.61019,1.1098 -0.19928,0.217884 -0.16866,0.253103 0.0971,0.112067 0.68042,-0.361271 0.85824,-0.673328 0.95987,-1.685502 0.0824,-0.819412 0.15181,-0.705856 0.0907,0.148423 -0.0479,0.670033 -0.12534,1.039123 -0.24138,1.151029 -0.0964,0.09253 -0.01,0.146875 0.13868,0.0862 0.42929,-0.175233 0.58719,-0.565005 0.54309,-1.34068 -0.0344,-0.60531 0.009,-0.825212 0.2069,-1.04346 0.0428,-0.04723 0.31371,-0.31129 0.31671,-0.30809 9e-4,9.6e-4 -0.0251,0.06956 -0.0573,0.152171 -0.0939,0.240901 -0.11754,0.308719 -0.15254,0.431027 -0.16097,0.562343 -0.17434,1.179081 -0.0337,1.564814 0.0776,0.212933 0.12624,0.140164 0.16454,-0.245872 0.0401,-0.403712 0.0866,-0.459276 0.11732,-0.139803 0.0206,0.214858 0.0275,0.232783 0.0915,0.226383 0.10494,-0.01007 0.12874,-0.07546 0.16904,-0.462136 0.0703,-0.674852 0.21069,-1.404265 0.26499,-1.379285 0.0285,0.01279 0.034,0.07813 0.0202,0.208767 -0.0412,0.39028 0.0575,1.2776 0.14693,1.32194 0.0397,0.0197 0.0885,-0.01585 0.12818,-0.09333 0.0267,-0.05213 0.0959,-0.129235 0.19865,-0.221135 0.44736,-0.400204 1.08182,-1.033573 1.3478,-1.345553 0.25865,-0.303383 0.31659,-0.360611 0.77435,-0.763105 0.88379,-0.777084 0.90602,-0.869348 0.51386,-2.122151 -0.10485,-0.334792 -0.18791,-0.615402 -0.18291,-0.621802 0.0162,-0.01944 0.44756,0.827253 0.57383,1.126666 0.0918,0.217544 0.12032,0.32803 0.15142,0.582073 0.0275,0.224407 0.0519,0.350371 0.0663,0.345571 0.036,-0.01321 0.26593,-0.768733 0.38943,-1.278837 0.15105,-0.624377 0.10019,-0.846246 -0.37294,-1.634903 -0.17353,-0.289168 -0.23336,-0.399568 -0.26536,-0.486498 -0.0481,-0.131288 0.0547,-0.0366 0.17654,0.162666 0.14793,0.241733 0.27822,0.414349 0.4269,0.564832 0.26119,0.26453 0.49756,0.641056 0.56596,0.901408 0.0382,0.14585 0.0452,0.154538 0.0873,0.109068 0.0514,-0.0556 0.13078,-0.192223 0.18478,-0.31821 0.0429,-0.100008 0.11096,-0.2131 0.22788,-0.379303 0.1695,-0.240966 0.19419,-0.291613 0.33245,-0.677649 0.10658,-0.297925 0.14436,-0.392666 0.17166,-0.432526 0.0814,-0.118882 0.25411,-0.714577 0.26911,-0.929144 0.0197,-0.278793 -0.0757,-0.7546 -0.26873,-1.339931 -0.13915,-0.422056 -0.18816,-0.59473 -0.18816,-0.66453 0,-0.06932 0.0294,-0.03495 0.0663,0.07758 0.0299,0.09061 0.0546,0.12062 0.0727,0.08733 0.0269,-0.04948 0.0229,-0.19059 -0.0146,-0.501865 -0.01,-0.07733 -0.0166,-0.14133 -0.0161,-0.142051 6e-4,-7.9e-4 0.0228,0.03613 0.0491,0.08208 0.094,0.1645 0.13396,0.209773 0.22526,0.255243 0.14103,0.07043 0.30181,0.02166 0.31521,-0.0952 0.009,-0.08437 -0.0501,-0.0946 -0.16416,-0.02848 -0.0844,0.04883 -0.0934,0.05101 -0.12631,0.03036 -0.10098,-0.06349 -0.16646,-0.338769 -0.12256,-0.515732 0.0277,-0.111615 0.0476,-0.166668 0.075,-0.206518 0.0333,-0.04833 0.0825,-0.152176 0.21401,-0.450517 0.10038,-0.227806 0.20097,-0.428094 0.30097,-0.59894 0.0752,-0.128456 0.15038,-0.263171 0.18178,-0.326081 0.225,-0.450499 0.37492,-0.940396 0.31221,-1.017972 -0.006,-0.0067 -0.0153,-0.0098 -0.0274,-0.009 z m 0.0274,0.009 c 1.5e-4,1.65e-4 6.1e-4,-1.71e-4 7.5e-4,0 l -7.5e-4,-7.5e-4 c 1.2e-4,1.39e-4 -1.1e-4,6.08e-4 0,7.5e-4 z M 204.6229,39.569848 c 0.24606,-0.0093 0.46999,0.05413 0.65178,0.203894 0.41146,0.353499 0.51097,2.18046 0.0349,3.053168 -0.79187,1.422282 -1.45324,1.178982 -2.46135,0.343697 -0.84443,-0.741354 -0.86234,-1.317183 -0.51423,-1.930999 0.61171,-0.960098 1.55076,-1.641719 2.28894,-1.66976 z m 111.39941,1.037837 c 0.15671,-0.03032 0.3044,-0.032 0.4269,0.0094 0.57184,0.21225 1.00071,0.729795 1.00486,2.903621 0.0392,2.606469 -0.56844,2.693228 -1.47749,2.788181 -0.90913,0.09464 -1.88702,-0.556899 -2.07005,-1.948991 -0.18291,-1.391548 0.51982,-2.663135 0.89954,-3.099644 0.19506,-0.213353 0.74612,-0.561575 1.21624,-0.652537 z m -183.25906,1.639401 c 1.07119,-0.02133 2.51761,2.046904 2.53856,3.844008 l 0.001,0.09033 c -2.4e-4,2.05418 -1.13943,3.920689 -2.14051,3.73419 -1.00112,0.01245 -1.48869,-1.636184 -1.50072,-3.690338 -0.0699,-2.070432 -0.31312,-2.926014 0.67052,-3.833889 0.13246,-0.09521 0.278,-0.141253 0.43103,-0.1443 z m 15.02821,0.342572 c 1.32958,-9e-5 2.40745,1.616502 2.40738,3.61088 7e-5,1.994378 -0.28408,3.743533 -2.67199,2.685109 -2.85053,-1.323716 -2.00921,-2.278772 -2.0753,-3.544914 -5e-5,-1.993748 1.01074,-2.750272 2.33991,-2.751075 z m -58.772548,0.549091 c 1.329585,-8.8e-5 2.407433,1.616877 2.407377,3.611254 5.6e-5,1.994378 -0.09557,3.306938 -2.407377,2.488336 -2.498468,-0.889472 -2.359837,-1.289928 -2.359778,-3.283674 -5.9e-5,-1.993748 1.030613,-2.815113 2.359778,-2.815916 z m 196.562048,2.56742 c 0.52239,-4.91e-4 1.1445,1.288565 1.14465,2.124399 -1.5e-4,0.835832 -0.72159,1.000473 -1.24398,0.999982 -0.52197,-4.61e-4 -1.24271,-0.197807 -1.24285,-1.032965 1.4e-4,-0.835159 0.82021,-2.090955 1.34218,-2.091416 z M 113.9896,46.865818 v 0.473005 c 1e-5,0.410241 0.79039,0.9271 1.55544,3.152867 1.31743,3.832799 3.72499,7.967638 6.24165,10.718697 0.68016,0.74351 1.29863,1.303497 1.68243,1.696402 -0.47975,1.445931 -1.97352,4.63874 -4.8353,7.914743 -0.77873,0.891447 -0.57535,0.630762 -1.61889,1.70056 -5.34199,-0.191901 -23.644291,-6.393881 -30.184135,-13.345777 -1.206866,-1.282905 -1.886238,-2.117274 -2.536949,-3.048447 -1.140871,-1.632598 -1.859723,-1.796095 5.132105,-1.143381 2.822885,0.263527 5.227686,0.493675 5.699297,-0.467758 0.507127,-1.033834 0.62841,-1.691211 0.787425,-1.696512 0.132455,-0.0044 0.449508,1.414825 0.530393,1.618927 0.648768,1.637071 7.628314,1.352484 9.464974,0.413786 0.9363,-0.478535 1.44338,-1.058589 1.59203,-1.04354 0.23694,0.02399 -0.0805,0.534641 0.8978,1.09189 2.94557,1.677824 4.89087,-0.44155 4.57676,-1.919381 -0.56338,-2.650564 -0.53052,-3.647871 0.15442,-4.746166 0.35745,-0.57312 0.86055,-1.61606 0.86055,-1.369915 z m 88.01228,18.395845 c -0.0784,0 -0.14243,0.01883 -0.14243,0.04198 0,0.02315 -0.16608,0.03603 -0.36918,0.02849 -0.24215,-0.009 -0.3082,-7.98e-4 -0.19228,0.02324 0.14551,0.03021 0.0404,0.06243 -0.59144,0.182906 -2.9961,0.57131 -11.44369,2.445137 -24.04642,5.333861 -0.50211,0.115092 -0.46313,0.104552 -0.92877,0.211016 0.0153,-0.0035 0.0294,-0.01073 0.0382,-0.02324 0.031,-0.04396 0.53974,-0.170909 0.74362,-0.185529 0.0493,-0.0035 0.1242,-0.02514 0.16641,-0.04797 0.0422,-0.02283 0.0925,-0.0277 0.1117,-0.01087 0.0192,0.01683 0.0642,0.0095 0.0997,-0.01612 0.0666,-0.04815 0.73955,-0.211954 0.95313,-0.232005 0.0664,-0.0062 0.15303,-0.02899 0.19228,-0.05022 0.0392,-0.02123 0.0961,-0.02499 0.12631,-0.0086 0.0302,0.01636 0.0701,0.0084 0.0884,-0.01762 0.031,-0.04396 0.53974,-0.170909 0.74362,-0.185529 0.0493,-0.0035 0.1242,-0.02514 0.16641,-0.04797 0.0422,-0.02283 0.0925,-0.0277 0.11169,-0.01087 0.0192,0.01683 0.0642,0.0095 0.0997,-0.01612 0.0666,-0.04815 0.73918,-0.211954 0.95276,-0.232005 0.0664,-0.0062 0.15499,-0.0297 0.1964,-0.0521 0.0414,-0.0224 0.091,-0.02696 0.11019,-0.01012 0.0192,0.01683 0.0638,0.0099 0.0993,-0.01574 0.0666,-0.04815 0.73993,-0.211953 0.95351,-0.232005 0.0664,-0.0062 0.15266,-0.029 0.1919,-0.05022 0.0392,-0.02125 0.0979,-0.02431 0.13043,-0.0067 0.0325,0.01757 0.0592,0.01097 0.0592,-0.01462 0,-0.04086 0.52315,-0.170152 0.7691,-0.190027 0.0493,-0.004 0.12421,-0.02589 0.16642,-0.04872 0.0422,-0.02283 0.0925,-0.0277 0.11169,-0.01087 0.0192,0.01683 0.064,0.0095 0.0997,-0.01649 0.0647,-0.04699 1.1961,-0.312596 1.42576,-0.334701 0.0664,-0.0064 0.15424,-0.0297 0.19565,-0.0521 0.0414,-0.0224 0.091,-0.02732 0.11019,-0.01049 0.0192,0.01683 0.0647,0.0095 0.10045,-0.01649 0.0647,-0.04699 1.19535,-0.312222 1.42501,-0.334327 0.0664,-0.0064 0.15303,-0.02937 0.19228,-0.0506 0.0392,-0.02123 0.0957,-0.02536 0.12593,-0.009 0.0303,0.01636 0.0731,0.0046 0.0948,-0.02624 0.0218,-0.03084 0.0771,-0.043 0.12256,-0.02773 0.0455,0.01526 0.0825,0.0092 0.0825,-0.01274 0,-0.03577 1.01971,-0.274923 1.24173,-0.291224 0.0493,-0.0036 0.12224,-0.02444 0.16229,-0.0461 0.04,-0.02166 0.0979,-0.02573 0.12818,-0.0094 0.0302,0.01636 0.0727,0.0046 0.0944,-0.02624 0.0218,-0.03091 0.0763,-0.04377 0.12069,-0.02886 0.0444,0.01491 0.0971,0.0033 0.11769,-0.02586 0.0206,-0.0292 0.0717,-0.04205 0.11319,-0.02811 0.0415,0.01394 0.0987,0.0053 0.12706,-0.01912 0.0499,-0.04294 2.11464,-0.512904 2.3579,-0.536722 0.0664,-0.0065 0.15303,-0.02899 0.19228,-0.05022 0.0393,-0.02123 0.0961,-0.02497 0.12631,-0.0086 0.0302,0.01636 0.0727,0.0042 0.0944,-0.02661 0.0218,-0.03091 0.0759,-0.04377 0.12031,-0.02886 0.0444,0.01491 0.0979,0.0033 0.11844,-0.02586 0.0206,-0.02914 0.074,-0.04077 0.11844,-0.02586 0.0444,0.01491 0.0971,0.0033 0.11769,-0.02586 0.0206,-0.02914 0.074,-0.04078 0.11844,-0.02586 0.0444,0.01491 0.0949,0.0069 0.11244,-0.01799 0.0292,-0.04141 2.62126,-0.616437 2.89912,-0.643167 0.0664,-0.0064 0.15266,-0.029 0.1919,-0.05022 0.0392,-0.02125 0.0964,-0.02573 0.12669,-0.0094 0.0302,0.01636 0.0727,0.005 0.0944,-0.02586 0.0218,-0.03091 0.0759,-0.04452 0.12031,-0.02961 0.0444,0.01491 0.0979,0.0037 0.11844,-0.02549 0.0206,-0.02914 0.0733,-0.04077 0.11769,-0.02586 0.0444,0.01491 0.0979,0.0033 0.11844,-0.02586 0.0206,-0.02914 0.074,-0.04077 0.11844,-0.02586 0.0444,0.01491 0.0971,0.0033 0.11768,-0.02586 0.0206,-0.02914 0.074,-0.04077 0.11844,-0.02586 0.0444,0.01491 0.0979,0.0033 0.11844,-0.02586 0.0206,-0.02914 0.0733,-0.04077 0.11769,-0.02586 0.0444,0.01491 0.0968,0.0043 0.11657,-0.02361 0.0197,-0.02795 0.0675,-0.04684 0.10569,-0.0416 0.0382,0.0052 0.10942,-0.005 0.15817,-0.02324 0.16392,-0.0612 1.08587,-0.238988 1.11355,-0.214763 0.0151,0.01319 0.0599,-1.01e-4 0.10007,-0.02923 0.0402,-0.0292 0.0963,-0.04861 0.12406,-0.0431 0.0278,0.0055 0.0903,-0.0053 0.13905,-0.02399 0.16979,-0.06506 1.61516,-0.339853 1.66002,-0.315586 0.0248,0.01345 0.0618,0.0014 0.0821,-0.02736 0.0351,-0.0497 -0.20528,-0.04174 -0.97412,0.03261 -0.2841,0.02747 -0.64489,0.05983 -1.12179,0.101573 -0.16248,0.01423 -0.42897,0.03787 -0.59145,0.0521 -0.16248,0.01423 -0.42821,0.03749 -0.59069,0.05172 -0.16248,0.01423 -0.42784,0.03749 -0.59032,0.05172 -0.16248,0.01423 -0.42896,0.03749 -0.59144,0.05172 -0.28313,0.02478 -0.41773,0.03597 -1.21138,0.101947 -0.19497,0.0162 -0.47407,0.03949 -0.6203,0.05172 -0.14623,0.01224 -0.42533,0.0359 -0.6203,0.0521 -0.19498,0.0162 -0.48066,0.04001 -0.63492,0.0536 -0.15426,0.01358 -0.40701,0.03511 -0.56146,0.04798 -0.15446,0.01286 -0.4407,0.03748 -0.63567,0.05397 -0.19498,0.01652 -0.48706,0.04056 -0.64954,0.0536 -0.28105,0.02254 -0.46605,0.0376 -1.21137,0.09783 -0.17874,0.01444 -0.47775,0.03785 -0.66454,0.05247 -0.18677,0.01462 -0.49259,0.0396 -0.67952,0.05547 -0.18693,0.01587 -0.47244,0.03981 -0.63492,0.05285 -0.28104,0.02255 -0.46605,0.03722 -1.21137,0.09745 -0.59324,0.04794 -1.03099,0.08124 -1.30995,0.09932 -0.15169,0.0098 -0.35098,0.03116 -0.44302,0.0476 -0.092,0.01644 -0.39356,0.04355 -0.66978,0.05997 -0.49303,0.02931 -0.78402,0.05072 -1.46211,0.108318 -0.18693,0.01587 -0.47282,0.03981 -0.6353,0.05285 -0.28104,0.02254 -0.46605,0.03722 -1.21137,0.09745 -0.17873,0.01444 -0.48455,0.03817 -0.67953,0.05322 -0.19497,0.01505 -0.50079,0.03899 -0.67952,0.05322 -0.17873,0.01423 -0.47081,0.03824 -0.64954,0.05247 -0.17873,0.01423 -0.47118,0.03758 -0.64991,0.0521 -0.30093,0.02446 -0.46944,0.03763 -1.35905,0.10682 -0.17873,0.0139 -0.47118,0.03637 -0.64991,0.0506 -0.17873,0.01423 -0.45782,0.03643 -0.6203,0.04872 -0.54118,0.04096 -1.29056,0.09987 -1.96436,0.15442 -0.17053,0.0138 -0.46336,0.03708 -0.65029,0.05172 -0.18693,0.01464 -0.47938,0.03792 -0.64991,0.05172 -0.17053,0.01382 -0.44963,0.03641 -0.62031,0.05022 -0.17067,0.01382 -0.45619,0.03674 -0.63492,0.05097 -0.59085,0.04701 -0.99943,0.0788 -2.06818,0.161917 -0.17872,0.0139 -0.47118,0.0374 -0.64991,0.05172 -0.17873,0.01433 -0.44806,0.03261 -0.59894,0.04123 -0.15087,0.0086 -0.3837,0.03198 -0.51723,0.05172 l -0.24287,0.03598 0.26498,0.272109 c 0.14593,0.149502 0.25239,0.286446 0.23651,0.305092 -0.006,0.0068 -0.006,0.0099 -0.007,0.01274 -0.10676,-0.112163 -0.47043,-0.49577 -0.48313,-0.508611 -0.13429,-0.135788 -0.46508,-0.102668 6.25289,-0.633047 13.57014,-1.071352 27.09136,-2.188764 27.47289,-2.270574 0.52065,-0.111639 -3.88493,0.211678 -14.38729,1.055828 -7.4457,0.598465 -19.67149,1.609237 -19.6938,1.628157 -0.0105,0.0089 0.84906,1.045139 1.91038,2.302807 l 1.9295,2.28669 -0.29872,0.885666 c -0.44632,1.322375 -1.57343,5.40739 -1.52621,5.531385 0.0124,0.03247 0.0887,-0.15002 0.18778,-0.408164 -0.002,0.01403 0.001,0.03321 0.0105,0.05435 0.0187,0.04266 0.0103,0.07796 -0.0187,0.07796 -0.029,0 -0.0537,0.04055 -0.0547,0.09033 -0.001,0.04977 -0.022,0.148531 -0.0461,0.219636 -0.0418,0.123181 -0.0351,0.121683 0.13231,-0.03448 0.0934,-0.08714 0.18734,-0.142788 0.21551,-0.129308 -0.19769,0.213906 -0.33651,0.376047 -0.38117,0.451266 -2.5e-4,7.04e-4 -0.003,0.0028 -0.003,0.0034 0,0.0013 2.8e-4,0.0018 3.7e-4,0.003 -0.009,0.01737 -0.0182,0.03477 -0.0146,0.0401 0.007,0.01035 0.001,0.0101 -0.003,0.01162 0.73812,-0.103297 3.87328,-1.175778 5.65919,-1.963233 l 0.35457,-0.155919 1.15853,1.034089 c -0.0165,-0.01322 -0.03,-0.02456 -0.0506,-0.04048 l -0.16229,-0.12481 0.14317,0.142051 c 0.0788,0.07822 0.15171,0.142051 0.16229,0.142051 0.006,0 0.01,-6.07e-4 0.0128,-0.0019 l 0.0896,0.0922 c 0.0619,0.064 0.12147,0.116564 0.13269,0.116564 0.006,0 0.0113,-9.23e-4 0.0146,-0.0022 l 0.0888,0.09295 c 0.0619,0.064 0.12222,0.11619 0.13343,0.11619 0.006,0 0.0102,-5.49e-4 0.0135,-0.0019 l 0.0899,0.09258 c 0.0619,0.06399 0.12147,0.11619 0.13268,0.11619 0.007,0 0.009,-0.0026 0.012,-0.0045 l 0.12182,0.120688 c 0.0788,0.07822 0.15208,0.142051 0.16266,0.142051 0.006,0 0.0108,-0.0013 0.0139,-0.0026 l 0.14955,0.145424 c 0.0954,0.09244 0.18135,0.167913 0.19152,0.167913 0.0114,0 0.0178,-0.0024 0.0176,-0.0086 0.72019,0.630252 1.31139,1.133115 1.33993,1.123668 0.26615,-0.08809 16.44885,-10.740739 20.33397,-13.385441 2.7154,-1.848449 3.10983,-2.157757 2.75332,-2.157757 z m -0.90703,0.05172 c -0.0344,0 -0.0626,0.02328 -0.0626,0.05172 0,0.02844 0.0115,0.05172 0.0259,0.05172 0.0143,0 0.0425,-0.02328 0.0626,-0.05172 0.0201,-0.02844 0.009,-0.05172 -0.0259,-0.05172 z m 0.6233,0.232005 c 0.0288,0.0146 -0.19297,0.15098 -0.64129,0.421656 -0.37368,0.22561 -1.01381,0.629741 -1.65552,1.035214 0.009,-0.0043 0.0157,-0.01408 0.0157,-0.02811 0,-0.05008 0.46043,-0.363425 0.54347,-0.369934 0.0228,-0.0018 0.12511,-0.07183 0.22751,-0.155544 0.10239,-0.08372 0.20993,-0.139104 0.23913,-0.123311 0.0292,0.01579 0.0532,0.0064 0.0532,-0.02024 0,-0.02666 0.1466,-0.136258 0.32533,-0.243998 0.37089,-0.223575 0.37831,-0.233093 0.17691,-0.218512 -0.0813,0.0059 -0.14768,0.02344 -0.14768,0.03935 0,0.03141 -0.68269,0.296508 -0.82719,0.321209 -0.0487,0.0083 -0.10189,0.03079 -0.11844,0.04985 -0.0499,0.05743 -0.64977,0.251243 -0.65066,0.210266 -4.5e-4,-0.02092 -0.0208,-0.01078 -0.045,0.02249 -0.0532,0.0732 -0.66282,0.290337 -0.66416,0.236502 -1.9e-4,-0.0081 -0.005,-0.0084 -0.0101,-0.0079 0.91132,-0.333099 1.80769,-0.661314 2.31555,-0.859804 0.55469,-0.216792 0.83438,-0.323806 0.86318,-0.309215 z m -0.77884,0.101197 c 0.0161,0.0096 -0.12192,0.06371 -0.42241,0.156669 -0.41478,0.12832 -1.08422,0.348267 -1.91301,0.625926 0.002,-0.0051 0.006,-0.0078 0.006,-0.01574 0,-0.04897 0.22988,-0.133027 0.38418,-0.140552 0.0325,-0.0016 0.0726,-0.01496 0.0888,-0.02998 0.0162,-0.01501 0.096,-0.05521 0.17728,-0.0892 l 0.14767,-0.06147 -0.17728,0.01124 c -0.0975,0.0063 -0.19163,0.0289 -0.20952,0.04985 -0.0179,0.02095 -0.11105,0.04693 -0.20689,0.05772 -0.0958,0.01079 -0.25132,0.04641 -0.34519,0.07946 -0.0939,0.03305 -0.18402,0.04813 -0.2009,0.03336 -0.0169,-0.01478 -0.0601,-0.0067 -0.0956,0.01837 -0.0961,0.06775 -0.93105,0.264536 -0.98911,0.233129 -0.0116,-0.0063 -0.0215,-0.0058 -0.03,-0.0037 1.43944,-0.347824 2.56143,-0.625956 3.2833,-0.816327 0.31639,-0.08344 0.4869,-0.118325 0.50299,-0.108694 z m -2.36578,0.790091 c 0.002,0.0016 0.003,6.3e-5 0.005,0.0011 -2.29211,0.768149 -5.96797,2.038117 -10.24869,3.544163 -5.02506,1.767926 -15.36869,5.455885 -15.41427,5.495778 -0.017,0.01491 0.41335,0.415981 0.95613,0.891663 0.0938,0.08218 0.13381,0.11815 0.21177,0.186279 -0.0117,-0.0089 -0.0239,-0.01788 -0.0371,-0.02699 -0.0937,-0.06432 -0.0964,-0.06291 -0.0229,0.01911 0.0161,0.01796 0.03,0.03222 0.0435,0.04498 -0.0755,-0.06194 -0.11744,-0.09251 -0.35907,-0.311089 l -0.64804,-0.586197 -0.14954,0.174285 c -0.082,0.09581 -0.23431,0.250962 -0.33845,0.344822 -0.10415,0.09386 -0.18876,0.182543 -0.18816,0.197147 0.002,0.04954 -0.47101,0.475216 -0.50486,0.454265 -0.0185,-0.01145 -0.0193,-0.0043 -0.002,0.01574 0.0397,0.04557 -2.22438,2.034379 -2.28107,2.003712 -0.0101,-0.0055 -0.0279,9.06e-4 -0.0469,0.01012 0.0173,-0.01443 0.0342,-0.02939 0.0525,-0.0446 0.007,0.02835 0.0533,-5.22e-4 0.12406,-0.07946 0.0444,-0.04955 0.0507,-0.06136 0.0364,-0.05547 0.008,-0.0069 0.0122,-0.0099 0.0206,-0.01687 0.0121,0.01831 0.0548,-0.0098 0.12031,-0.08283 0.0338,-0.03773 0.0473,-0.05406 0.0476,-0.05922 0.56541,-0.472178 1.11772,-0.965407 1.60155,-1.416766 0.005,0.03279 0.0505,0.006 0.12331,-0.07534 0.0735,-0.08202 0.0716,-0.08381 -0.0221,-0.01949 1.15397,-1.08483 1.81478,-1.845912 0.83656,-1.114298 -0.22902,0.171286 -0.65673,0.561307 -1.12704,1.00523 -0.002,-0.0057 -0.003,-0.01 -0.009,-0.02024 -0.0411,-0.06303 1.38898,-1.312195 1.50222,-1.312195 0.0483,0 0.0465,-0.02188 -0.006,-0.07721 -0.0716,-0.07546 -0.0239,-0.105649 0.13305,-0.08396 0.0244,0.0034 0.0442,-0.01316 0.0442,-0.03711 0,-0.04017 0.68291,-0.293851 0.88604,-0.32908 0.0488,-0.0085 0.10219,-0.03061 0.11844,-0.0491 0.0162,-0.01849 0.0827,-0.04177 0.14767,-0.05172 0.065,-0.01 0.13375,-0.03684 0.15292,-0.05959 0.0192,-0.02276 0.0921,-0.04485 0.1623,-0.04947 0.0702,-0.0046 0.1278,-0.02296 0.1278,-0.04085 0,-0.03203 0.71318,-0.288232 0.88605,-0.31821 0.0487,-0.0085 0.10219,-0.03024 0.11843,-0.04873 0.0162,-0.01849 0.0827,-0.04177 0.14768,-0.05172 0.065,-0.01 0.15496,-0.04864 0.19977,-0.08583 0.0448,-0.03719 0.11811,-0.05582 0.16266,-0.04085 0.0446,0.01497 0.0806,0.0088 0.0806,-0.01424 0,-0.03896 0.68716,-0.292715 0.88604,-0.327206 0.0487,-0.0085 0.10451,-0.03421 0.12368,-0.05697 0.0192,-0.02276 0.0925,-0.04522 0.16267,-0.04985 0.0702,-0.0046 0.12781,-0.02289 0.12781,-0.04048 0,-0.03159 1.00988,-0.392007 1.18139,-0.421657 0.0487,-0.0084 0.10414,-0.03421 0.12331,-0.05697 0.0192,-0.02276 0.0928,-0.04485 0.16304,-0.04948 0.0702,-0.0046 0.12743,-0.02289 0.12743,-0.04048 0,-0.03159 1.00988,-0.392381 1.18139,-0.422031 0.0487,-0.0084 0.10414,-0.03421 0.12331,-0.05697 0.0192,-0.02276 0.0928,-0.04485 0.16304,-0.04947 0.0702,-0.0046 0.12744,-0.02296 0.12744,-0.04085 0,-0.03203 0.71355,-0.288231 0.88641,-0.31821 0.0488,-0.0085 0.10219,-0.03024 0.11844,-0.04873 0.0163,-0.01849 0.0823,-0.04177 0.1473,-0.05172 0.065,-0.01 0.13375,-0.03721 0.15292,-0.05997 0.0192,-0.02276 0.0925,-0.04485 0.16267,-0.04947 0.0702,-0.0046 0.12743,-0.02295 0.12743,-0.04085 0,-0.03203 0.71356,-0.287857 0.88642,-0.317835 0.0487,-0.0085 0.10219,-0.03061 0.11843,-0.0491 0.0163,-0.01849 0.0823,-0.04178 0.1473,-0.05172 0.065,-0.0099 0.13413,-0.03646 0.1533,-0.05922 0.0192,-0.02276 0.0921,-0.04559 0.16229,-0.05022 0.0702,-0.0046 0.12781,-0.02232 0.12781,-0.03973 0,-0.03133 1.30594,-0.496765 1.47673,-0.526227 0.0488,-0.0084 0.10219,-0.02986 0.11844,-0.04835 0.0163,-0.01849 0.0827,-0.04177 0.14768,-0.05172 0.065,-0.0099 0.13179,-0.03323 0.14804,-0.05172 0.0163,-0.01849 0.0823,-0.04177 0.1473,-0.05172 0.065,-0.0099 0.13142,-0.03361 0.14768,-0.0521 0.0162,-0.01849 0.0827,-0.04177 0.14767,-0.05172 0.065,-0.0099 0.13142,-0.03323 0.14767,-0.05172 0.0163,-0.01849 0.0831,-0.04178 0.14805,-0.05172 0.065,-0.0099 0.13142,-0.03317 0.14767,-0.05172 0.0326,-0.03718 2.22128,-0.80608 2.36316,-0.830195 0.0487,-0.0083 0.10218,-0.03023 0.11843,-0.04872 0.0163,-0.01849 0.0827,-0.04178 0.14768,-0.05172 0.065,-0.0099 0.13104,-0.03323 0.1473,-0.05172 0.0163,-0.01849 0.0827,-0.04178 0.14767,-0.05172 0.065,-0.0099 0.13179,-0.03286 0.14805,-0.05135 0.0163,-0.01849 0.0827,-0.04178 0.14767,-0.05172 0.065,-0.0099 0.13142,-0.03201 0.14768,-0.04835 0.0438,-0.044 3.79631,-1.352407 3.89985,-1.359795 0.0487,-0.0035 0.10143,-0.02161 0.11769,-0.0401 0.0163,-0.01849 0.0827,-0.0414 0.14767,-0.05135 0.065,-0.0099 0.13179,-0.03139 0.14805,-0.04722 0.0606,-0.05905 0.96149,-0.356347 1.00635,-0.332078 0.0257,0.0139 0.0558,0.0043 0.0667,-0.02174 0.0109,-0.02601 0.0729,-0.0555 0.13793,-0.06522 0.065,-0.0097 0.13179,-0.03286 0.14805,-0.05135 0.0162,-0.01849 0.0827,-0.0414 0.14767,-0.05135 0.065,-0.0099 0.13142,-0.03138 0.14767,-0.0476 0.0412,-0.04118 0.77431,-0.292997 0.91678,-0.314837 0.0644,-0.0099 0.13301,-0.03684 0.15217,-0.05959 0.0192,-0.02276 0.0917,-0.04484 0.16192,-0.04948 0.0702,-0.0046 0.1278,-0.02417 0.1278,-0.04348 0,-0.03341 0.25835,-0.11457 0.38381,-0.120688 0.0325,-0.0016 0.0729,-0.017 0.0892,-0.03411 0.0558,-0.05871 0.69551,-0.247865 0.73162,-0.216263 z m -1.42763,0.136804 c -0.008,0.0046 -0.0131,0.01256 -0.0131,0.02511 0,0.04765 -0.41857,0.141107 -0.57608,0.128559 -0.0406,-0.0032 -0.0742,0.01244 -0.0742,0.03523 0,0.04097 -0.43343,0.131294 -0.57608,0.119938 -0.0406,-0.0032 -0.0735,0.01283 -0.0735,0.03561 0,0.04097 -0.43343,0.130919 -0.57608,0.119563 -0.0406,-0.0032 -0.0738,0.01283 -0.0738,0.03561 0,0.04097 -0.43344,0.130544 -0.57608,0.119189 -0.0406,-0.0032 -0.0742,0.01283 -0.0742,0.03561 0,0.04097 -0.43343,0.130919 -0.57608,0.119563 -0.0406,-0.0032 -0.0738,0.01283 -0.0738,0.03561 0,0.03395 -0.28777,0.10118 -0.56109,0.131182 -0.0325,0.0036 -0.13528,0.03434 -0.22863,0.06784 -0.0933,0.0335 -0.24073,0.06738 -0.32758,0.07571 -0.0868,0.0083 -0.19023,0.03279 -0.22938,0.05397 -0.0392,0.02119 -0.0976,0.02357 -0.13006,0.006 -0.0325,-0.01759 -0.0592,-0.0089 -0.0592,0.01874 0,0.04182 -0.34423,0.125464 -0.56108,0.136429 -0.0325,0.0016 -0.0928,0.02122 -0.13343,0.04348 -0.0406,0.02226 -0.10019,0.02618 -0.13268,0.0086 -0.0325,-0.01759 -0.0589,-0.0093 -0.0589,0.01837 0,0.04182 -0.34461,0.125464 -0.56146,0.136429 -0.0325,0.0016 -0.0856,0.01775 -0.11806,0.03561 -0.10287,0.0565 -0.75773,0.193499 -0.80434,0.168288 -0.0246,-0.01329 -0.0596,-0.0032 -0.078,0.02286 -0.031,0.04396 -0.53973,0.17091 -0.74361,0.185529 -0.0493,0.0035 -0.11575,0.02097 -0.14767,0.03823 -0.10365,0.05602 -0.75726,0.191648 -0.80321,0.166789 -0.0246,-0.01329 -0.0622,0.0014 -0.084,0.03223 -0.0218,0.03084 -0.0767,0.04338 -0.12219,0.02811 -0.0455,-0.01528 -0.0825,-0.0088 -0.0825,0.01424 0,0.03726 -0.53669,0.165977 -0.76948,0.18478 -0.0493,0.004 -0.1162,0.02192 -0.14842,0.03935 -0.0721,0.039 -0.78075,0.201455 -0.94639,0.217013 -0.0664,0.0062 -0.14616,0.02515 -0.17728,0.04198 -0.10256,0.05543 -0.75574,0.191078 -0.80134,0.166414 -0.0246,-0.01329 -0.0625,9.91e-4 -0.0843,0.03186 -0.0218,0.03091 -0.0755,0.04377 -0.11993,0.02886 -0.0444,-0.01491 -0.0949,-0.0071 -0.11207,0.01724 -0.0293,0.04155 -0.54424,0.168379 -0.74137,0.18253 -0.0493,0.0035 -0.12299,0.02406 -0.16304,0.04573 -0.0401,0.02166 -0.0972,0.02573 -0.12743,0.0094 -0.0302,-0.01636 -0.0701,-0.0084 -0.0885,0.01762 -0.031,0.04396 -0.5401,0.170909 -0.74399,0.185529 -0.0493,0.0035 -0.12224,0.02444 -0.16229,0.0461 -0.0401,0.02166 -0.0979,0.02611 -0.12818,0.0097 -0.0302,-0.01636 -0.0727,-0.0046 -0.0944,0.02624 -0.0218,0.03091 -0.0763,0.04377 -0.12069,0.02886 -0.0444,-0.01491 -0.0947,-0.0072 -0.11169,0.01687 -0.0289,0.04088 -0.77958,0.220888 -0.97824,0.234628 -0.0493,0.0034 -0.12383,0.02514 -0.16604,0.04798 -0.0422,0.02283 -0.0925,0.0277 -0.1117,0.01087 -0.0192,-0.01683 -0.0638,-0.01004 -0.0993,0.01574 -0.0652,0.04736 -0.96714,0.262476 -1.19001,0.283728 -0.0664,0.0063 -0.15461,0.03007 -0.19602,0.05247 -0.0414,0.0224 -0.0906,0.02658 -0.10982,0.0097 -0.0192,-0.01683 -0.0646,-0.0095 -0.10007,0.01612 -0.0666,0.04815 -0.73918,0.211954 -0.95276,0.232005 -0.0664,0.0062 -0.15461,0.0297 -0.19602,0.0521 -0.0414,0.0224 -0.0914,0.02732 -0.11057,0.0105 -0.0192,-0.01683 -0.0635,-0.01004 -0.099,0.01574 -0.0652,0.04736 -0.96677,0.262477 -1.18963,0.283728 -0.0664,0.0063 -0.15462,0.0297 -0.19603,0.0521 -0.0414,0.0224 -0.0913,0.02695 -0.11056,0.01012 -0.0192,-0.01683 -0.0638,-0.0099 -0.0993,0.01574 -0.0666,0.04815 -0.73955,0.211954 -0.95313,0.232005 -0.0664,0.0062 -0.15303,0.029 -0.19227,0.05022 -0.0393,0.02125 -0.0961,0.02535 -0.12631,0.009 -0.0302,-0.01636 -0.0727,-0.0046 -0.0944,0.02624 -0.0218,0.03084 -0.0771,0.04375 -0.12257,0.02848 -0.0454,-0.01526 -0.0824,-0.0096 -0.0824,0.01274 0,0.03634 -0.77982,0.221591 -1.00523,0.238752 -0.0493,0.0038 -0.1242,0.02552 -0.16642,0.04835 -0.0422,0.02283 -0.0928,0.02733 -0.11206,0.0105 -0.0192,-0.01683 -0.0638,-0.0089 -0.0993,0.01687 -0.0655,0.0476 -0.94626,0.257121 -1.21624,0.28935 -0.0812,0.0097 -0.16104,0.02257 -0.17728,0.02886 -0.0163,0.0063 -0.0567,0.01554 -0.0892,0.02099 -0.0325,0.0055 -0.13378,0.03721 -0.22526,0.07009 -0.0915,0.03288 -0.18426,0.06019 -0.20651,0.06034 -0.2362,0.0017 -0.48388,0.1201 -0.48388,0.23163 0,0.06809 -0.0269,0.13843 -0.06,0.156294 -0.033,0.01786 -0.0436,0.05499 -0.024,0.08283 0.0197,0.02784 0.0165,0.09064 -0.006,0.139053 -0.0229,0.04841 -0.0504,0.167421 -0.0618,0.264613 -0.0114,0.09719 -0.0466,0.198481 -0.0776,0.225633 -0.031,0.02715 -0.0433,0.07949 -0.0274,0.115815 0.0159,0.03632 0.002,0.08057 -0.0315,0.09857 -0.0333,0.01801 -0.0466,0.06457 -0.0296,0.103446 0.017,0.03888 0.002,0.08626 -0.033,0.105321 -0.0352,0.01906 -0.0487,0.05636 -0.03,0.08283 0.0187,0.02648 0.0137,0.0763 -0.0105,0.110568 -0.0242,0.03427 -0.0512,0.124503 -0.0607,0.200521 -0.01,0.07602 -0.0483,0.205025 -0.0858,0.286726 -0.0376,0.0817 -0.0784,0.217086 -0.0907,0.300969 -0.0123,0.08388 -0.042,0.165743 -0.066,0.181406 -0.0239,0.01566 -0.0522,0.09795 -0.0626,0.18328 -0.0104,0.08533 -0.0434,0.163246 -0.0738,0.172786 -0.0304,0.0095 -0.0422,0.03597 -0.0255,0.05959 0.0167,0.02363 -4.4e-4,0.109049 -0.0382,0.189652 -0.0378,0.0806 -0.0717,0.170205 -0.0753,0.198647 -0.0191,0.150595 -0.18032,0.594817 -0.21589,0.594817 -0.0227,0 -0.0379,0.02891 -0.0337,0.06447 0.0134,0.113995 -0.15926,0.607186 -0.21252,0.607186 -0.008,0 -0.0102,0.0049 -0.015,0.0075 0.60228,-1.780627 1.38866,-4.281858 1.38866,-4.554266 0,-0.154757 -0.32865,-0.07246 6.43991,-1.608666 8.41767,-1.910492 15.5032,-3.556131 19.7474,-4.581627 z m 1.38528,0.143926 c -0.007,0.0049 -0.016,0.01144 -0.0259,0.02474 -0.0413,0.05538 -0.83061,0.359088 -1.01798,0.391672 -0.0487,0.0085 -0.1045,0.03421 -0.12368,0.05697 -0.0192,0.02276 -0.0921,0.04484 -0.16229,0.04948 -0.0702,0.0046 -0.12744,0.02289 -0.12744,0.04048 0,0.03159 -1.01025,0.392381 -1.18176,0.422031 -0.0487,0.0084 -0.1045,0.03384 -0.12369,0.0566 -0.0192,0.02276 -0.0925,0.04522 -0.16266,0.04985 -0.0702,0.0046 -0.12706,0.02295 -0.12706,0.04085 0,0.03203 -0.71355,0.287857 -0.88642,0.317835 -0.0487,0.0084 -0.10218,0.03061 -0.11844,0.0491 -0.0163,0.01849 -0.0827,0.04178 -0.14767,0.05172 -0.065,0.0099 -0.13142,0.03319 -0.14767,0.05172 -0.0325,0.0371 -4.28896,1.530072 -4.43133,1.55432 -0.0487,0.0083 -0.10218,0.02868 -0.11844,0.04498 -0.0437,0.0438 -2.02341,0.732084 -2.12702,0.739492 -0.0488,0.0035 -0.10144,0.02124 -0.11769,0.03973 -0.0163,0.01849 -0.0831,0.04252 -0.14805,0.05247 -0.065,0.0099 -0.13142,0.03323 -0.14767,0.05172 -0.0163,0.01849 -0.0827,0.0414 -0.14768,0.05135 -0.065,0.0099 -0.13141,0.03323 -0.14767,0.05172 -0.0163,0.01849 -0.0831,0.04177 -0.14805,0.05172 -0.065,0.0099 -0.13104,0.03323 -0.1473,0.05172 -0.0163,0.01849 -0.0827,0.04178 -0.14767,0.05172 -0.065,0.0099 -0.13142,0.03323 -0.14768,0.05172 -0.0162,0.01849 -0.083,0.04178 -0.14804,0.05172 -0.065,0.0099 -0.13142,0.03132 -0.14768,0.0476 -0.0436,0.04364 -1.43228,0.525547 -1.53595,0.532974 -0.0487,0.0035 -0.10182,0.02161 -0.11807,0.0401 -0.0162,0.01849 -0.0831,0.0414 -0.14804,0.05135 -0.065,0.0099 -0.13143,0.03323 -0.14768,0.05172 -0.0162,0.01849 -0.0827,0.04177 -0.14767,0.05172 -0.065,0.0099 -0.13105,0.03139 -0.1473,0.04722 -0.0606,0.05905 -0.96261,0.355972 -1.00748,0.331704 -0.0257,-0.01389 -0.0551,-0.0039 -0.066,0.02211 -0.0109,0.02601 -0.0729,0.0555 -0.13793,0.06522 -0.065,0.0097 -0.13143,0.03027 -0.14768,0.0461 -0.0606,0.05905 -0.96186,0.356347 -1.00672,0.332078 -0.0257,-0.01389 -0.0558,-0.0039 -0.0667,0.02211 -0.0109,0.02601 -0.0729,0.05513 -0.13793,0.06484 -0.065,0.0097 -0.1318,0.03248 -0.14805,0.05097 -0.0162,0.01849 -0.0827,0.04214 -0.14767,0.0521 -0.065,0.01 -0.13142,0.03102 -0.14767,0.04685 -0.0606,0.05905 -0.96187,0.356346 -1.00673,0.332078 -0.0257,-0.01389 -0.0554,-0.0043 -0.0663,0.02174 -0.0109,0.02601 -0.0729,0.0555 -0.13793,0.06522 -0.065,0.0097 -0.13143,0.03059 -0.14767,0.04685 -0.0416,0.0416 -1.06924,0.396409 -1.21175,0.418284 -0.0647,0.0099 -0.13105,0.03286 -0.1473,0.05135 -0.0162,0.01849 -0.0827,0.04177 -0.14767,0.05172 -0.065,0.01 -0.1318,0.0314 -0.14805,0.04723 -0.0606,0.05905 -0.96187,0.355971 -1.00673,0.331703 -0.008,-0.0042 -0.0154,-0.0025 -0.0232,-0.0026 0.70814,-0.245469 1.3045,-0.453895 2.13789,-0.739866 8.95189,-3.071741 15.96132,-5.52916 19.78863,-6.927911 z m 0.85268,0.27998 c 0.0145,0.0078 0.0275,0.0093 0.0371,0.0052 -2.74541,1.734727 -7.67154,4.935474 -13.76587,8.944741 0.01,-0.0045 0.0154,-0.01438 0.0154,-0.02886 0,-0.02958 0.53183,-0.403984 1.18176,-0.831694 0.64992,-0.42771 1.18139,-0.759831 1.18139,-0.738742 0,0.02109 0.042,-0.0139 0.093,-0.07758 0.051,-0.06369 0.1174,-0.10258 0.14767,-0.08621 0.0303,0.01637 0.0551,0.0073 0.0551,-0.01986 0,-0.06011 4.02962,-2.705537 4.09063,-2.685484 0.0238,0.0078 0.0852,-0.03822 0.1368,-0.102697 0.0516,-0.06447 0.11853,-0.104458 0.1488,-0.08808 0.0303,0.01638 0.0547,0.007 0.0547,-0.02099 0,-0.05681 1.42593,-0.992676 1.48536,-0.97487 0.0207,0.0062 0.0932,-0.04658 0.16079,-0.117689 0.0676,-0.07112 0.12332,-0.106745 0.12444,-0.07908 10e-4,0.02766 0.0435,-0.0019 0.0944,-0.06559 0.051,-0.06369 0.11777,-0.10221 0.14804,-0.08583 0.0303,0.01638 0.0551,0.0063 0.0551,-0.02211 0,-0.06207 1.00755,-0.710025 1.07532,-0.691516 0.026,0.0071 0.0472,-0.0083 0.0472,-0.03448 0,-0.0613 0.76492,-0.551181 0.83395,-0.534099 0.0287,0.0071 0.0521,-0.0083 0.0521,-0.03448 0,-0.0613 0.76529,-0.551555 0.83431,-0.534473 0.0287,0.0071 0.0521,-0.0085 0.0521,-0.03486 0,-0.04669 1.17435,-0.815581 1.21475,-0.795338 0.0112,0.0056 0.10375,-0.05796 0.20614,-0.141676 0.10239,-0.08372 0.21031,-0.139479 0.2395,-0.123686 z m -31.63736,1.808438 c 0.0502,-0.03235 0.27277,0.222542 0.26461,0.297596 -0.0868,-0.09138 -0.21612,-0.227992 -0.27773,-0.292724 0.003,-3.91e-4 0.006,-1.03e-4 0.0131,-0.0049 z m 0.29048,0.323457 c 0.0408,-0.03569 0.24259,0.149032 0.25374,0.23238 0.003,0.02241 0.0858,0.100538 0.1844,0.17316 0.0986,0.07262 0.16443,0.152934 0.14618,0.178782 -0.007,0.01052 -0.007,0.01913 -0.005,0.02699 -0.2656,-0.279989 -0.39445,-0.415425 -0.5802,-0.610933 4.9e-4,-3.91e-4 6.3e-4,1.39e-4 0.001,-3.75e-4 z m 0.58994,0.622553 c 0.006,0.0036 0.01,0.009 0.0199,0.009 0.0785,0 0.93321,0.911028 1.05658,1.113548 -0.20051,-0.207936 -0.33359,-0.340053 -0.57645,-0.596316 -0.26164,-0.276086 -0.2703,-0.284083 -0.49999,-0.526227 z m 1.14353,1.191882 c 0.0621,0.0046 0.23734,0.167042 0.25862,0.25037 0.006,0.02233 0.0848,0.09588 0.17653,0.163416 0.0917,0.06753 0.15733,0.130842 0.1458,0.140927 -0.0115,0.01008 0.12283,0.156203 0.29835,0.324207 l 0.29497,0.282229 c -0.12388,-0.0887 -0.57606,-0.542324 -1.17427,-1.161149 z m 5.8511,0.123686 c 0.0229,-0.0016 0.0441,0.0019 0.0592,0.01012 0.0146,0.0079 0.032,0.0095 0.0476,0.0067 -1.24025,0.283568 -1.72167,0.391132 -2.4741,0.56146 0.003,-0.004 0.009,-0.0051 0.009,-0.01162 0,-0.04086 0.52315,-0.170526 0.7691,-0.190402 0.0493,-0.004 0.12421,-0.02552 0.16642,-0.04835 0.0422,-0.02283 0.0921,-0.0277 0.11132,-0.01087 0.0192,0.01683 0.0642,0.0092 0.0997,-0.01649 0.0666,-0.04814 0.73955,-0.212326 0.95314,-0.232379 0.0664,-0.0062 0.15302,-0.02824 0.19227,-0.04948 0.0196,-0.01061 0.0438,-0.01714 0.0667,-0.01874 z m -2.48122,0.57008 c 0.0239,-0.0014 0.0467,0.0021 0.063,0.01087 0.008,0.0043 0.014,0.0026 0.021,0.0041 -0.4004,0.09062 -1.14669,0.26165 -1.33094,0.302468 0.0154,-0.0039 0.0305,-0.0089 0.0375,-0.01874 0.0289,-0.04088 0.77995,-0.221263 0.97862,-0.235003 0.0493,-0.0034 0.12224,-0.02369 0.16229,-0.04535 0.02,-0.01083 0.0447,-0.01704 0.0686,-0.01837 z m -1.39015,0.312588 c 0.0218,-0.0052 0.0468,-0.0048 0.069,0.0026 0.02,0.0067 0.0405,0.0074 0.0592,0.0056 -0.0287,0.0064 -0.18774,0.04267 -0.21027,0.0476 0.0111,-0.0063 0.0226,-0.01284 0.0307,-0.02436 0.0109,-0.01546 0.0295,-0.02625 0.0513,-0.03148 z m -0.13568,0.06372 c 0.005,0.0029 0.0121,-3.91e-4 0.0184,0 -0.0636,0.0139 -0.61639,0.141064 -0.62218,0.141676 -0.003,3.72e-4 -0.0294,-0.02423 -0.0371,-0.02849 l 0.29572,-0.06821 c 0.16512,-0.03812 0.32046,-0.05837 0.3452,-0.04498 z m 4.96355,2.380766 c -0.006,0.0047 -0.0129,0.0077 -0.0161,0.01537 -0.0109,0.02601 -0.0729,0.05513 -0.13792,0.06484 -0.065,0.0097 -0.13143,0.03286 -0.14768,0.05135 -0.0162,0.01849 -0.083,0.04177 -0.14805,0.05172 -0.065,0.01 -0.13142,0.03065 -0.14767,0.04648 -0.0606,0.05905 -0.96186,0.356721 -1.00673,0.332453 -0.005,-0.0027 -0.01,-5.41e-4 -0.015,-0.0015 0.42154,-0.147662 1.08443,-0.375325 1.61916,-0.56071 z m -1.66114,0.574953 c -0.003,0.0035 -0.008,0.0048 -0.01,0.0094 -0.0109,0.02601 -0.0729,0.05513 -0.13793,0.06484 -0.065,0.0097 -0.13143,0.03065 -0.14768,0.04648 -0.0528,0.05143 -0.6402,0.24695 -0.88791,0.305842 0.23816,-0.08925 0.4593,-0.172848 1.18326,-0.426529 z m -1.37066,0.494368 c -0.0127,0.02057 -0.0386,0.03711 -0.0761,0.03711 -0.0545,0 -0.0818,0.03928 -0.0708,0.102322 0.007,0.03776 0.0198,0.06852 0.0352,0.09595 -0.0221,-0.02073 -0.15567,-0.135096 -0.15704,-0.138304 -6.9e-4,-0.0016 0.23572,-0.08395 0.26874,-0.09707 z m -0.024,0.312963 c 0.0112,0.0035 0.0221,0.0082 0.0341,0.0082 0.0262,0 0.57396,0.45398 1.21699,1.008603 0.38915,0.335647 0.44399,0.390479 0.62068,0.547966 -0.0153,-0.01221 -0.0298,-0.02409 -0.0487,-0.03711 -0.0937,-0.06433 -0.0956,-0.06253 -0.0221,0.01949 0.0609,0.06792 0.10333,0.09832 0.11881,0.0877 l 0.09,0.09333 c 0.0619,0.064 0.12147,0.11619 0.13268,0.11619 0.006,0 0.0109,-9.24e-4 0.0142,-0.0022 l 0.0873,0.0907 c 0.0607,0.06287 0.13081,0.109052 0.15555,0.103072 0.0247,-0.006 0.58336,0.455126 1.2421,1.023969 0.25871,0.2234 0.23523,0.207655 0.41491,0.365061 0.11947,0.10466 0.20818,0.181915 0.27623,0.242874 -0.0234,-0.01955 -0.0516,-0.04166 -0.087,-0.06896 l -0.13606,-0.104946 c 0.008,-0.0092 -0.009,-0.03145 -0.0532,-0.06896 -0.0201,-0.01692 -0.0456,-0.03683 -0.0768,-0.05997 l -0.13268,-0.09857 0.11244,0.11619 c 0.0619,0.064 0.12184,0.116565 0.13305,0.116565 0.006,0 0.0109,-0.0011 0.0143,-0.0026 l 0.11956,0.118813 c 0.0269,0.02666 0.0494,0.04721 0.0727,0.06859 -0.40097,-0.338031 -0.88392,-0.748113 -1.38041,-1.170519 0.0269,-0.0076 -0.0131,-0.05007 -0.1503,-0.155919 l -0.13568,-0.104946 c 0.0116,-0.01351 -0.0299,-0.0543 -0.13005,-0.128558 l -0.13268,-0.09895 0.11206,0.116565 c 0.004,0.0044 0.008,0.0069 0.012,0.01124 -0.73609,-0.627597 -1.41359,-1.208607 -1.93325,-1.658141 0.003,-0.0027 0.007,-0.0051 0.007,-0.01274 0,-0.0098 -0.0596,-0.06238 -0.13268,-0.116565 l -0.10607,-0.07796 c 0.009,-0.0144 -0.038,-0.05979 -0.15966,-0.15367 l -0.13831,-0.10682 c -0.007,-0.0064 -0.0243,-0.0212 -0.0307,-0.02699 z m 12.09273,0.166039 c 0.0149,0.0081 0.029,0.009 0.039,0.0049 -1.08958,0.716805 -2.21068,1.455304 -3.36388,2.216601 0.006,-0.0054 0.0127,-0.01089 0.0127,-0.02211 0,-0.02958 0.53184,-0.403985 1.18177,-0.831694 0.64992,-0.42771 1.18139,-0.762651 1.18139,-0.744739 0,0.01791 0.0523,-0.02243 0.11619,-0.08958 0.0639,-0.06715 0.11736,-0.102067 0.11843,-0.07758 0.001,0.02448 0.0538,-0.01044 0.11769,-0.07758 0.0639,-0.06715 0.11737,-0.102067 0.11844,-0.07758 0.001,0.02448 0.0542,-0.01044 0.11807,-0.07758 0.0639,-0.06715 0.11699,-0.09925 0.11806,-0.07159 0.001,0.02766 0.0439,-0.0019 0.0948,-0.06559 0.051,-0.06369 0.11702,-0.102206 0.14729,-0.08583 z m -12.2048,0.04948 0.14355,0.142051 c 0.0788,0.07822 0.15171,0.142052 0.16229,0.142052 0.006,0 0.01,-6.08e-4 0.0131,-0.0019 l 0.0892,0.09258 c 0.0619,0.06399 0.12184,0.116189 0.13305,0.116189 0.0473,0 0.0121,-0.04123 -0.11282,-0.133805 l -0.10607,-0.07871 c 0.009,-0.0144 -0.038,-0.05941 -0.15966,-0.153295 z m 0.73162,0.615431 c 0.16032,0.140196 0.32616,0.28564 0.42016,0.372182 -0.0148,-0.01179 -0.0259,-0.0214 -0.0438,-0.03523 l -0.16229,-0.125185 0.14317,0.142426 c 0.0788,0.07822 0.15171,0.142052 0.16229,0.142052 0.0162,0 0.018,-0.0075 0.0124,-0.01911 0.0129,0.01282 0.0221,0.02341 0.033,0.03486 -0.0242,-0.01341 -0.0241,-0.0067 0.0255,0.04872 0.0234,0.0261 0.0383,0.0356 0.0558,0.0506 0.0633,0.106607 -0.0466,0.117219 -0.24025,0.172786 -0.88889,0.255081 -3.61819,1.239049 -4.8721,1.756715 -0.38468,0.15881 -0.60243,0.250198 -0.6368,0.229006 0.0115,-0.01134 0.023,-0.02219 0.0364,-0.03711 0.0625,-0.06975 0.0664,-0.07846 0.01,-0.04085 0.0119,-0.01273 0.025,-0.02616 0.042,-0.04235 9.2e-4,0.04082 0.0491,0.01335 0.12556,-0.07196 0.0735,-0.08202 0.0712,-0.08382 -0.0225,-0.01949 -0.006,0.0043 -0.01,0.0081 -0.0157,0.01237 0.0571,-0.05062 0.16269,-0.13969 0.24925,-0.212515 -0.0531,0.06047 -0.0508,0.06511 0.0472,0.0052 0.065,-0.0397 0.0123,0.01207 -0.11769,0.11469 -0.29399,0.232106 -0.26951,0.233291 0.27174,0.01387 0.23949,-0.09709 0.45565,-0.165614 0.4805,-0.152171 0.0249,0.01344 0.045,0.0027 0.045,-0.02399 0,-0.04666 0.2312,-0.145277 0.41229,-0.175784 0.048,-0.0081 0.1227,-0.04391 0.16642,-0.07946 0.0711,-0.05783 0.21719,-0.08604 0.26761,-0.05172 0.0104,0.0071 0.0657,-0.02781 0.12256,-0.07758 0.0894,-0.07822 0.15501,-0.09677 0.30397,-0.08808 0.0174,0.001 0.0719,-0.03391 0.12181,-0.07758 0.0795,-0.06962 0.16346,-0.09105 0.29759,-0.07534 0.0207,0.0024 0.0536,-0.01845 0.0735,-0.04648 0.0199,-0.02803 0.0894,-0.05901 0.15442,-0.06896 0.065,-0.01 0.1318,-0.03323 0.14804,-0.05172 0.0162,-0.01849 0.0827,-0.04177 0.14768,-0.05172 0.065,-0.01 0.13142,-0.03304 0.14767,-0.05135 0.0528,-0.05944 0.78145,-0.301444 0.82945,-0.275482 0.0256,0.01386 0.0554,0.0065 0.0663,-0.01612 0.0304,-0.06291 0.64613,-0.272502 0.70576,-0.24025 0.0289,0.01563 0.0528,0.0066 0.0528,-0.01986 0,-0.02642 0.11913,-0.07736 0.26537,-0.113191 0.31935,-0.07826 0.32172,-0.088 0.0618,-0.308465 -0.11247,-0.09541 -0.19263,-0.190132 -0.17841,-0.210266 0.0142,-0.02013 -0.0337,-0.08023 -0.10607,-0.133806 l -0.10532,-0.07758 c 0.002,-0.0033 0.004,-0.0073 0.004,-0.01349 0,-0.0023 -0.004,-0.0065 -0.007,-0.01124 z m -0.0409,0.01462 c 0.0187,0.01359 0.0327,0.01902 0.0405,0.01499 l 0.0959,0.103071 c 0.0167,0.01811 -0.11607,-0.102207 -0.13643,-0.118064 z m -2.75258,0.319335 c 0.004,0.0032 0.004,4.31e-4 0.007,0.0019 -0.32932,0.310983 -0.66733,0.634887 -1.00148,0.966999 -0.002,-0.0047 -0.002,-0.0059 -0.006,-0.01237 -0.0212,-0.03245 0.0617,-0.137357 0.18328,-0.233504 0.1216,-0.09615 0.22973,-0.197803 0.241,-0.225633 0.042,-0.103621 0.5355,-0.529378 0.57645,-0.497367 z m 3.59814,0.03298 0.14318,0.142051 c 0.0788,0.07822 0.15208,0.142052 0.16266,0.142052 0.0463,0 0.009,-0.04137 -0.14317,-0.158543 z m -5.38483,0.368434 c 0.001,0.0039 -7.5e-4,0.0066 0.002,0.01087 0.0302,0.04277 -0.13964,0.578652 -0.19939,0.628924 -0.0169,0.01422 -0.0316,0.04952 -0.0322,0.07796 -0.003,0.123398 -0.1729,0.594442 -0.21476,0.594442 -0.0124,0 -0.0194,0.0086 -0.0217,0.02211 0.11498,-0.299694 0.28553,-0.801662 0.46589,-1.334309 z m 5.88032,0.04085 c 0.0416,0.03731 0.15022,0.131497 0.16792,0.148423 -0.0172,-0.0139 -0.0342,-0.02827 -0.0577,-0.04573 l -0.10645,-0.07833 c 0.002,-0.0033 0.003,-0.0074 0.003,-0.01349 0,-0.0022 -0.003,-0.0065 -0.007,-0.01087 z m 0.21439,0.189277 c 0.009,0.0092 0.15376,0.133462 0.1428,0.12556 l -0.11619,-0.08396 c 0.004,-0.0069 -0.007,-0.02172 -0.0266,-0.0416 z m -5.31512,0.348194 c 6.5e-4,5.08e-4 1.3e-4,-9e-5 7.5e-4,3.75e-4 -0.379,0.376933 -0.7376,0.743012 -0.99361,1.019097 -0.001,-0.0023 -5.1e-4,-0.0026 -0.002,-0.0052 -0.0198,-0.03051 0.11927,-0.201302 0.30884,-0.380053 0.18958,-0.178752 0.34057,-0.329729 0.3362,-0.335451 -0.0279,-0.03652 0.31335,-0.327657 0.35007,-0.298721 z m 5.81024,0.110943 0.0885,0.08808 c -0.0367,-0.03122 -0.0645,-0.05455 -0.1012,-0.08583 0.005,-9.2e-5 0.01,-0.001 0.0127,-0.0022 z m 6.09584,0.133805 c 0.013,0.007 0.0243,0.0072 0.0337,0.0049 -0.65102,0.429783 -1.23083,0.80932 -1.89877,1.251102 -0.77991,0.515842 -1.44424,0.936489 -1.47674,0.93514 -0.005,-2.15e-4 -0.24104,-0.199187 -0.3302,-0.271734 -0.007,-0.01969 -0.0467,-0.05606 -0.12781,-0.11619 l -0.1323,-0.09782 c -0.006,-0.0052 -0.008,-0.0063 -0.0146,-0.01162 0.0158,0.0067 0.034,0.01572 0.0416,0.01162 0.0228,-0.01232 0.15734,0.08164 0.29947,0.208392 0.14214,0.126756 0.26668,0.230506 0.27698,0.230506 0.0103,0 0.5499,-0.349427 1.19901,-0.776598 0.6491,-0.427171 1.18026,-0.762276 1.18026,-0.744364 0,0.01791 0.0523,-0.02281 0.11619,-0.08995 0.0639,-0.06715 0.11737,-0.102067 0.11844,-0.07758 0.001,0.02448 0.0542,-0.01006 0.11806,-0.07721 0.0639,-0.06715 0.11699,-0.102067 0.11807,-0.07758 10e-4,0.02448 0.0545,-0.01044 0.11844,-0.07758 0.0639,-0.06715 0.11661,-0.09962 0.11768,-0.07196 10e-4,0.02766 0.0442,-0.0019 0.0952,-0.06559 0.051,-0.06369 0.11703,-0.102205 0.1473,-0.08583 z m -6.04449,0.302469 0.11619,0.103821 -0.10495,-0.07796 c 0.003,-0.0047 -10e-4,-0.01383 -0.0112,-0.02586 z m 0.24812,0.221135 0.0723,0.06447 -0.0723,-0.05322 c 0.002,-0.0027 0.002,-0.0064 0,-0.01124 z m 0.23763,0.212515 0.0453,0.04085 -0.0468,-0.03523 c 0.001,-0.0016 0.002,-0.0034 0.001,-0.0056 z m 0.2365,0.210641 h 7.5e-4 c 0.0155,0.01382 0.0247,0.02187 0.0401,0.03561 l -0.0442,-0.03411 c 6.5e-4,-7.62e-4 0.003,-5.61e-4 0.003,-0.0015 z m 0.29535,0.258616 c 0.0204,0.01806 0.0353,0.0305 0.0555,0.04835 l -0.0577,-0.04573 c 7.1e-4,-8.6e-4 0.002,-0.0015 0.002,-0.0026 z m -8.43051,0.02249 c -0.0143,0.0018 -0.0176,0.02045 -0.0176,0.0566 0,0.02535 0.0564,0.02889 0.15143,0.01649 -0.0121,-0.0047 -0.0277,-0.01279 -0.0514,-0.02961 -0.0431,-0.03058 -0.0682,-0.04532 -0.0825,-0.04348 z m 9.08155,0.06522 c 0.0351,0.03153 0.13325,0.116554 0.14992,0.132306 -0.006,-0.0041 -0.0113,-0.0079 -0.0172,-0.01199 -0.089,-0.06111 -0.093,-0.05985 -0.0304,0.01049 -0.02,-0.01684 -0.0519,-0.04385 -0.0723,-0.06109 0.003,0.0021 0.008,0.0056 0.01,0.0056 0.0325,0 0.0209,-0.02254 -0.0397,-0.07534 z m 0.2335,0.206143 c 0.004,0.0047 0.12359,0.10816 0.11507,0.101947 l -0.11507,-0.08396 3.7e-4,-3.74e-4 c 0.001,-0.0032 0.002,-0.0074 0.002,-0.01274 0,-8.99e-4 -0.002,-0.0036 -0.003,-0.0049 z m -0.004,0.02174 0.0356,0.0371 c -0.0226,-0.01895 -0.0192,-0.01515 -0.0427,-0.03486 0.003,7e-6 0.005,-8.45e-4 0.007,-0.0022 z m 0.39054,0.855681 0.14318,0.142052 c 0.0788,0.07822 0.15208,0.142426 0.16267,0.142426 0.0463,0 0.009,-0.04174 -0.1428,-0.158918 z" /></g><g
       id="g1" /><g
       id="g2"
       transform="matrix(0.22331012,0,0,0.19545085,163.06489,91.650108)"
       style="display:inline;fill:#b71c52;fill-opacity:1" /></g></svg>
