<?xml version="1.0" encoding="UTF-8" standalone="no"?>
<!-- Created with Inkscape (http://www.inkscape.org/) -->

<svg
   width="220.93544mm"
   height="232.08371mm"
   viewBox="0 0 220.93544 232.08371"
   version="1.1"
   id="svg1"
   xml:space="preserve"
   xmlns="http://www.w3.org/2000/svg"
   xmlns:svg="http://www.w3.org/2000/svg"><defs
     id="defs1" /><g
     id="g50"
     transform="matrix(0.95064493,0,0,0.95064493,-50.304894,-178.98769)"><path
       style="fill:#df0d25;fill-opacity:1;stroke:none"
       d="m 54.20149,431.92794 c -1.30346,-0.7081 -1.28483,-0.25951 -1.28483,-30.9519 0,-30.87175 -0.0265,-30.25844 1.33846,-30.96429 0.90554,-0.46828 21.04717,-0.56316 24.19383,-0.11397 11.87472,1.69511 16.93333,8.0153 16.93333,21.15638 0,14.31325 -5.92974,20.40823 -20.50521,21.0766 -4.96122,0.2275 -4.49792,-0.75125 -4.49792,9.50201 0,9.36496 -0.0772,9.90789 -1.4851,10.44317 -1.13334,0.4309 -13.86299,0.30267 -14.69256,-0.148 z m 21.49485,-34.39389 c 4.66719,-2.35755 4.71642,-11.87642 0.072,-13.93084 -4.39032,-1.94205 -5.25209,-0.84444 -5.32752,6.78555 -0.0841,8.50761 0.63176,9.48089 5.25548,7.14529 z m 18.92787,34.24674 c -1.19743,-0.9419 -1.11342,-1.345 8.59851,-41.2558 1.32792,-5.45703 2.87555,-11.86901 3.43918,-14.24885 1.16023,-4.89891 1.56425,-5.92385 2.50391,-6.35199 1.11876,-0.50974 18.96732,-0.41296 19.97535,0.10831 1.11395,0.57605 1.29344,1.26234 6.98559,26.71024 0.48825,2.18281 1.79744,7.95735 2.90931,12.83229 5.78296,25.35512 6.26575,22.75417 -4.22365,22.75417 -9.27695,0 -8.83844,0.24664 -9.40798,-5.29167 -0.49142,-4.77872 -0.0442,-4.48877 -6.93116,-4.49386 -6.5262,-0.005 -6.09288,-0.2668 -6.55786,3.9647 -0.67508,6.14345 -0.15466,5.82083 -9.38938,5.82083 -6.88815,0 -7.23531,-0.0241 -7.90182,-0.54837 z m 27.36609,-22.21511 c 0.73834,-0.39514 0.58213,-1.54463 -2.15054,-15.82451 -1.19214,-6.22971 -1.02725,-6.49222 -3.27105,5.20756 -1.8179,9.47904 -1.95168,10.49657 -1.40883,10.71562 0.63322,0.25551 6.32218,0.17333 6.83042,-0.0987 z m 26.63518,22.13626 c -1.04856,-0.97176 -1.55942,-59.13225 -0.53509,-60.91826 0.67222,-1.17207 1.15113,-1.2083 14.40198,-1.08948 13.69159,0.12276 14.06575,0.15939 18.12583,1.77464 13.44257,5.34795 15.16464,26.20745 2.80418,33.96727 -1.55861,0.97848 -2.45747,-1.23751 8.84126,21.79666 2.44379,4.98202 2.49684,4.94551 -7.32445,5.04134 -10.4196,0.10166 -9.02124,1.06673 -12.57156,-8.6762 -7.05146,-19.35094 -6.81146,-19.224 -7.00306,-3.70417 -0.13804,11.181 -0.17874,11.55849 -1.31159,12.16477 -1.21034,0.64775 -14.67973,0.33644 -15.4275,-0.35657 z m 21.83601,-34.56172 c 7.03487,-2.63208 4.93049,-14.48835 -2.66394,-15.00888 -2.62182,-0.1797 -2.3871,-0.90521 -2.46622,7.62302 -0.081,8.72656 0.25481,9.20996 5.13016,7.38586 z m 36.13999,34.78772 c -1.28766,-0.69952 -1.28483,-0.6457 -1.28483,-24.4767 0,-26.36923 0.66399,-23.17356 -4.79324,-23.06896 -6.4364,0.12338 -6.31926,0.26639 -6.31926,-7.71524 0,-7.99073 -2.64507,-7.08171 20.32976,-6.98665 21.92865,0.0907 19.35774,-0.88909 19.35774,7.37763 0,6.47204 -0.17163,7.07364 -2.0385,7.14541 -0.4068,0.0156 -2.37063,0.0454 -4.36407,0.0661 -2.39589,0.0249 -3.73093,0.14409 -3.93862,0.35154 -0.23638,0.23612 -0.33408,5.94914 -0.39457,23.07261 -0.0856,24.23157 -0.0435,23.51898 -1.42978,24.23582 -1.1055,0.57168 -14.07189,0.57031 -15.12463,-0.002 z m 46.33182,-0.36017 c -0.78541,-0.78541 -0.78541,-0.78541 -0.78541,-13.00088 0,-12.21547 0,-12.21547 -3.73939,-20.5917 -5.22119,-11.69544 -8.23394,-18.39112 -10.07005,-22.38013 -2.83231,-6.15327 -3.00564,-6.01881 7.6274,-5.9168 7.61801,0.0731 8.04594,0.10348 8.53444,0.60611 0.4215,0.43369 5.56484,15.80868 6.26148,18.71744 0.27526,1.1493 0.57078,0.65348 1.58332,-2.65638 0.521,-1.70306 1.05116,-3.39413 1.17813,-3.75794 0.12698,-0.3638 0.97208,-3.0427 1.87801,-5.95312 2.39952,-7.70882 1.35952,-7.06243 11.19426,-6.95752 9.72541,0.10374 9.34342,-0.43891 5.61217,7.97245 -2.41585,5.44603 -6.82949,15.55621 -10.5167,24.09024 -1.81598,4.20308 -1.81598,4.20308 -1.82229,15.7427 -0.007,11.92257 -0.10185,13.2203 -1.0401,14.15926 -1.04328,1.04406 -14.84148,0.98006 -15.89527,-0.0737 z M 55.13213,362.2664 c -2.25807,-0.21967 -2.07474,3.03638 -2.15298,-38.23925 -0.0758,-39.97642 -0.14703,-38.04773 1.4298,-38.70657 1.71024,-0.71459 18.41572,-0.51429 19.26463,0.23098 0.47171,0.41412 1.9272,3.57492 4.78204,10.3849 8.45936,20.1791 10.81219,25.67516 11.15266,26.052 0.2907,0.32176 0.35004,-2.60698 0.35004,-17.2772 0,-22.40528 -1.44101,-19.75501 10.74121,-19.75501 9.765,0 9.93475,0.0298 10.4185,1.82627 0.6858,2.54686 0.20579,73.99574 -0.50219,74.74931 -0.84177,0.89599 -20.00539,1.09028 -21.09198,0.21384 -0.80861,-0.65222 -1.23539,-1.61353 -6.8397,-15.40609 -4.17998,-10.28722 -7.63859,-18.44571 -7.95963,-18.77597 -0.32589,-0.33523 -0.37663,1.83346 -0.37663,16.0996 0,17.85184 -0.0181,18.08642 -1.42057,18.43107 -0.61254,0.15052 -16.44318,0.30364 -17.7952,0.17212 z m 85.73178,0.0126 c -18.9964,-0.0676 -19.07882,-0.0702 -19.57917,-0.62306 -0.90057,-0.99507 -0.89958,-74.77476 0.001,-75.8219 0.77769,-0.90421 38.93889,-1.36019 40.6304,-0.48548 1.18589,0.61324 1.32864,1.61672 1.33027,9.35148 0.002,9.40265 1.1003,8.51246 -10.50263,8.51246 -11.28593,0 -10.13339,-0.63151 -10.13339,5.55235 0,6.1973 -1.00504,5.56015 8.7705,5.56015 10.422,0 9.48575,-0.84502 9.48575,8.56138 0,9.87199 0.72701,9.13549 -9.01703,9.13468 -3.69912,-3.1e-4 -7.10413,0.007 -7.56667,0.0152 -1.60482,0.0301 -1.67255,0.2776 -1.67255,6.1108 0,6.51981 -1.22227,5.81124 10.02432,5.81124 9.51997,0 10.05071,0.0618 10.584,1.23225 0.49109,1.07781 0.39704,14.99848 -0.10792,15.97497 -0.64976,1.25649 0.58521,1.19468 -22.24689,1.11345 z m 77.09365,-0.0644 c -12.30315,-0.16307 -9.96623,2.16224 -16.35311,-16.27188 -2.0683,-5.96964 -2.45388,-6.73348 -2.86122,-5.66822 -0.13484,0.35263 -1.7583,4.51067 -3.60769,9.2401 -1.84939,4.72942 -3.55966,9.12559 -3.8006,9.76926 -1.11922,2.9899 -0.87047,2.93074 -12.32145,2.93074 -11.05154,0 -11.53226,-0.071 -11.53226,-1.70241 0,-0.96606 6.66754,-14.29385 17.51046,-35.00176 2.05604,-3.92664 2.95046,-1.48031 -8.92632,-24.41458 -9.24831,-17.85864 -9.76214,-16.20167 4.98821,-16.08566 12.08249,0.095 10.16634,-1.22347 14.7254,10.13253 1.92792,4.80219 3.6014,8.83333 3.71885,8.9581 0.31951,0.3394 0.54028,-0.17548 3.98182,-9.28627 4.15291,-10.99396 2.19456,-9.70949 14.94286,-9.80094 14.44136,-0.1036 13.82902,-1.55082 5.8414,13.80581 -3.1112,5.98146 -6.56273,12.66132 -7.67005,14.84414 -1.10733,2.18281 -2.54157,4.97584 -3.1872,6.20672 -0.64564,1.23089 -1.14385,2.30245 -1.10713,2.38125 0.0367,0.0788 2.78688,5.62015 6.11147,12.31411 15.59876,31.40765 15.6569,27.86249 -0.45344,27.64896 z m 33.09588,-0.009 c -2.76627,-0.31823 -2.60653,1.53871 -2.60824,-30.31971 -0.001,-25.32292 -0.0369,-27.57978 -0.43977,-27.91354 -0.34295,-0.28413 -1.73873,-0.36313 -6.41615,-0.36313 -8.29092,0 -7.69763,0.71374 -7.69763,-9.26041 0,-10.65794 -3.48147,-9.39368 25.85452,-9.38881 28.88343,0.005 25.43728,-1.24821 25.45823,9.25651 0.0201,10.07592 0.57381,9.39271 -7.6124,9.39271 -7.96719,0 -6.92327,-4.40696 -6.92327,29.22714 0,30.98223 0.10463,29.36893 -1.9056,29.38203 -0.33437,0.002 -4.17982,0.0319 -8.54544,0.0662 -4.36563,0.0342 -8.48954,-10e-4 -9.16425,-0.0789 z"
       id="path49" /><path
       style="fill:#6641a9;fill-opacity:1;stroke-width:0.823618"
       d="m 256.00975,360.41802 c -0.0956,-0.0846 -0.65069,-0.20965 -1.12908,-0.25425 -1.21217,-0.11302 -1.86557,-4.0137 -1.09968,-6.56493 0.34832,-1.16025 0.46314,-2.238 0.4807,-4.51213 0.014,-1.81539 0.0959,-2.78658 0.20846,-2.47503 0.17143,0.47415 0.18711,0.47911 0.20845,0.0659 0.0126,-0.24576 -0.1332,-0.58526 -0.32422,-0.75447 -0.37482,-0.33203 -0.54314,-10.79689 -0.17365,-10.79689 0.0955,0 0.17365,-1.59206 0.17365,-3.53792 0,-3.58156 0.21721,-11.81734 0.55849,-21.17626 0.10284,-2.82008 0.1446,-5.54274 0.0928,-6.05036 -0.16132,-1.58084 -0.15801,-15.84492 0.005,-16.81795 0.11452,-0.68819 0.0939,-0.8186 -0.0811,-0.51274 -0.166,0.29021 -0.19991,-0.2497 -0.11594,-1.84588 0.0653,-1.24083 0.18745,-3.84467 0.27153,-5.7863 0.1068,-2.46536 0.22927,-3.49098 0.40615,-3.40012 0.1393,0.0716 0.0548,-0.0703 -0.1878,-0.31533 -0.49273,-0.49761 -0.82127,-0.6202 -0.36932,-0.1378 0.4086,0.4361 -0.0139,0.36918 -0.65437,-0.10364 -0.29624,-0.2187 -0.4797,-0.48209 -0.40768,-0.58531 0.072,-0.10323 -0.0429,-0.17502 -0.25529,-0.15956 -0.45971,0.0335 -2.22155,-2.08771 -2.05443,-2.47346 0.0624,-0.14427 -0.0129,-0.24034 -0.16746,-0.21349 -0.1546,0.0268 -0.26681,-0.11171 -0.24935,-0.3079 0.0174,-0.19619 -0.0431,-0.31573 -0.13462,-0.26563 -0.18271,0.10002 -2.0967,-2.96922 -2.0967,-3.36222 0,-0.13427 0.11458,-0.1814 0.25464,-0.10473 0.17896,0.098 0.17653,0.0102 -0.008,-0.29554 -0.30125,-0.49862 -0.52913,-0.58647 -0.33021,-0.1273 0.0734,0.1692 0.0777,0.30764 0.0102,0.30764 -0.26782,0 -1.28784,-2.28919 -1.1678,-2.62082 0.0875,-0.24183 0.0629,-0.27367 -0.0784,-0.10104 -0.28032,0.34274 -3.20931,-4.91722 -2.95493,-5.30654 0.0999,-0.15291 0.0965,-0.20973 -0.008,-0.12625 -0.10409,0.0835 -1.14069,-1.43937 -2.30366,-3.3841 -4.10859,-6.87041 -5.5347,-8.06723 -8.7449,-7.33885 -2.36644,0.53695 -2.95495,1.09853 -3.44005,3.28268 -0.1879,0.84601 -0.34825,1.17825 -0.48125,0.99709 -0.13217,-0.18006 -0.18468,-0.0642 -0.15566,0.34359 0.0901,1.26526 -0.0273,1.87136 -0.29782,1.53823 -0.20645,-0.25423 -0.22537,-0.2411 -0.10894,0.0757 0.0774,0.2108 -0.22017,2.01053 -0.66146,3.99939 -0.44129,1.98887 -1.06739,5.09282 -1.39134,6.89767 -0.72474,4.03775 -1.5157,6.46056 -2.10913,6.46056 -0.0656,0 -0.0114,-0.17853 0.12047,-0.39671 0.13183,-0.2182 0.23598,-0.472 0.23148,-0.56402 -0.005,-0.092 -0.14955,0.0588 -0.3223,0.3351 -0.17276,0.27633 -0.25516,0.63845 -0.18313,0.80472 0.0938,0.21661 0.0219,0.26524 -0.25376,0.17154 -0.22996,-0.0782 -0.36256,-0.0364 -0.32962,0.10382 0.0303,0.12904 -0.33561,0.46421 -0.81315,0.74483 -0.74179,0.4359 -0.86826,0.62019 -0.86826,1.2653 0,1.33509 -0.2938,3.88354 -0.43857,3.80428 -0.0772,-0.0422 -0.14297,0.58353 -0.14627,1.39058 -0.009,2.24713 -0.15653,4.52111 -0.37049,5.7179 -0.10634,0.5951 -0.19935,2.65099 -0.20661,4.56864 -0.007,1.91765 -0.10793,5.37867 -0.22376,7.69113 -0.11582,2.31247 -0.28525,6.55798 -0.37654,9.43447 -0.0913,2.87648 -0.24269,4.99924 -0.33646,4.71722 -0.14121,-0.42466 -0.17446,-0.36509 -0.19357,0.34682 -0.0126,0.47275 0.0812,0.9166 0.20845,0.98631 0.32789,0.17951 0.28769,0.86869 -0.0578,0.9922 -0.23154,0.0828 -0.23154,0.10669 0,0.11965 0.21176,0.0119 0.28847,0.58021 0.28587,2.11843 -0.002,1.55812 -0.0682,2.02262 -0.25338,1.7946 -0.21699,-0.26721 -0.23438,-0.26436 -0.13232,0.0216 0.88609,2.48309 0.27325,8.96979 -0.82164,8.69667 -0.41043,-0.10239 -0.44951,-0.0839 -0.17832,0.0843 0.30871,0.19146 0.30871,0.21836 0,0.24215 -1.30762,0.10075 -2.18564,-0.54355 -2.02901,-1.4889 0.0511,-0.30849 0.009,-0.51473 -0.0945,-0.4583 -0.17748,0.0972 -0.0814,-1.64006 0.17711,-3.2007 0.0654,-0.39481 0.21309,-3.11748 0.32824,-6.05036 0.28964,-7.3776 0.50386,-10.76759 0.68042,-10.76759 0.0825,0 0.11086,-0.29996 0.063,-0.66657 -0.0479,-0.36661 0.0356,-2.00482 0.18542,-3.64047 0.14988,-1.63564 0.35695,-6.48107 0.46014,-10.76759 0.10318,-4.28653 0.29632,-8.62433 0.42913,-9.63955 0.34967,-2.67271 0.50136,-7.10377 0.23827,-6.95974 -0.30856,0.16893 -1.62464,-0.11417 -1.48189,-0.31877 0.0649,-0.0931 -0.0831,-0.12268 -0.32897,-0.0657 -0.49687,0.1151 -1.90979,-0.5326 -1.72854,-0.79238 0.0633,-0.0908 -0.0324,-0.11494 -0.21281,-0.0536 -0.39491,0.13423 -1.48663,-0.95506 -1.69529,-1.69154 -0.31866,-1.12468 1.76437,-15.18524 2.21423,-14.94614 0.0728,0.0387 0.152,-0.3583 0.17604,-0.88218 0.0665,-1.44982 2.59545,-12.45516 4.84783,-21.09682 0.21223,-0.81426 0.47359,-1.43245 0.58083,-1.37375 0.10724,0.0587 0.1386,-0.0233 0.0698,-0.18224 -0.0689,-0.15894 0.45694,-2.48166 1.16842,-5.1616 1.26319,-4.75803 1.53354,-6.47787 1.17366,-7.46626 -0.13346,-0.3665 -0.1051,-0.44754 0.11473,-0.32723 0.19128,0.10473 0.23429,0.077 0.12457,-0.0802 -0.0921,-0.13207 -0.25362,-0.19301 -0.35882,-0.13541 -0.16932,0.0927 -0.51275,-0.3641 -0.56711,-0.75434 -0.0113,-0.079 -0.17125,-0.26355 -0.35612,-0.41019 -0.29018,-0.23017 -0.29422,-0.21755 -0.0296,0.0923 0.16864,0.19741 0.21009,0.35892 0.0921,0.35892 -0.32724,0 -1.57338,-1.2608 -1.88079,-1.9029 -0.15004,-0.31338 -0.42998,-0.62321 -0.62211,-0.68851 -0.19212,-0.0653 -0.34929,-0.27497 -0.34929,-0.46594 0,-0.42986 1.18411,-2.07981 1.40559,-1.95855 0.0887,0.0486 0.29536,-0.19811 0.45908,-0.54824 0.33426,-0.7148 2.00115,-1.88712 2.46101,-1.73081 0.1647,0.056 0.27467,0.005 0.24436,-0.11465 -0.12404,-0.48718 6.44383,-3.17494 7.2832,-2.98051 0.23031,0.0533 0.36851,0.025 0.3071,-0.063 -0.1573,-0.22545 2.13871,-0.7648 4.98628,-1.1713 6.64796,-0.94905 16.51331,0.18057 21.87003,2.50418 2.58111,1.11963 5.06918,2.66652 4.8331,3.00488 -0.0893,0.1279 -0.0582,0.17462 0.0695,0.1047 0.42154,-0.23078 1.8609,1.27553 1.459,1.52685 -0.28715,0.17955 -0.27682,0.19616 0.0619,0.0996 0.7587,-0.21634 2.75119,3.19215 2.77781,4.7519 0.009,0.48623 0.0886,0.77865 0.1785,0.64983 0.19549,-0.28019 0.68958,2.49472 0.68765,3.86196 -0.005,3.31255 -2.26919,10.02292 -3.053,9.04691 -0.17789,-0.2215 -0.1988,-0.2002 -0.0912,0.0929 0.18016,0.49078 -1.03385,1.98742 -3.31,4.08055 -1.49555,1.37532 -2.77197,2.23693 -1.85016,1.24891 0.29025,-0.31111 0.27345,-0.31616 -0.19395,-0.0583 -0.30343,0.16737 -0.4131,0.33626 -0.26944,0.41491 0.13711,0.075 -0.21438,0.4641 -0.80972,0.89623 -0.57859,0.41998 -1.16321,0.7027 -1.29915,0.62828 -0.13595,-0.0744 -0.21855,-0.0131 -0.18355,0.1363 0.0375,0.15993 -0.12142,0.25718 -0.38638,0.23652 -0.2475,-0.0193 -0.66141,0.0961 -0.91978,0.25637 -0.25837,0.1603 -0.34855,0.29147 -0.20039,0.29147 0.14817,0 0.33379,-0.0923 0.41249,-0.2051 0.0787,-0.1128 0.24729,-0.2051 0.37463,-0.2051 0.5258,0 -0.19118,0.45992 -3.21209,2.06044 -1.75036,0.92737 -3.21361,1.70907 -3.25168,1.73713 -0.0769,0.0567 0.4722,0.94982 1.85222,3.01261 0.52532,0.78523 0.84631,1.48067 0.74826,1.62119 -0.10318,0.1479 -0.0738,0.1925 0.0736,0.1118 0.40411,-0.22123 1.57289,1.71486 1.18378,1.96096 -0.2472,0.15635 -0.23292,0.17633 0.0659,0.0922 0.34008,-0.0958 3.44463,4.18338 3.43663,4.73687 -8.7e-4,0.0834 -0.26759,-0.24062 -0.59197,-0.72004 -0.32437,-0.47941 -0.64186,-0.87166 -0.70553,-0.87166 -0.0637,0 0.14829,0.39225 0.47103,0.87166 0.32274,0.47942 0.69512,0.87166 0.8275,0.87166 0.34351,0 2.34421,3.17848 2.16363,3.43731 -0.0826,0.1184 -0.0497,0.16027 0.073,0.0931 0.12279,-0.0672 0.60775,0.5661 1.07768,1.40738 0.9406,1.68387 0.98875,1.82059 0.56502,1.60459 -0.16815,-0.0857 -0.20857,-0.0693 -0.0965,0.0391 0.10611,0.1027 0.29251,0.18671 0.4142,0.18671 0.779,0 2.98777,5.85623 2.97819,7.89623 -0.005,0.833 -0.49143,1.76642 -0.88374,1.69205 -0.14877,-0.0282 -0.24444,0.0579 -0.21261,0.19141 0.0318,0.13347 -0.22078,0.36591 -0.56137,0.51652 -0.35579,0.15733 -0.6808,0.5122 -0.76391,0.83408 -0.19376,0.75054 -0.96383,1.55343 -1.30879,1.36458 -0.17367,-0.0951 -0.21227,-0.0617 -0.10556,0.0912 0.22335,0.32011 -1.2338,0.85621 -2.23091,0.82078 -0.75992,-0.027 -0.75992,-0.027 0.0503,-0.18648 0.81038,-0.15948 0.81038,-0.15948 0.0358,-0.12683 -0.98375,0.0415 -0.94985,-0.27389 -1.05053,9.77477 -0.0742,7.40392 -0.25967,13.5328 -0.49856,16.47281 -0.0841,1.03536 -0.0433,1.35973 0.15712,1.24997 0.19472,-0.10659 0.23501,0.0479 0.14349,0.55024 -0.07,0.38414 -0.19311,4.74469 -0.27359,9.6901 -0.0805,4.9454 -0.24815,11.08293 -0.37258,13.63895 -0.12443,2.55601 -0.23057,6.0057 -0.23587,7.66598 -0.006,1.694 -0.10702,3.072 -0.23153,3.14018 -0.13693,0.075 -0.11671,0.29344 0.0527,0.57051 0.18786,0.30706 0.29055,2.13492 0.3248,5.78154 0.0299,3.18525 0.16425,5.84636 0.33359,6.60859 0.42995,1.93513 0.207,7.12179 -0.34627,8.05584 -0.54888,0.92664 -1.6728,1.63482 -2.05593,1.29543 z M 237.91296,236.55843 c 2.41951,-0.70001 5.5113,-1.99411 8.19882,-3.43171 2.33923,-1.25129 2.45279,-1.29817 2.19923,-0.90787 -0.0917,0.141 -0.10645,0.21022 -0.033,0.15382 0.0735,-0.0564 0.15114,-0.19484 0.17258,-0.30765 0.057,-0.29996 0.48559,-0.71783 0.73622,-0.71783 0.11927,0 0.14252,0.10655 0.0516,0.23679 -0.10318,0.14788 -0.0634,0.18106 0.1059,0.0884 0.1491,-0.0816 0.22002,-0.22162 0.15759,-0.3111 -0.13389,-0.19189 3.60616,-3.01339 3.88561,-2.93131 0.10499,0.0309 0.12873,-0.033 0.0527,-0.14185 -0.17055,-0.24443 1.23414,-1.69723 1.50019,-1.55157 0.10578,0.0579 0.26761,-0.003 0.35975,-0.13491 0.10465,-0.14997 0.0672,-0.18519 -0.0998,-0.0938 -0.37325,0.20434 -0.33327,-0.008 0.11568,-0.61515 0.29642,-0.40074 0.43218,-0.45706 0.60067,-0.24916 0.16047,0.19801 0.18401,0.17559 0.0895,-0.0853 -0.0705,-0.19465 0.0239,-0.67622 0.2097,-1.07018 1.82686,-3.87304 -2.96151,-6.62858 -11.18651,-6.43742 -4.2028,0.0977 -6.89339,3.04207 -6.99638,7.65639 -0.008,0.34731 -0.0474,0.36304 -0.259,0.10255 -0.20813,-0.2563 -0.22701,-0.24528 -0.11309,0.066 0.20396,0.55737 -0.33372,2.29493 -0.60363,1.95069 -0.14662,-0.18701 -0.16836,-0.12843 -0.0687,0.18535 0.17281,0.54463 -1.00953,4.40266 -1.30044,4.24339 -0.10928,-0.0598 -0.14187,0.0224 -0.0724,0.18275 0.0695,0.16034 -0.0965,1.01885 -0.36878,1.9078 -0.27228,0.88895 -0.49289,1.77978 -0.49025,1.97963 0.002,0.22669 -0.0988,0.3083 -0.27059,0.217 -0.16084,-0.0855 -0.14322,-0.002 0.0423,0.20066 0.4389,0.47929 1.24131,0.43556 3.38437,-0.18446 z M 83.018261,316.85371 c -0.382022,-0.21952 -0.665964,-0.49651 -0.630979,-0.61554 0.035,-0.11904 -0.03793,-0.16084 -0.162032,-0.0929 -0.294092,0.161 -0.784918,-0.6543 -0.621294,-1.03202 0.06954,-0.16039 0.0254,-0.29161 -0.09788,-0.29161 -0.255246,0 -0.297975,-1.92758 -0.07473,-3.37043 0.100586,-0.64988 0.215418,-0.87763 0.350593,-0.69519 0.120014,0.16198 0.143146,-0.0688 0.05746,-0.57253 -0.147639,-0.86742 0.134859,-5.07734 0.72697,-10.83383 0.618223,-6.01025 0.393289,-13.44669 -0.406711,-13.44669 -0.243132,0 -0.389326,-0.0756 -0.324865,-0.16799 0.06446,-0.0924 -0.204434,-0.12617 -0.597542,-0.075 -2.888759,0.37557 -12.840002,-3.01913 -12.072978,-4.11849 0.09065,-0.12997 0.03612,-0.15202 -0.138923,-0.0562 -0.348494,0.19078 -2.149246,-1.29169 -1.937565,-1.59511 0.07812,-0.1119 0.03658,-0.14579 -0.09212,-0.0753 -0.71882,0.39353 -4.759357,-5.86494 -4.368699,-6.76675 0.06977,-0.16094 0.0289,-0.23903 -0.09076,-0.17353 -0.274268,0.15015 -1.024178,-1.982 -1.607472,-4.57034 -0.424876,-1.88534 -0.513427,-2.53967 -0.838078,-6.19249 -0.363316,-4.08782 0.964199,-13.65318 2.815244,-20.28521 1.435089,-5.14169 5.817832,-16.81789 6.189231,-16.4889 0.09426,0.0835 0.108826,0.008 0.03251,-0.16891 -0.07643,-0.17639 0.230647,-1.06532 0.682356,-1.9754 0.451732,-0.91007 0.821302,-1.70838 0.821302,-1.77401 0,-0.72521 2.723025,-4.89363 3.071981,-4.70259 0.136586,0.0748 0.172203,0.0333 0.08218,-0.0958 -0.625008,-0.8958 1.781437,-0.99975 3.616848,-0.15624 1.210695,0.55641 1.888017,0.64049 2.769072,0.34376 1.743517,-0.58719 3.792719,0.37739 4.518505,2.12689 0.267438,0.64469 0.635529,1.11779 0.997016,1.2815 0.315179,0.14274 0.544426,0.35884 0.509442,0.48022 -0.035,0.12138 0.03793,0.1651 0.162032,0.0972 0.765364,-0.41901 0.990897,2.3779 0.379628,4.70773 -0.734331,2.79891 -1.340486,4.61038 -1.511402,4.51681 -0.09528,-0.0522 -0.13504,0.11005 -0.08839,0.36045 0.112891,0.60606 -2.813393,8.32481 -3.007881,7.93403 -0.0823,-0.1652 -0.09054,-0.0906 -0.01851,0.16584 0.07383,0.26303 -0.174687,1.29098 -0.570301,2.35862 -3.738995,10.09029 -5.641993,21.22182 -4.636205,27.11931 0.134668,0.78963 0.282385,1.74834 0.328264,2.13047 0.04583,0.38214 0.206872,0.79746 0.35775,0.92294 0.205608,0.171 0.204073,0.0997 -0.0056,-0.28459 -0.245831,-0.44948 -0.209198,-0.43683 0.296925,0.10244 0.31755,0.33836 0.540859,0.66753 0.496233,0.73148 -0.04459,0.064 0.251814,0.27937 0.658762,0.47868 0.739897,0.36238 0.739897,0.36238 0.161061,-0.0827 -0.318362,-0.24481 -0.434414,-0.37773 -0.257876,-0.29538 0.427404,0.19937 3.262484,0.45434 3.142684,0.28263 -0.05159,-0.0739 0.343052,-0.3088 0.876946,-0.52195 3.810252,-1.52121 7.710477,-7.12736 11.042501,-15.87237 2.542772,-6.67362 2.843828,-7.37955 3.089682,-7.24496 0.135954,0.0744 0.167123,0.0293 0.07304,-0.10567 -0.09042,-0.1296 0.507443,-2.05895 1.328599,-4.28746 0.821144,-2.2285 2.138375,-5.8977 2.927205,-8.15377 0.78881,-2.25606 1.88761,-5.3479 2.44175,-6.87074 0.55416,-1.52285 1.3343,-3.83019 1.73364,-5.12743 0.39935,-1.29723 0.81562,-2.58935 0.92505,-2.87136 0.10939,-0.282 0.37032,-1.0665 0.57977,-1.74332 0.43786,-1.41493 1.42652,-3.03946 1.74399,-2.86566 0.12132,0.0664 0.1487,-0.0368 0.0624,-0.23575 -0.1188,-0.27425 -0.0633,-0.32333 0.24622,-0.21809 0.23513,0.0799 0.34201,0.0534 0.25973,-0.0646 -0.14826,-0.21249 2.53021,-1.84592 3.02688,-1.84592 0.65723,0 1.07917,0.25272 0.75495,0.45217 -0.2163,0.13306 -0.16364,0.15416 0.17575,0.0704 0.58232,-0.1437 1.654,0.53917 1.95811,1.24767 0.11468,0.2672 0.39342,0.48875 0.61943,0.49233 0.48456,0.008 1.22128,0.46394 1.22128,0.75633 0,0.11269 0.4061,0.61356 0.90245,1.11305 2.29003,2.30455 2.29073,3.90932 0.006,12.2758 -2.46029,9.00676 -4.36037,14.9006 -4.67814,14.51101 -0.1432,-0.17556 -0.16599,-0.1381 -0.072,0.11844 0.18814,0.51376 -0.0759,1.35322 -0.40438,1.28551 -0.14749,-0.0304 -0.19004,-0.0166 -0.0945,0.0308 0.28885,0.14308 0.21906,0.40024 -1.02539,3.77837 -0.77794,2.11176 -1.26832,3.16344 -1.39626,2.99446 -0.12282,-0.16222 -0.15092,-0.067 -0.0745,0.25231 0.20252,0.84655 -2.01411,6.42572 -2.42425,6.10173 -0.27595,-0.21798 -0.279,-0.20297 -0.0203,0.10003 0.46466,0.54431 -2.8049,8.75058 -3.43398,8.61895 -0.12832,-0.0268 -0.17467,0.0865 -0.10307,0.2519 0.23595,0.54465 -2.7651,5.13883 -3.20097,4.90021 -0.16099,-0.0881 -0.19405,-0.0487 -0.0874,0.10423 0.10149,0.14545 -0.22668,0.70338 -0.80275,1.36481 -0.908145,1.04271 -1.392299,1.455 -1.012772,0.86243 0.09031,-0.14101 -0.216096,0.0617 -0.680934,0.45042 -0.464827,0.38874 -0.845145,0.75211 -0.845145,0.80749 0,0.0553 0.312572,-0.16458 0.694605,-0.4888 1.09268,-0.92731 0.812248,-0.38109 -0.485701,0.94608 -0.649166,0.66378 -1.276895,1.15399 -1.394944,1.08936 -0.11805,-0.0646 -0.18601,0.005 -0.151025,0.15411 0.035,0.14939 -0.0543,0.2522 -0.198225,0.22848 -0.144015,-0.0237 -0.456586,0.16087 -0.694605,0.41019 -0.432755,0.45333 -0.432755,0.45333 0.08817,0.0626 0.872531,-0.6544 0.580314,-0.0494 -0.347308,0.71906 -1.410614,1.16854 -1.71683,1.3428 -1.54632,0.87996 0.113286,-0.30754 0.09359,-0.32621 -0.09517,-0.0901 -0.130964,0.16382 -0.191655,0.36442 -0.134904,0.44577 0.116108,0.16641 -1.803011,1.6186 -2.125652,1.60847 -0.114223,-0.004 -0.0056,-0.14203 0.241755,-0.30764 0.247185,-0.16562 0.338096,-0.30112 0.201995,-0.30112 -0.321524,0 -0.803443,0.51482 -0.627661,0.67053 0.232273,0.20575 -2.40299,1.63815 -2.707298,1.47156 -0.174924,-0.0958 -0.22253,-0.0689 -0.125207,0.0705 0.09438,0.1353 -0.263013,0.38963 -0.89616,0.63773 -1.053179,0.41267 -1.053179,0.41267 -1.048461,6.93376 0.0023,3.68238 -0.134757,8.12815 -0.315698,10.21283 -0.389292,4.48485 -0.305979,7.1031 0.289045,9.08502 0.740156,2.46531 -0.04662,5.08215 -1.713567,5.6991 -0.922419,0.3414 -0.748793,0.35634 -1.610171,-0.13859 z m 41.250089,-10.04184 c -1.20463,-0.83936 -1.32222,-2.87904 -0.51099,-8.86337 0.719,-5.30389 0.61055,-15.94129 -0.16253,-15.94458 -1.2194,-0.005 -4.23816,-1.08351 -3.99779,-1.42803 0.0699,-0.10021 0.006,-0.24897 -0.14397,-0.33059 -0.17908,-0.0981 -0.20871,-0.059 -0.0874,0.11498 0.12294,0.17621 0.0772,0.23031 -0.13787,0.16343 -0.17691,-0.055 -0.30737,-0.25054 -0.2899,-0.43459 0.0175,-0.18405 -0.0706,-0.27863 -0.1956,-0.21018 -0.14228,0.0779 -0.19746,-0.33781 -0.1475,-1.11124 0.0439,-0.67963 0.007,-1.19551 -0.0823,-1.14641 -0.23329,0.12857 -0.66406,-0.65723 -0.46654,-0.85104 0.091,-0.0893 0.0436,-0.10058 -0.10533,-0.025 -0.57554,0.2919 -1.29097,-0.92137 -1.13069,-1.91749 0.0816,-0.50762 0.24511,-1.98432 0.36319,-3.28156 0.4459,-4.89846 0.59461,-5.52961 5.09808,-21.63772 0.78843,-2.82009 1.52663,-5.15839 1.64042,-5.19621 0.11381,-0.0378 0.1475,-0.15398 0.0749,-0.25807 -0.21538,-0.30871 0.62443,-3.06383 0.88965,-2.91863 0.14237,0.0779 0.16599,0.0278 0.059,-0.12545 -0.23445,-0.33603 2.45711,-10.47806 2.73969,-10.32336 0.11928,0.0653 0.14508,0.0158 0.0575,-0.1099 -0.17958,-0.25736 0.33632,-3.74687 0.53753,-3.63594 0.18091,0.0997 0.16272,-2.84123 -0.0184,-2.96701 -0.30714,-0.21335 -0.88476,-1.69357 -0.74119,-1.89935 0.0825,-0.11825 0.0424,-0.15609 -0.0891,-0.0841 -0.26328,0.14414 -0.60775,-1.0165 -0.39302,-1.32426 0.0726,-0.10401 0.0461,-0.1759 -0.0589,-0.15974 -0.82256,0.12657 -0.97091,-0.71166 -0.32457,-1.83393 0.70403,-1.22243 3.18189,-3.09593 3.71129,-2.8061 0.11592,0.0635 0.28615,0.007 0.37829,-0.12476 0.10465,-0.14997 0.0672,-0.18518 -0.0998,-0.0938 -0.14702,0.0805 -0.26731,0.10227 -0.26731,0.0484 0,-0.24071 1.64047,-0.96517 1.88384,-0.83195 0.18217,0.0997 0.20916,0.0593 0.082,-0.12298 -0.13877,-0.19888 -0.0831,-0.23547 0.20778,-0.13659 0.21851,0.0743 0.33969,0.0525 0.26927,-0.0485 -0.28648,-0.41061 6.29258,-2.41782 8.28424,-2.52745 0.53097,-0.0292 1.02201,-0.12003 1.09123,-0.2018 0.45107,-0.53291 9.2268,-0.93839 12.72437,-0.58793 3.81019,0.38179 8.59345,1.73887 8.18621,2.32255 -0.0914,0.13104 -0.0454,0.16128 0.11329,0.0744 0.46002,-0.25185 0.78697,0.0808 0.4522,0.46014 -0.26727,0.30284 -0.2568,0.31023 0.0944,0.0667 0.43338,-0.30062 0.97882,-0.13837 0.73064,0.21734 -0.0967,0.13862 -0.0465,0.16309 0.1329,0.0648 0.18117,-0.0992 0.6244,0.13302 1.19344,0.62523 0.9627,0.83271 1.26097,1.44032 0.38428,0.78282 -0.52094,-0.39071 -0.52094,-0.39071 -0.0882,0.0626 0.23802,0.24933 0.53537,0.43391 0.66078,0.41019 0.36843,-0.0697 1.73146,2.26923 2.11391,3.62741 0.67948,2.41298 0.77707,8.15829 0.13258,7.80545 -0.11495,-0.0629 -0.15073,0.0201 -0.0796,0.18443 0.3545,0.81833 -2.19335,5.86617 -2.88914,5.72401 -0.13141,-0.0268 -0.18539,0.0747 -0.11996,0.22578 0.1609,0.37143 -4.15548,4.33772 -4.5096,4.14385 -0.14751,-0.0807 -0.23956,-0.0567 -0.20458,0.0533 0.035,0.11007 -0.35314,0.52544 -0.86252,0.92304 -0.92614,0.72292 -0.92614,0.72292 0.66498,2.15283 0.87511,0.78645 1.52745,1.52115 1.44964,1.63267 -0.0778,0.11152 0.0397,0.32859 0.26117,0.48238 0.36899,0.25625 0.3763,0.24533 0.0874,-0.13059 -0.17339,-0.2256 0.0611,-0.0488 0.52095,0.39309 0.83028,0.79759 1.1016,1.30464 0.54679,1.02182 -0.16816,-0.0857 -0.20858,-0.0693 -0.0965,0.0391 0.10611,0.10269 0.30582,0.18671 0.44377,0.18671 0.13796,0 0.29908,0.12821 0.35804,0.28491 0.0715,0.18993 0.008,0.23065 -0.19013,0.12214 -0.19642,-0.10753 -0.24048,-0.0813 -0.1298,0.0774 0.0921,0.13207 0.26053,0.18922 0.3742,0.127 0.58276,-0.31905 2.23433,3.95784 2.54144,6.58128 0.67425,5.7598 -1.85979,11.01033 -7.34274,15.21416 -1.46336,1.12197 -2.07752,1.40837 -1.31951,0.61529 0.44108,-0.46146 0.44108,-0.46146 -0.0707,-0.0781 -0.28147,0.21083 -0.48984,0.48278 -0.46306,0.60431 0.0695,0.31591 -5.6375,3.66629 -6.02238,3.53547 -0.17611,-0.0599 -0.26204,-0.0255 -0.19097,0.0763 0.42504,0.60918 -16.36482,7.66092 -17.40137,7.30858 -0.1785,-0.0607 -0.27238,-0.0356 -0.20863,0.0558 0.11913,0.17075 -4.99336,1.75104 -5.6896,1.75868 -0.2135,0.002 -0.33759,0.0768 -0.27575,0.16541 0.0619,0.0886 -0.10205,0.16115 -0.36429,0.16115 -0.42302,0 -0.47965,0.13289 -0.50263,1.1793 -0.0142,0.64863 -0.0675,1.50234 -0.11833,1.89715 -0.0508,0.39481 0.006,2.47142 0.12566,4.61468 0.14707,2.6277 0.1366,5.0254 -0.0321,7.36197 -0.22183,3.07144 -0.20208,3.72784 0.17392,5.77768 0.69632,3.79614 -0.85877,5.81983 -3.21214,4.18005 z m 8.01369,-39.73924 c -0.35664,-0.20068 4.7252,-1.53477 5.10756,-1.34083 0.14904,0.0756 0.18871,0.0574 0.0882,-0.0403 -0.2546,-0.24752 3.07428,-1.34833 3.64986,-1.20695 0.30713,0.0754 0.36915,0.0533 0.17964,-0.0642 -0.19643,-0.12174 0.32127,-0.40616 1.61104,-0.8851 2.24217,-0.83261 5.18913,-2.3668 6.70789,-3.49214 1.09986,-0.81494 1.64046,-1.05476 1.11614,-0.49514 -0.45197,0.4824 -0.12341,0.35981 0.36931,-0.1378 0.27179,-0.27449 0.30778,-0.37587 0.0938,-0.26413 -0.19101,0.0997 0.27223,-0.43244 1.02942,-1.18259 0.75719,-0.75014 1.44656,-1.32566 1.53192,-1.27893 0.0853,0.0467 0.35146,-0.12052 0.59133,-0.37167 0.43613,-0.45662 0.43613,-0.45662 -0.0848,-0.0659 -0.70284,0.52711 -0.66009,0.37639 0.28942,-1.02037 0.4457,-0.65564 0.81037,-1.26384 0.81037,-1.35154 0,-0.0877 0.18233,-0.10749 0.40519,-0.044 0.29165,0.0831 0.32158,0.0622 0.10679,-0.0747 -0.20159,-0.1285 -0.2531,-0.4507 -0.1588,-0.99356 0.2118,-1.21952 0.25573,-2.52404 0.0817,-2.4288 -0.0852,0.0467 -0.2121,-0.0471 -0.28196,-0.2084 -0.0699,-0.16127 -0.0548,-0.3302 0.0336,-0.3754 0.0884,-0.0452 0.0402,-0.0574 -0.10702,-0.027 -0.3038,0.0625 -1.07155,-0.61099 -0.88492,-0.77632 0.0671,-0.0594 -0.0369,-0.2247 -0.23103,-0.36738 -0.21058,-0.15481 -0.3529,-0.17349 -0.3529,-0.0464 0,0.11722 0.0781,0.25183 0.17365,0.29914 0.22027,0.10913 -0.28377,-0.0308 -1.37283,-0.3811 -1.39038,-0.44722 -4.27739,-0.56851 -6.56178,-0.27568 -1.14361,0.14661 -2.35586,0.27347 -2.6939,0.28192 -0.33804,0.008 -0.58024,0.0646 -0.53821,0.12487 0.042,0.0602 -0.61914,0.28275 -1.46921,0.49453 -0.85009,0.21176 -2.09643,0.59731 -2.76968,0.85677 -0.88927,0.3427 -1.36953,0.42275 -1.75582,0.29265 -0.38224,-0.12873 -0.53172,-0.10558 -0.53172,0.0824 0,0.16001 0.17873,0.22003 0.46069,0.15472 0.31021,-0.0719 0.40657,-0.0292 0.29505,0.13069 -0.0911,0.13057 -0.31578,0.2374 -0.49928,0.2374 -0.18351,0 -0.33364,0.0704 -0.33364,0.15646 0,0.0861 -0.22716,0.24757 -0.5048,0.35892 -0.34036,0.1365 -0.51315,0.39825 -0.53043,0.80346 -0.0141,0.33054 -0.14575,0.63646 -0.29257,0.67981 -0.14681,0.0433 -0.20955,0.2113 -0.1394,0.37322 0.0702,0.16191 0.007,0.29439 -0.14059,0.29439 -0.30745,0 -0.94777,1.24247 -0.92148,1.78801 0.0102,0.20103 0.15805,0.0425 0.32969,-0.35233 0.3915,-0.90055 0.42731,-0.66818 0.0834,0.54151 -0.18628,0.65534 -0.3245,0.84786 -0.4701,0.65484 -0.13547,-0.17959 -0.16073,-0.0975 -0.0736,0.23933 0.0772,0.2988 -0.14957,1.3257 -0.54371,2.46116 -0.37197,1.07163 -0.81062,2.4826 -0.97476,3.13549 -0.20769,0.82609 -0.3637,1.10675 -0.51301,0.92294 -0.1482,-0.18243 -0.16894,-0.14084 -0.0671,0.13446 0.1557,0.4207 -0.32256,2.40139 -0.54984,2.27709 -0.073,-0.04 -0.13381,0.31075 -0.13499,0.77935 -0.002,0.73922 0.0747,0.86915 0.57884,0.98156 0.84865,0.18925 1.08134,0.19279 0.75928,0.0115 z m 10.24765,-31.5298 c 1.93749,-0.39802 4.13057,-1.12597 6.18138,-2.05177 0.87597,-0.39545 1.69593,-0.66247 1.82212,-0.59339 0.27438,0.15021 0.94635,-0.29801 0.78769,-0.52542 -0.061,-0.0875 0.24574,-0.40004 0.68172,-0.6946 0.86258,-0.58281 1.18078,-0.68059 0.90854,-0.27919 -0.11505,0.16963 -0.0395,0.15975 0.22347,-0.0292 0.21854,-0.15707 0.3425,-0.33418 0.27547,-0.39355 -0.18844,-0.16693 0.60869,-0.86416 0.84196,-0.73645 0.11349,0.0621 0.17771,-0.009 0.14272,-0.15866 -0.035,-0.14938 0.0666,-0.24854 0.22579,-0.22034 0.15919,0.0282 0.26338,-0.0641 0.23154,-0.20509 -0.0318,-0.14101 0.08,-0.23101 0.24875,-0.20002 0.16863,0.031 0.24924,-0.0259 0.1791,-0.12641 -0.17275,-0.2476 0.65988,-0.89367 0.90151,-0.6995 0.10555,0.0848 0.11658,0.0383 0.0244,-0.1035 -0.0927,-0.14254 0.0478,-0.52558 0.31397,-0.85677 4.01934,-5.0001 -0.15547,-7.80809 -9.01902,-6.06624 -2.2443,0.44104 -2.48563,0.69673 -3.44107,3.64587 -0.45351,1.39988 -0.87457,2.35006 -1.00883,2.27655 -0.14371,-0.0787 -0.16819,0.0475 -0.065,0.33542 0.12302,0.34333 0.0905,0.42059 -0.12673,0.30163 -0.18834,-0.10309 -0.23426,-0.077 -0.12927,0.0735 0.0895,0.12838 -0.21934,1.36552 -0.68644,2.74922 -0.80642,2.38879 -1.48868,4.58033 -1.48868,4.78189 0,0.14987 0.34661,0.11056 1.97492,-0.22395 z m 59.50994,59.40193 c -0.072,-0.10317 1e-5,-0.23576 0.15999,-0.29465 0.15998,-0.0589 0.0424,-0.0898 -0.26113,-0.0688 -1.08883,0.0755 -1.40663,-1.88257 -0.96393,-5.93907 0.12134,-1.11179 0.38251,-5.62088 0.58037,-10.02021 0.19787,-4.39933 0.4124,-8.34489 0.47674,-8.7679 0.148,-0.97311 1.55124,-1.18611 -12.49834,1.89715 -6.68219,1.46644 -12.37515,2.66626 -12.65102,2.66626 -0.67628,0 -2.29831,-0.4403 -2.19001,-0.59447 0.0478,-0.0678 -0.45064,-0.12337 -1.10737,-0.12337 -0.76345,0 -1.17644,-0.0838 -1.14524,-0.23224 0.0269,-0.12774 -0.1148,-0.22003 -0.31475,-0.2051 -0.40751,0.0304 -1.11792,-0.74523 -1.36053,-1.48549 -0.12327,-0.37618 -0.0881,-0.45045 0.15457,-0.32604 0.18504,0.0949 0.23491,0.0844 0.12128,-0.0256 -0.10611,-0.10268 -0.28846,-0.19824 -0.40518,-0.21234 -0.11673,-0.0141 -0.27709,-0.0372 -0.35636,-0.0512 -0.0792,-0.0141 -8.8e-4,-0.18179 0.17364,-0.37265 0.23617,-0.25789 0.24085,-0.30603 0.0182,-0.18744 -0.3872,0.20625 -1.0323,-0.26545 -0.87132,-0.63709 0.068,-0.15699 0.0325,-0.23557 -0.0788,-0.17463 -0.33742,0.18472 -0.41549,-0.73708 -0.21695,-2.56188 0.799,-7.34353 1.58123,-11.13718 4.73418,-22.95965 2.79311,-10.47324 3.21772,-11.92684 3.43308,-11.75274 0.11554,0.0934 0.12455,0.0435 0.0209,-0.11521 -0.21764,-0.33295 3.12724,-12.55814 3.39576,-12.41114 0.0994,0.0544 0.12555,-0.0285 0.0581,-0.18421 -0.2711,-0.62582 1.35886,-5.38664 1.76762,-5.16286 0.0993,0.0544 0.25603,-0.009 0.34818,-0.14124 0.10465,-0.14998 0.0672,-0.18518 -0.0998,-0.0938 -0.65484,0.35849 -0.18074,-0.31433 0.61471,-0.8724 1.09223,-0.76629 1.60159,-0.88217 4.15201,-0.94468 1.11528,-0.0274 2.96551,-0.20616 4.11161,-0.3974 1.1461,-0.19124 2.70897,-0.45156 3.47302,-0.57847 7.13059,-1.18442 18.55055,0.83827 17.86395,3.16405 -0.0596,0.20179 -0.0138,0.31517 0.1016,0.25196 0.11548,-0.0632 0.20995,0.0849 0.20995,0.32903 0,0.24417 0.2605,0.71821 0.57891,1.05339 2.91137,3.06489 -1.14393,5.38629 -11.22952,6.42818 -1.59182,0.16444 -3.70468,0.40309 -4.69526,0.53032 -0.99057,0.12723 -2.13668,0.17431 -2.54688,0.10461 -0.56886,-0.0967 -0.66343,-0.0742 -0.39853,0.0947 0.26064,0.16614 0.0874,0.19391 -0.69462,0.11131 -0.64459,-0.0681 -0.86531,-0.0464 -0.57883,0.057 0.40619,0.1465 0.36967,0.18537 -0.29727,0.31642 -0.82143,0.16141 -1.31431,0.68022 -1.56939,1.65198 -0.0889,0.33841 -0.67167,2.21211 -1.29518,4.16377 -1.6282,5.09633 -1.64654,5.30537 -0.4742,5.4044 0.51393,0.0434 0.89303,0.0196 0.84243,-0.0529 -0.0506,-0.0726 0.40097,-0.18348 1.0035,-0.24657 0.60253,-0.0631 2.13742,-0.23367 3.41087,-0.37907 6.43146,-0.73437 10.55785,-0.29896 10.86394,1.14633 0.0836,0.39516 0.33041,0.87637 0.54826,1.06934 0.21785,0.19298 0.39609,0.44976 0.39609,0.57061 0,0.12087 0.12189,0.21975 0.27087,0.21975 0.62897,0 1.46564,0.92153 1.46564,1.6143 0,0.6177 -0.45901,1.29484 -0.72064,1.06309 -0.0545,-0.0483 -0.0598,0.27723 -0.0119,0.72347 0.0818,0.76084 -0.28113,1.52199 -0.63385,1.32889 -0.0859,-0.0471 -0.56901,0.23961 -1.07356,0.63697 -0.91737,0.72248 -0.91737,0.72248 0.0667,0.0705 0.54121,-0.35858 0.98181,-0.57497 0.97909,-0.48089 -0.008,0.26512 -1.61665,1.19002 -2.77348,1.5943 -2.30266,0.80471 -4.44989,1.37221 -4.77451,1.26186 -0.18883,-0.0642 -0.28523,-0.0334 -0.21424,0.0683 0.21212,0.30403 -10.02844,2.40514 -10.66604,2.18841 -0.18986,-0.0646 -0.28958,-0.0376 -0.22161,0.0598 0.068,0.0974 -0.26524,0.23476 -0.74046,0.30518 -0.47523,0.0705 -1.11478,0.1888 -1.42122,0.26303 -0.39137,0.0948 -0.50787,0.0643 -0.39151,-0.10244 0.0911,-0.13057 0.0617,-0.23741 -0.0651,-0.23741 -0.12695,0 -0.22528,0.16152 -0.21851,0.35892 0.007,0.19741 -0.26365,1.51259 -0.6009,2.92263 -1.84887,7.72992 -2.04215,9.23189 -1.18726,9.22623 0.32042,-0.002 0.38065,-0.0554 0.18617,-0.16486 -0.37398,-0.21039 4.99777,-1.33835 6.53892,-1.37305 2.0717,-0.0467 2.39206,-0.0994 1.85228,-0.30483 -0.44842,-0.17068 -0.4472,-0.17672 0.0386,-0.19067 0.27591,-0.008 0.55421,0.10095 0.61844,0.24195 0.0698,0.15315 0.12415,0.11187 0.13506,-0.10255 0.0102,-0.1974 0.0964,-0.35994 0.19194,-0.36118 0.0955,-0.002 2.20259,-0.23198 4.68241,-0.51274 8.45915,-0.95775 12.99645,-0.37637 12.42501,1.59204 -0.0573,0.19757 -0.0102,0.30749 0.10566,0.24427 0.25718,-0.14079 0.2535,0.33563 -0.012,1.55005 -0.14577,0.66684 -0.12427,0.9618 0.0774,1.06297 0.5548,0.27823 0.44749,1.56326 -0.13887,1.66293 -0.45635,0.0776 -0.44104,0.0933 0.11407,0.11753 0.70357,0.0306 0.71952,0.88924 0.0257,1.38367 -0.17574,0.12523 -0.31953,0.32965 -0.31953,0.45425 0,0.1246 -0.23443,0.33551 -0.52097,0.4687 -0.52094,0.24216 -0.52094,0.24216 -0.0651,-0.24915 0.2507,-0.27023 0.022,-0.10795 -0.50813,0.36061 -0.69494,0.61418 -1.50414,1.03252 -2.89975,1.49911 -2.14437,0.71693 -2.50276,2.81669 -2.49289,14.6057 0.003,4.25867 -0.0303,4.65883 -0.40129,4.74471 -0.3305,0.0765 -0.33699,0.0982 -0.0352,0.11759 0.54032,0.0347 0.80663,5.96623 0.30635,6.8232 -0.49427,0.84666 -1.90863,1.34601 -2.28491,0.8067 z M 83.328688,210.78621 c -4.20897,-2.49901 -4.433047,-5.67549 -0.871719,-12.35708 1.38597,-2.60029 4.172755,-5.78716 3.542147,-4.05067 -0.10623,0.29262 -0.08636,0.3039 0.107811,0.0611 0.130964,-0.16383 0.193777,-0.36139 0.139601,-0.43904 -0.253722,-0.36365 1.652324,-1.09305 2.097113,-0.80252 0.407512,0.26617 1.485979,0.35931 1.570162,0.1356 0.10194,-0.27083 1.59151,0.47387 1.740661,0.87022 0.06356,0.16889 0.0023,0.22629 -0.150528,0.14232 -0.141373,-0.0774 -0.07868,0.13453 0.139273,0.47095 0.460323,0.7105 0.698308,0.70094 0.270079,-0.0109 -0.270711,-0.44997 -0.262561,-0.46037 0.134453,-0.17139 0.88889,0.64704 2.021985,3.60187 2.328472,6.07212 0.212618,1.7137 -1.023287,6.33625 -1.694083,6.33625 -0.136417,0 -0.334856,0.084 -0.440985,0.1867 -0.1121,0.10847 -0.07169,0.12489 0.09652,0.0392 0.465877,-0.23749 0.338932,0.0562 -0.439167,1.01595 -0.400728,0.49428 -0.833585,0.84121 -0.961919,0.77096 -0.128323,-0.0702 -0.165475,-0.0305 -0.08252,0.0884 0.201589,0.28894 -1.212739,1.36633 -2.626988,2.00116 -1.803902,0.80971 -3.087988,0.71552 -4.898269,-0.35931 z m 23.745042,-1.19805 c -0.78187,-0.19863 -2.00757,-1.15966 -1.82069,-1.42752 0.0638,-0.0914 -0.006,-0.23295 -0.15514,-0.31457 -0.16931,-0.0927 -0.20906,-0.0595 -0.10589,0.0884 0.47796,0.68507 -0.40211,0.10632 -0.96544,-0.63487 -1.12156,-1.47568 -1.69769,-5.56451 -1.01011,-7.16874 0.11108,-0.25912 0.32872,-0.8403 0.48371,-1.29151 2.12644,-6.19074 4.51795,-9.85184 6.29408,-9.63546 0.99145,0.12079 1.20452,0.0749 1.83522,-0.39519 0.72144,-0.53773 1.46775,-0.68818 1.70769,-0.34426 0.072,0.10316 -1e-5,0.24076 -0.15998,0.30575 -0.15997,0.065 -0.0641,0.0688 0.21291,0.009 0.3345,-0.0728 0.58496,0.014 0.74545,0.25827 0.13292,0.20235 0.24485,0.2951 0.24872,0.2061 0.0149,-0.34217 0.8761,0.59814 0.9935,1.08475 0.31573,1.30868 1.12416,3.83003 1.33077,4.15043 0.73619,1.14165 -1.62133,9.87951 -2.84654,10.55026 -0.15317,0.0838 -0.18724,0.002 -0.0916,-0.21837 0.096,-0.22142 0.0618,-0.30226 -0.0922,-0.21799 -0.13457,0.0736 -0.18578,0.26989 -0.1138,0.43605 0.59298,1.36883 -4.62426,5.03414 -6.49072,4.55998 z"
       id="path50" /></g></svg>
